<?xml version="1.0" standalone="no"?>
<!DOCTYPE svg PUBLIC "-//W3C//DTD SVG 1.1//EN" "http://www.w3.org/Graphics/SVG/1.1/DTD/svg11.dtd" >
<svg>
<metadata>
Created by FontForge 20090622 at Wed Jul 19 12:04:30 2017
 By deploy user
&#194;&#169; 2007 Adobe Systems Incorporated. All Rights Reserved.
</metadata>
<defs>
<font id="ArnoPro-Italic" horiz-adv-x="474" >
  <font-face 
    font-family="Arno Pro"
    font-weight="400"
    font-style="italic"
    font-stretch="normal"
    units-per-em="1000"
    panose-1="2 2 5 2 4 5 6 9 4 3"
    ascent="678"
    descent="-322"
    x-height="411"
    cap-height="618"
    bbox="-199 -383 1511 875"
    underline-thickness="50"
    underline-position="-50"
    slope="-11"
    unicode-range="U+0020-U+FB06"
  />
<missing-glyph horiz-adv-x="500" 
d="M-30 0v700h500v-700h-500zM220 395l170 255h-340zM250 350l170 -255v510zM50 50h340l-170 255zM20 605v-510l170 255z" />
    <glyph glyph-name="f_f" unicode="ff" horiz-adv-x="475" 
d="M34 355q0 5 1 8q4 8 16.5 19.5t18.5 14.5q16 -1 44 -1q6 2 6 7q15 74 43 124.5t82 89.5q49 37 89 37q34 2 34 -15q0 -13 -43 -56q-5 -4 -11 -2q-18 15 -42 15q-27 0 -43 -37q-20 -41 -38 -156q-2 -7 4 -7h148q5 0 7 7q18 96 46.5 149.5t84.5 94.5q49 35 89 37
q35 0 35 -17t-43 -56q-3 -5 -11 -2q-18 16 -44 16q-25 0 -43 -37q-24 -47 -43 -184q-2 -7 4 -7q67 0 101 6q1 -2 -1 -10t-4 -10q-21 -20 -66 -25l-37 -3q-5 0 -5 -7l-20 -138.5t-28 -173.5q-11 -67 -37.5 -119.5t-59.5 -81.5t-64.5 -44t-57.5 -15q-47 0 -67 26
q-12 17 -14 39q-32 -48 -71 -71.5t-75 -23.5q-28 0 -44.5 11.5t-16.5 28.5q-2 28 11 58q2 6 12 6q36 -50 85 -50q33 0 50 32.5t32 116.5q32 180 62 397q0 7 -4 7q-46 0 -72 2zM189 353q-6 0 -6 -7q-36 -250 -53 -340q-14 -76 -43 -131q30 -50 100 -50q37 0 59.5 35.5
t38.5 123.5q26 147 55 361q0 8 -5 8h-146z" />
    <glyph glyph-name="f_f_i" unicode="ffi" horiz-adv-x="681" 
d="M146 -224q-46 0 -67 26q-12 17 -14 40q-64 -96 -148 -96q-27 0 -43 11.5t-16 27.5q-2 28 10 56q2 6 12 6q34 -47 84 -47q34 0 51.5 32t32.5 118q33 183 62 396q0 7 -5 7l-72 3q0 6 1 7q3 8 16.5 20t19.5 14h44q4 2 6 7q14 73 43.5 123t83.5 90q50 37 89 37q33 2 33 -16
q0 -12 -42 -54q-8 -6 -13 -2q-16 13 -41 13q-27 0 -43 -36q-21 -44 -39 -155q-2 -7 4 -7l146 -1q7 2 7 7q16 87 47 141.5t87 95.5q59 43 117 44q49 0 65 -22q4 -4 2 -15q-3 -10 -16.5 -25t-22.5 -21q-10 -8 -15 0q-29 34 -68 34q-50 0 -78 -58q-32 -68 -47 -173q-2 -8 4 -8
q58 0 99 1q84 2 117 16q8 0 6 -9q-15 -29 -30 -102q-28 -136 -36 -212q-3 -27 11 -27q19 0 59 44q4 0 4 -3q3 -16 -3 -29q-32 -43 -69 -67t-57 -24q-33 0 -17 94q12 81 51 274q1 3 -0.5 6.5t-4.5 2.5q-6 -2 -36 -3.5t-62 -2.5t-36 -1h-1q-5 0 -5 -6q-36 -249 -48 -312
q-21 -128 -89.5 -194t-129.5 -66zM187 -176q36 0 59 37t39 123q26 147 55 361q0 8 -5 8h-146q-6 0 -6 -7q-36 -250 -53 -340q-13 -71 -43 -131q30 -51 100 -51z" />
    <glyph glyph-name="f_f_l" unicode="ffl" horiz-adv-x="691" 
d="M334 654q35 0 35 -17q0 -9 -15.5 -26t-27.5 -27q-4 -4 -12 -2q-19 14 -40 14q-28 0 -45 -36q-21 -46 -37 -157q-2 -7 4 -7h148q5 1 7 7q16 89 48 145t88 97q51 36 99 37q35 0 59 -14q19 3 44 21q3 0 7.5 -4t3.5 -7q-17 -36 -36 -137q-56 -279 -78 -440q-3 -39 10 -39
q22 0 65 46q2 -2 3 -6q1 -5 -1 -16t-4 -13q-31 -41 -68 -64.5t-62 -23.5q-32 0 -14 104q29 174 89 493q4 25 -6 35q-20 20 -53 20q-49 0 -76 -58q-30 -52 -47 -174q-2 -8 4 -8q63 0 98 7q1 -2 -1 -11t-4 -11q-25 -22 -61 -25l-39 -3q-1 0 -3.5 -2t-2.5 -4q-6 -35 -20.5 -140
t-27.5 -172q-11 -67 -37.5 -119.5t-59.5 -81.5t-64.5 -44t-57.5 -15q-47 0 -67 26q-12 17 -14 40q-64 -96 -148 -96q-27 0 -43 11.5t-16 27.5q-2 30 10 58q2 6 12 6q35 -50 84 -50q34 0 51.5 33.5t32.5 117.5q33 186 62 396q0 7 -4 7q-46 0 -72 2q0 5 1 7q4 9 15 20.5
t16 13.5h48q6 2 6 7q14 76 43 125.5t83 88.5q50 37 88 37zM189 353q-6 0 -6 -7q-36 -250 -53 -340q-13 -71 -43 -131q30 -50 100 -50q36 0 59 36.5t39 122.5q30 173 56 361q0 8 -5 8h-147z" />
    <glyph glyph-name="longs_t" unicode="&#x17f;t" horiz-adv-x="476" 
d="M347 682q40 0 65 -19q16 -12 19 -29.5t-4 -51.5l-36 -179q-1 -2 0.5 -4.5t3.5 -2.5q87 -2 116 8q2 -10 -5 -19q-17 -18 -53 -26q-20 -4 -68 -7q-4 0 -6 -7q-31 -144 -41 -236q-4 -50 19 -50q20 0 47.5 23t42.5 44q1 1 3.5 -0.5t2.5 -3.5q0 -23 -5 -31q-25 -38 -73 -72.5
t-83 -34.5q-14 0 -23 17t-8 48q-1 37 49 296q2 7 -4 7q-48 0 -69 3q-1 2 -1 7q3 7 18 19.5t20 14.5h41q5 0 8 7l37 181q4 28 -7 39q-17 17 -46 17q-45 0 -76 -59q-35 -64 -68 -282q-33 -227 -46 -294q-22 -124 -86.5 -191.5t-126.5 -67.5q-27 0 -43 11.5t-16 27.5
q-2 29 10 57q2 6 12 6q35 -49 82 -49q35 0 53.5 34t33.5 117q14 79 33 202.5t27 171.5q20 122 55 200t95 121q52 37 101 37z" />
    <glyph glyph-name="R_A" unicode="RA" horiz-adv-x="1118" 
d="M96 590q-1 5 0 16t4 12q9 0 55.5 -1.5t63.5 -1.5q30 0 74.5 0.5t55.5 0.5q80 0 123 -39t43 -106q0 -66 -41 -112t-103 -68q-2 -1 -3 -3t0 -3q68 -124 140 -208q24 -28 54 -34q10 0 14 8q41 69 142 259.5l129 246.5q19 40 25 59q16 -2 30 -2q12 0 28 2q0 -17 6 -55
q59 -367 77 -455q11 -50 25 -61.5t68 -18.5q3 -3 2 -15.5t-5 -13.5q-10 0 -55 1.5t-59 1.5q-17 0 -66 -1.5t-59 -1.5q-2 3 -1.5 15t3.5 14q42 6 55 11q15 6 15 26q-7 77 -27 174q-2 6 -6 6q-15 1 -94 1q-65 0 -74 -1q-6 0 -10 -8l-102 -195q-5 -9 4 -12q12 -2 24 -2
q3 -5 0.5 -15.5t-7.5 -15.5q-14 -2 -60 -2q-70 2 -102 12.5t-62 49.5q-15 20 -36 53l-49.5 80l-37.5 62q-14 20 -25 20l-55 2q-6 0 -6 -7q-20 -124 -26 -180q-3 -24 3.5 -34.5t22.5 -15.5q10 -3 58 -11q2 -2 0 -13t-5 -14q-24 0 -74 1.5t-59 1.5q-28 0 -71.5 -1.5
t-59.5 -1.5q-2 4 -1 15t3 13q29 3 56 8q20 5 29 16t15 39q26 122 73 449q1 22 -4 31t-20 14q-18 4 -55 8zM429 455q0 61 -32 94.5t-95 33.5q-21 0 -32 -5q-10 -4 -10 -17q-13 -63 -42 -248q0 -6 5 -6q85 -5 123 11q40 16 61.5 52t21.5 85zM860 508q-4 -9 -48 -96.5
t-59 -119.5q0 -5 2 -6q20 -2 80 -2q50 0 61 1q7 0 5 8q-19 135 -36 216q-1 1 -5 -1z" />
    <glyph glyph-name="K_A" unicode="KA" horiz-adv-x="1142" 
d="M435 590q-3 18 3 28q15 0 55 -1.5t61 -1.5l119 3q2 -2 0.5 -13.5t-4.5 -14.5q-43 -7 -69.5 -20.5t-61.5 -46.5q-154 -142 -220 -197l-1 -4q91 -130 175 -219q44 -45 84 -60q9 -3 15 6l160 281.5t122 227.5q14 27 26 58q16 -2 29 -2q12 0 30 2q0 -6 5 -55q69 -423 75 -453
q10 -51 24.5 -63t68.5 -19q3 -3 1 -15.5t-6 -13.5q-10 0 -55 1.5t-58 1.5q-17 0 -66 -1.5t-59 -1.5q-2 3 -1 15.5t4 14.5q38 6 54 11q18 8 15 26q-8 84 -26 173q-3 6 -6 6q-14 1 -95 1q-70 0 -78 -1q-8 -2 -11 -8q-73 -130 -105 -196q-5 -9 4 -11q33 -3 36 -3q2 -3 1 -14.5
t-5 -14.5q-37 -4 -101.5 -2t-85.5 11q-28 13 -48 33q-55 54 -195 244q-8 12 -15 17q0 9 6 15q32 13 110.5 80t122.5 117q30 33 32 50q2 12 -15 18q-18 6 -51 11zM95 589q-1 4 0.5 14.5t3.5 14.5q8 0 51.5 -1.5t74.5 -1.5q29 0 70 1.5t52 1.5q2 -3 1.5 -13.5t-3.5 -14.5
q-9 -1 -21 -3t-20 -3t-13 -3q-17 -5 -24.5 -16.5t-12.5 -38.5q-41 -234 -69 -429q-3 -34 4 -46t28 -18q7 -2 24 -4t27 -4q2 -3 0.5 -14t-4.5 -14q-13 0 -58 1.5t-80 1.5q-34 0 -80 -1.5t-48 -1.5q-2 4 -0.5 14.5t3.5 13.5q13 3 32 5.5t25 3.5q20 5 30 19t15 42
q44 252 69 439q4 23 -1.5 32.5t-24.5 14.5q-9 3 -51 8zM887 509q-13 -27 -56.5 -109t-55.5 -107q0 -6 2 -7q18 -2 84 -2q50 0 61 1q2 0 4 3t1 6q-17 120 -35 216h-2q-2 -1 -3 -1z" />
    <glyph glyph-name="T_T" unicode="TT" horiz-adv-x="1036" 
d="M98 459q-4 -2 -16 3t-13 9q33 87 47 155q2 3 8 3q35 -14 76 -14l772 1q51 0 94 12q2 0 4.5 -2.5t1.5 -4.5q-23 -56 -42 -158q-2 -4 -16.5 -3.5t-16.5 3.5q3 50 -5 85q-3 23 -29 26q-28 2 -74.5 2t-58.5 -1q-7 -3 -7 -9q-71 -451 -74 -486q-1 -37 27 -43q16 -5 69 -11
q2 -3 0 -15t-4 -14q-14 0 -66.5 1.5t-82.5 1.5q-26 0 -80.5 -1.5t-63.5 -1.5q-2 3 -0.5 15t3.5 14q61 7 67 8q24 4 33.5 19t17.5 60q18 98 74 453q2 8 -5 8l-332 1q-7 -3 -7 -8q-73 -462 -74 -487q-1 -37 27 -43q16 -5 69 -11q2 -3 0 -15t-4 -14q-14 0 -66.5 1.5t-82.5 1.5
q-26 0 -80.5 -1.5t-63.5 -1.5q-2 3 -0.5 15t3.5 14q61 7 67 8q24 4 33.5 19t17.5 60l75 454q0 8 -6 8q-10 1 -53.5 1t-58.5 -1q-26 -2 -47 -27q-17 -20 -57 -89z" />
    <glyph glyph-name="T_h" unicode="Th" horiz-adv-x="971" 
d="M884 411q42 0 21 -113l-14.5 -71.5l-16.5 -81t-10 -57.5q-3 -24 10 -24q22 0 60 43q3 -3 3 -7q3 -11 -2 -27q-31 -42 -68.5 -65.5t-58.5 -23.5q-29 0 -19 69q6 41 25.5 132.5t23.5 114.5q9 46 -13 46q-27 0 -70.5 -40t-78.5 -98q-37 -57 -50 -121q-10 -42 -4 -68
q-11 -9 -37 -23.5t-33 -14.5q-6 0 -9 13q2 19 8 55q78 432 93 531q-21 -4 -74 -4q-138 0 -150 -1q-2 0 -5 -3t-3 -5q-71 -452 -73 -487q-3 -36 26 -43q16 -5 69 -11q2 -2 0 -14.5t-4 -14.5q-13 0 -66 1.5t-83 1.5q-26 0 -80.5 -1.5t-63.5 -1.5q-2 3 -0.5 15t3.5 14
q57 6 67 9q24 4 33.5 19t17.5 59q25 134 75 454q0 6 -6 8q-14 1 -62 1t-66 -1q-30 -3 -47 -23q-12 -15 -52 -85q-3 -1 -15.5 4t-13.5 8q31 78 45 147q2 3 8 3q35 -14 76 -14l352 1q78 0 99 1q8 37 14 43q21 13 68 27q2 0 6 -5t3 -8q-12 -20 -25 -84l-64 -354q0 -3 4 -1
q55 76 119.5 126t107.5 50z" />
    <glyph glyph-name="f_b" unicode="fb" horiz-adv-x="675" 
d="M354 682q39 0 57 -15q18 5 43 21q3 1 7.5 -3.5t3.5 -7.5q-12 -25 -28 -106l-57 -296q-1 -2 2 -2t4 1q51 63 107 100t92 37q27 0 42.5 -27.5t15.5 -74.5q0 -150 -117 -250q-38 -34 -86 -54.5t-88 -20.5q-28 0 -48.5 24t-20.5 75q0 21 8 73l43 231t36 195q3 26 -6 34
q-19 19 -50 19q-46 0 -74 -55q-29 -56 -48 -175q-2 -7 3 -7q52 0 94 7q1 -2 -0.5 -10.5t-3.5 -11.5q-25 -22 -62 -26q-27 -3 -34 -3q-5 -2 -5 -7v-1q-7 -42 -24.5 -159t-29.5 -182q-22 -123 -86.5 -191t-126.5 -68q-27 0 -43 11t-16 28q-2 29 12 57q2 6 12 6q33 -48 81 -48
q35 0 52.5 31.5t32.5 114.5q31 175 62 400q0 7 -5 7q-45 0 -69 2q-3 3 -1 7q4 10 15.5 21.5t16.5 13.5h47q4 0 6 7q18 91 48.5 145t86.5 95q54 38 99 38zM413 35q43 0 84 47q30 35 48.5 92t19.5 109q0 65 -37 65q-27 0 -66.5 -34t-67.5 -76q-18 -27 -28.5 -65.5t-9.5 -68.5
q0 -31 15.5 -50t41.5 -19z" />
    <glyph glyph-name="f_f_b" unicode="ffb" horiz-adv-x="905" 
d="M418 355q-5 0 -5 -7l-20 -138.5t-28 -173.5q-11 -67 -37.5 -119.5t-59.5 -81.5t-64.5 -44t-57.5 -15q-47 0 -67 26q-12 17 -14 40q-64 -96 -148 -96q-27 0 -43 11.5t-16 27.5q-2 33 11 59q3 6 12 6q33 -50 84 -50q33 0 50.5 33t32.5 117q33 183 62 396q0 7 -4 7
q-46 0 -72 2q0 5 1 7q4 9 15 20.5t16 14.5q16 -1 48 -1q6 2 6 7q14 76 42.5 125t82.5 89q49 37 89 37q35 2 35 -17q0 -15 -43 -54q-1 -1 -5.5 -2t-5.5 0q-23 15 -41 15q-26 0 -43 -34q-23 -49 -39 -159q-2 -7 4 -7h147q7 2 7 7q17 91 47 146t84 95q51 37 101 38q34 0 59 -15
q26 7 46 22q3 0 7.5 -4t3.5 -7q-14 -30 -31 -110l-58 -295q0 -2 2.5 -2t3.5 1q52 63 108.5 101t92.5 38q27 0 42 -27t15 -74q0 -71 -30.5 -136.5t-86.5 -113.5q-38 -33 -88 -54.5t-88 -21.5q-27 0 -47 25t-20 76q0 25 7 71l42.5 223.5l38.5 203.5q5 22 -5 34q-19 20 -52 20
q-49 0 -75 -55q-30 -56 -49 -177q0 -8 5 -8q54 0 98 7q1 -2 -1 -11t-4 -11q-23 -20 -61 -25q-20 -2 -39 -2zM189 353q-6 0 -6 -7q-36 -250 -53 -340q-13 -71 -43 -131q30 -50 100 -50q36 0 59 36.5t39 122.5q27 153 55 362q0 7 -5 7h-146zM641 35q44 0 85 49
q31 35 49.5 90.5t19.5 106.5q0 67 -37 67q-27 0 -67.5 -36t-67.5 -76q-38 -59 -38 -133q1 -31 15 -49.5t41 -18.5z" />
    <glyph glyph-name="f_f_h" unicode="ffh" horiz-adv-x="928" 
d="M524 404q3 -9 -5 -21q-24 -23 -63 -26q-20 -2 -37 -2q-1 0 -3.5 -2.5t-2.5 -4.5l-20 -138.5t-28 -173.5q-11 -67 -37.5 -119.5t-59.5 -81.5t-64.5 -44t-57.5 -15q-48 0 -67 25q-12 19 -14 41q-32 -48 -72 -72t-76 -24q-27 0 -43 11.5t-16 27.5q-2 32 11 58q2 6 12 6
q34 -49 83 -49q34 0 51.5 33.5t32.5 116.5q33 183 62 396q0 7 -4 7q-46 0 -72 2q0 5 1 7q4 9 15 20.5t16 13.5h48q6 2 6 7q14 76 43 125t83 89q50 37 88 37q35 2 35 -17q0 -15 -43 -54q-5 -5 -11 -2q-17 14 -42 14q-28 0 -43 -35q-22 -47 -38 -157q-2 -7 4 -7h147q7 2 7 7
q18 94 47.5 146.5t85.5 93.5q53 38 105 39q36 0 59 -13q23 5 44 20q3 0 8 -4t3 -7q-13 -28 -30 -113l-63 -330q1 1 2.5 0t2.5 0q55 76 119 126t108 50q42 0 21 -111l-14.5 -71.5l-16.5 -82t-10 -58.5q-3 -24 10 -24q20 0 60 43q2 0 4 -6q1 -11 -2 -25q-32 -42 -70.5 -67
t-58.5 -25q-13 0 -18 19t-1 50q6 33 51 249q9 44 -15 44q-26 0 -69.5 -39.5t-79.5 -98.5q-33 -54 -49 -123q-11 -46 -4 -70q-11 -9 -37 -23t-34 -15q-8 4 -8 13t8 57q11 63 35 190.5l42 224.5t21 119q6 25 -5 37q-19 19 -54 19q-51 0 -78 -56q-31 -59 -49 -177q0 -7 4 -7
q56 0 100 7zM189 353q-6 0 -6 -7q-36 -250 -53 -340q-13 -71 -43 -131q30 -50 99 -50q38 0 60.5 36t38.5 123q27 153 55 362q0 7 -5 7h-146z" />
    <glyph glyph-name="f_f_j" unicode="ffj" horiz-adv-x="687" 
d="M600 684q54 0 70 -24q5 -5 1 -15q-3 -8 -17 -22.5t-25 -21.5q-9 -5 -15 -1q-29 36 -71 36q-47 0 -75 -58q-32 -63 -48 -174q-2 -7 4 -7h117q64 0 108 10q2 1 4.5 -2.5t1.5 -6.5q-8 -15 -18.5 -71.5t-22.5 -132t-16 -94.5q-15 -93 -33 -142t-56 -92q-42 -51 -100 -72
q-3 1 -10 7t-10 12q-2 4 1 7q57 30 81 71.5t41 130.5q6 34 9 55q8 45 18 109.5l17.5 109l9.5 56.5q1 2 -0.5 4t-3.5 2q-14 -3 -143 -5q-6 0 -6 -5l-20 -138.5t-28 -173.5q-11 -67 -37.5 -119.5t-59.5 -81.5t-64.5 -44t-57.5 -15q-47 0 -67 26q-12 19 -14 40q-32 -48 -72 -72
t-76 -24q-27 0 -43 11.5t-16 27.5q-2 29 10 57q2 6 12 6q34 -49 84 -49q34 0 51.5 33.5t32.5 117.5q33 183 62 396q0 7 -5 7l-72 3q0 5 1 7q4 8 17 20t18 14h45q4 1 6 7q14 76 42.5 124.5t83.5 88.5q50 37 88 37q35 0 35 -17q0 -15 -43 -54q-4 -4 -11 -2q-16 14 -42 14
q-27 0 -44 -35q-20 -43 -38 -156q-2 -7 4 -7l147 -1q7 2 7 7q17 87 47.5 141.5t86.5 96.5q55 41 117 43zM189 353q-6 0 -6 -7q-36 -250 -53 -340q-13 -71 -43 -131q30 -50 100 -50q37 0 60 36t38 123q26 147 55 361q0 8 -5 8h-146z" />
    <glyph glyph-name="f_f_k" unicode="ffk" horiz-adv-x="902" 
d="M419 355h-1q-5 0 -5 -7q-6 -35 -20.5 -140t-27.5 -172q-11 -67 -37.5 -119.5t-59.5 -81.5t-65 -44t-58 -15q-45 0 -66 26q-12 17 -14 40q-31 -47 -71.5 -71.5t-76.5 -24.5q-27 0 -43 11.5t-16 27.5q-2 28 10 56q2 6 12 6q34 -48 84 -48q34 0 51.5 33.5t32.5 117.5
q33 183 62 396q0 7 -4 7q-33 0 -72 3q0 5 1 7q4 9 15 20.5t16 13.5h48q6 0 6 6q14 77 43 126t83 88q48 35 88 37q35 0 35 -17q0 -14 -43 -53q-4 -4 -12 -2q-16 13 -41 13q-28 0 -43 -33q-21 -44 -38 -158q-2 -7 4 -7h149q6 0 6 6q18 93 48 147t86 94q49 36 103 38
q38 0 61 -14q30 9 47 21q3 0 8 -4t4 -7q-15 -31 -37 -142l-60 -316q-1 -4 2 -5q2 -1 3 1q47 62 117.5 128.5t112.5 66.5q38 0 51 -19q0 -8 -1 -11q-2 -9 -14 -29.5t-20 -24.5q-32 19 -60 19q-24 0 -65.5 -37t-64.5 -69q-4 -4 0 -8q19 -24 33 -46q49 -77 73 -103.5t46 -26.5
q16 0 32 11t42 46q2 0 4 -6q2 -8 -4 -33q-27 -39 -58.5 -62t-58.5 -23q-29 0 -59 39q-18 24 -85 140q-9 14 -20 3q-17 -20 -25 -55q-7 -23 -8 -40q-7 -38 5 -55q-5 -6 -36 -22.5t-38 -16.5q-9 0 -9 26q2 24 25 145q74 392 79 423q4 27 -6 40q-22 22 -58 22q-50 0 -76 -56
q-31 -57 -48 -177q-2 -7 3 -7q55 0 99 7q1 -2 -1 -11t-4 -11q-23 -20 -61 -25q-30 -3 -39 -3zM189 353q-6 0 -6 -7q-36 -250 -53 -340q-13 -71 -43 -131q30 -50 100 -50q37 0 59.5 36.5t38.5 122.5q26 147 55 361q0 8 -5 8h-146z" />
    <glyph glyph-name="f_f_t" unicode="fft" horiz-adv-x="725" 
d="M334 654q35 0 35 -17q0 -14 -43 -53q-4 -4 -12 -2q-16 13 -41 13q-28 0 -43 -34q-21 -45 -39 -158q0 -6 4 -6l147 -1q4 1 6 7q18 95 47 148.5t85 94.5q52 38 89 38q34 0 34 -17q0 -15 -42 -54q-5 -5 -12 -2q-14 13 -42 13q-26 0 -43 -34q-25 -50 -44 -187q-2 -7 4 -7h140
q4 0 8 9q19 85 27 104q3 8 32.5 30.5t43.5 27.5q2 1 6 -5t3 -8q-13 -17 -23 -54q-7 -21 -21 -96q0 -7 4 -7q88 -3 116 9q3 -13 -5 -21q-13 -15 -47 -24q-18 -4 -73 -7q-5 0 -7 -7q-33 -158 -39 -238q-6 -50 18 -50q19 0 47 23t44 45q5 0 5 -4q2 -20 -5 -32
q-24 -39 -72.5 -73t-83.5 -34q-13 0 -22.5 17t-8.5 47q-1 38 48 297q1 4 -0.5 7t-4.5 2h-136q-5 0 -5 -6l-20 -138.5t-28 -173.5q-11 -67 -37.5 -119.5t-59.5 -81.5t-64.5 -44t-57.5 -15q-46 0 -67 26q-12 17 -14 40q-31 -47 -71.5 -71.5t-76.5 -24.5q-27 0 -43 11.5
t-16 27.5q-2 28 10 56q2 6 12 6q34 -48 84 -48q34 0 51.5 33.5t32.5 117.5q33 183 62 396q0 7 -5 7l-71 3q-2 2 1 7q4 9 16.5 20.5t18.5 13.5h44q6 0 6 6q14 75 43 125t83 89q50 37 88 37zM189 353q-6 0 -6 -7q-36 -250 -53 -340q-13 -71 -43 -131q30 -50 98 -50
q38 0 61 36.5t39 122.5q26 147 55 361q0 8 -5 8h-146z" />
    <glyph glyph-name="f_h" unicode="fh" horiz-adv-x="700" 
d="M357 682q40 0 61 -14q19 5 42 20q3 1 8 -3.5t3 -7.5q-11 -23 -32 -135l-58 -306h4q56 76 120 125.5t107 49.5t22 -110l-20.5 -99t-21.5 -115q-1 -23 10 -23q22 0 60 43q3 -3 4 -6q2 -13 -2 -24q-31 -42 -69.5 -67.5t-58.5 -25.5q-13 0 -18.5 19.5t-1.5 49.5q5 31 13 71
l19 92.5l17 81.5q10 47 -13 47q-26 0 -69 -39.5t-79 -97.5q-35 -56 -50 -123q-10 -52 -4 -72q-11 -9 -36.5 -23.5t-33.5 -14.5q-2 0 -5 4t-3 8q0 17 7 57l35 191.5l42 228.5t21 122q3 20 -6 30q-21 22 -56 22q-47 0 -75 -55q-29 -54 -48 -178q-2 -7 4 -7q54 0 98 7
q1 -2 -1 -11t-4 -11q-24 -21 -62 -26q-30 -3 -38 -3q-5 -2 -5 -7v-1q-7 -42 -24.5 -159t-29.5 -182q-22 -123 -86.5 -191t-126.5 -68q-27 0 -43 11t-16 28q-2 30 12 59q2 6 12 6q36 -49 84 -49q33 0 50 31t32 114q31 175 62 400q0 7 -5 7q-46 0 -70 2v7q4 10 15.5 21.5
t16.5 13.5h47q4 0 6 7q17 90 48 145t87 96q22 16 51.5 26.5t50.5 10.5z" />
    <glyph glyph-name="f_i" unicode="fi" horiz-adv-x="456" 
d="M366 684q49 0 66 -24q4 -6 2 -16q-3 -9 -16.5 -26t-23.5 -23q-4 -2 -9 -2.5t-6 1.5q-31 42 -70 42q-45 0 -73 -58q-24 -49 -45 -175q-2 -7 5 -7h98q87 2 122 17q2 0 4 -3.5t1 -6.5q-14 -26 -29 -101q-30 -145 -37 -209q-2 -30 11 -30q19 0 59 44q4 0 4 -3q1 -4 -0.5 -15
t-3.5 -14q-31 -43 -68 -67t-57 -24q-33 0 -17 93q13 90 51 274q0 4 -1 7t-4 2q-21 -6 -140 -6q-6 0 -6 -8q-35 -247 -53 -342q-22 -123 -86.5 -190.5t-126.5 -67.5q-27 0 -43 11t-16 28q-2 31 12 59q2 7 12 7q35 -50 84 -50q33 0 50.5 31.5t31.5 113.5q31 175 62 400
q0 7 -5 7q-52 0 -70 3v7q4 9 15.5 20.5t16.5 13.5h47q3 0 5 7q17 86 47.5 142.5t85.5 96.5q55 41 114 41z" />
    <glyph glyph-name="f_j" unicode="fj" horiz-adv-x="457" 
d="M105 353q-58 0 -70 2v7q4 9 16.5 21t18.5 14l44 -1q3 0 5 7q17 86 47.5 141.5t85.5 95.5q59 44 119 44q50 0 69 -24q2 -8 1 -15q-3 -9 -17.5 -24t-24.5 -22q-11 -7 -15 -1q-29 37 -73 37q-46 0 -74 -58q-28 -61 -46 -174q-2 -7 4 -7h118q66 2 104 12q2 0 4.5 -3.5
t1.5 -6.5q-8 -16 -19.5 -75t-23.5 -136.5t-16 -96.5q-15 -93 -33 -143t-56 -93q-39 -46 -97 -70q-3 1 -9.5 7t-8.5 12q-4 3 0 7q53 31 77 72.5t41 128.5l10 56q6 39 18 110.5l19 116t10 56.5q0 3 -1.5 5t-3.5 1q-9 -3 -140 -4q-4 0 -7 -8q-39 -267 -53 -339
q-22 -123 -86.5 -191t-126.5 -68q-27 0 -43 11t-16 28q-2 31 10 59q2 6 12 6q16 -23 40.5 -36.5t44.5 -13.5q33 0 51 32t32 114q33 185 62 400q0 7 -5 7z" />
    <glyph glyph-name="f_k" unicode="fk" horiz-adv-x="670" 
d="M358 682q37 0 59 -15q18 5 43 21q3 1 8 -3.5t3 -7.5q-10 -24 -32 -135l-60 -323q-1 -2 1.5 -3.5t3.5 0.5q48 64 117 129.5t113 65.5q40 0 50 -19q2 -4 -1 -12q-2 -8 -14 -28.5t-20 -24.5q-34 19 -59 19q-24 0 -65 -36.5t-65 -68.5q-2 -6 1 -9q12 -16 32 -46
q50 -79 73 -104.5t46 -25.5q30 0 73 58q3 -3 5 -7q1 -5 -1 -17t-4 -14q-28 -41 -59.5 -64t-56.5 -23q-31 0 -59 38q-14 19 -86 143q-9 12 -19 1q-17 -18 -25 -53q-5 -19 -8 -42q-7 -40 4 -55q-4 -7 -34.5 -23t-38.5 -16q-7 0 -9 26q2 22 25 144q70 370 79 433q2 21 -7 30
q-21 22 -57 22q-46 0 -73 -55q-29 -50 -49 -177q-2 -7 4 -7q54 0 98 7q1 -2 -1 -11t-4 -11q-25 -22 -61 -26q-30 -3 -39 -3q-5 -2 -5 -8q-2 -15 -21.5 -143.5t-32.5 -197.5q-22 -124 -86.5 -191.5t-126.5 -67.5q-27 0 -43 11t-16 28q-2 28 12 60q2 6 12 6q38 -51 82 -51
q36 0 53 32.5t32 117.5q31 180 61 396q0 7 -5 7q-46 0 -70 2v7q4 10 15.5 21.5t16.5 13.5h47q4 0 6 7q17 91 47.5 145t85.5 95q54 38 105 38z" />
    <glyph glyph-name="f_l" unicode="fl" horiz-adv-x="459" 
d="M294 405q1 -2 -1 -10t-4 -10q-24 -23 -61 -27q-15 -3 -39 -3q-5 -3 -5 -7l-16 -107l-19.5 -128t-18.5 -108q-22 -123 -86.5 -191t-126.5 -68q-28 0 -43.5 11t-15.5 28q-2 32 12 59q2 6 12 6q36 -49 84 -49q33 0 50 31.5t32 114.5q31 173 62 399q0 8 -5 8q-58 0 -70 1v7
q4 10 15.5 21.5t16.5 13.5h47q4 0 6 7q18 91 48.5 144.5t85.5 95.5q22 17 51 27.5t49 10.5q37 0 61 -17q28 12 45 24q3 0 8 -4t3 -7q-15 -31 -36 -137q-58 -293 -76 -440q-5 -39 9 -39q22 0 65 46q2 -2 3 -6q3 -19 -5 -29q-31 -40 -67 -64t-61 -24q-34 0 -16 104
q32 189 90 500q2 20 -7 29q-20 20 -56 20q-48 0 -75 -58q-28 -52 -47 -174q-2 -8 4 -8q54 0 98 7z" />
    <glyph glyph-name="f_r" unicode="fr" horiz-adv-x="560" 
d="M536 411q31 0 42 -23q1 -2 1 -7t-1 -7q-2 -11 -16 -34t-23 -31q-7 -6 -13 -2q-19 25 -39 25q-29 0 -92 -131q-23 -46 -37 -110q-13 -58 -12 -75q-6 -7 -32.5 -19t-35.5 -13q-3 0 -5.5 3.5t-1.5 5.5q53 255 64 341q2 25 -9 25q-58 -6 -137 -6q-1 0 -3.5 -3t-2.5 -5
q-5 -30 -22.5 -151t-30.5 -189q-22 -123 -87 -191t-127 -68q-27 0 -42.5 11t-15.5 28q-2 33 11 58q2 6 12 6q36 -49 84 -49q33 0 51 33.5t33 116.5q35 201 61 396q0 7 -5 7q-49 0 -71 2v7q5 8 18.5 20t18.5 14h43q6 2 6 7q19 97 47 149t85 94q48 36 89 38q35 0 35 -16
q0 -15 -44 -59q-3 -2 -12 -2q-16 16 -44 16q-24 0 -42 -36q-22 -45 -42 -184q-2 -7 5 -7h123q17 0 34.5 2t30.5 5t16 3q4 1 6.5 -4.5t2 -18.5t-4.5 -34q-7 -49 -17 -92q0 -1 1.5 -1.5t2.5 0.5q33 58 65 98q46 57 79 57z" />
    <glyph glyph-name="f_t" unicode="ft" horiz-adv-x="495" 
d="M183 347v-1l-14.5 -101.5l-19.5 -130t-19 -109.5q-22 -124 -86.5 -191.5t-127.5 -67.5q-27 0 -42.5 11t-15.5 28q-2 27 12 59q2 6 12 6q36 -49 83 -49q35 0 52 31t32 118q33 191 61 396q0 7 -5 7q-49 0 -71 4v7q5 7 18.5 19.5t18.5 14.5l43 -1q6 2 6 7q18 95 47 148
t86 95q48 35 88 37q37 0 37 -18q0 -14 -46 -60q-3 -2 -11 -2q-21 16 -42 16q-28 0 -45 -32q-23 -49 -41 -184q-2 -7 5 -7h135q5 0 7 6q22 92 28 107q4 8 33 29.5t43 26.5q2 1 6 -4t2 -7q-11 -13 -22 -54q-8 -29 -21 -97q0 -7 4 -7q93 0 116 9q3 -12 -6 -21q-13 -14 -45 -23
q-18 -4 -74 -8q-5 0 -7 -7q-32 -156 -39 -238q-6 -50 19 -50q19 0 46.5 22.5t43.5 44.5q5 2 5 -4q2 -19 -5 -31q-24 -39 -72.5 -73t-83.5 -34q-13 0 -22.5 17t-8.5 47q-1 37 48 299q2 8 -4 8h-133q-5 0 -8 -8z" />
    <glyph glyph-name="longs_b" unicode="&#x17f;b" horiz-adv-x="667" 
d="M347 682q36 0 55 -14q23 7 44 20q3 1 7.5 -3.5t3.5 -7.5q-11 -23 -28 -106q-43 -217 -57 -295q0 -2 2 -2.5t4 1.5q52 62 108 99t92 37q27 0 42 -28t15 -74q0 -148 -117 -249q-88 -76 -175 -76q-26 0 -47 24t-21 74q0 22 8 74l42 227t37 199q3 27 -6 36q-20 20 -50 20
q-45 0 -73 -55q-34 -63 -68 -283q-6 -35 -13.5 -90.5t-15 -104t-17.5 -100.5q-23 -124 -87.5 -191.5t-126.5 -67.5q-27 0 -42.5 11.5t-15.5 28.5q-2 29 10 57q2 6 12 6q38 -50 84 -50q33 -1 51 33.5t33 117.5t35 209.5l26 164.5q21 123 55.5 201t94.5 121q47 36 99 36z
M404 35q44 0 84 46q31 36 50 92.5t19 107.5q0 66 -38 66q-27 0 -67 -35t-66 -74q-18 -27 -28.5 -66t-9.5 -69q0 -32 15 -50t41 -18z" />
    <glyph glyph-name="longs_h" unicode="&#x17f;h" horiz-adv-x="684" 
d="M347 682q35 0 55 -14q21 6 43 20q3 1 8 -3.5t3 -7.5q-9 -19 -34 -138l-57 -303h2h2q56 76 120.5 125.5t107.5 49.5q21 0 26.5 -24.5t-5.5 -85.5l-21 -105t-20 -108q-3 -24 10 -24q20 0 60 43q3 -3 3 -6q3 -10 -2 -24q-30 -41 -69 -67t-60 -26q-13 0 -18 19.5t-1 50.5
q7 40 26.5 132.5l24.5 115.5q8 44 -15 44q-26 0 -69 -39.5t-80 -98.5q-35 -56 -48 -121q-11 -48 -5 -71q-11 -9 -37 -23t-34 -14q-2 0 -5 4.5t-3 7.5q0 11 8 57q11 62 35.5 189.5l42.5 225t21 122.5q4 22 -6 34q-19 19 -51 19q-44 0 -73 -57q-36 -66 -69 -282
q-33 -227 -46 -294q-22 -123 -87 -191t-127 -68q-27 0 -42.5 11t-15.5 28q-2 27 11 57q4 6 12 6q36 -48 81 -48q35 0 53.5 33.5t33.5 116.5q14 79 33 202.5t27 171.5q20 121 55 199t96 122q48 37 100 37z" />
    <glyph glyph-name="longs_i" unicode="&#x17f;i" horiz-adv-x="443" 
d="M355 684q53 0 68 -24q3 -11 -1 -17q-15 -27 -40 -46q-6 -4 -12 0q-32 37 -70 37q-46 0 -76 -65q-31 -73 -62 -277l-13 -88.5l-15 -100t-17 -98.5q-22 -123 -86.5 -191t-126.5 -68q-27 0 -43 11.5t-16 27.5q-2 30 10 58q3 6 12 6q37 -50 83 -50q34 0 52.5 34t33.5 117
q17 98 52 331q25 163 62 240.5t97 121.5q53 40 108 41zM409 107q3 -1 3 -3q3 -14 -3 -29q-32 -43 -69.5 -67t-56.5 -24q-36 0 -16 94l50 230q5 22 -5 22q-16 0 -54 -30l-2 1q-2 1 -2 2q-3 16 4 26q31 31 71.5 56.5t57.5 25.5q20 -2 5 -70q-4 -17 -16.5 -74l-23 -106.5
t-13.5 -71.5q-4 -26 10 -26q17 0 60 44z" />
    <glyph glyph-name="longs_k" unicode="&#x17f;k" horiz-adv-x="662" 
d="M345 682q35 0 55 -14q19 5 42 20q3 1 8 -3.5t3 -7.5q-8 -19 -23 -92l-68 -365q-1 -4 2 -5q2 -1 3 1q47 62 117.5 128.5t112.5 66.5q39 0 50 -18q2 -5 -1 -13q-2 -11 -14.5 -31t-19.5 -22q-33 19 -60 19q-24 0 -64.5 -37t-64.5 -69q-2 -6 0 -8q19 -23 33 -47
q48 -77 73 -103t45 -26q32 0 75 58q1 0 4 -6q0 -24 -5 -31q-23 -36 -57 -62t-60 -26q-29 0 -59 39q-16 21 -47.5 76t-38.5 66q-8 12 -16 4q-19 -22 -27 -54q-5 -21 -9 -49q-5 -33 4 -50q-4 -7 -33.5 -23t-37.5 -16q-10 0 -10 22t24 146q77 407 80 436q3 21 -7 32
q-17 20 -49 20q-45 0 -73 -57q-36 -69 -69 -282q-33 -227 -46 -294q-22 -123 -87 -191t-127 -68q-27 0 -42.5 11t-15.5 28q-2 29 10 57q2 6 12 6q36 -47 83 -47q33 0 52.5 33.5t33.5 115.5q14 79 33 202.5t27 171.5q40 242 151 321q48 37 98 37z" />
    <glyph glyph-name="longs_l" unicode="&#x17f;l" horiz-adv-x="451" 
d="M345 682q36 0 55 -14q21 6 43 20q3 1 8 -3.5t3 -7.5q-10 -24 -33 -135q-55 -278 -76 -441q-5 -39 9 -39q22 0 65 46q2 -2 3 -6q1 -5 -1 -16t-4 -13q-31 -41 -68 -64.5t-63 -23.5q-31 0 -13 104q9 56 46.5 265.5t41.5 230.5t-7 34q-19 19 -49 19q-45 0 -73 -56
q-36 -66 -69 -283l-13.5 -90.5l-16 -103.5t-16.5 -100q-23 -124 -87.5 -191.5t-126.5 -67.5q-27 0 -42.5 11t-15.5 28q-2 32 10 60q3 6 12 6q35 -52 82 -52q36 0 54 33.5t33 117.5q14 79 33 202t27 171q20 123 55 201t96 121q48 37 98 37z" />
    <glyph glyph-name="longs_longs" unicode="&#x17f;&#x17f;" horiz-adv-x="446" 
d="M74 -123v-1q33 -48 97 -48q37 0 61.5 36t38.5 116q10 57 47 301q26 168 59.5 244t92.5 121q47 36 88 38q34 0 34 -17t-42 -55q-4 -4 -12 -2q-16 13 -42 13t-43 -36q-26 -55 -60 -287q-6 -37 -12 -83.5t-12.5 -88t-16.5 -93.5q-22 -123 -92 -191t-135 -68q-48 0 -65 36
q-7 16 -6 31q-34 -47 -74.5 -72t-76.5 -25q-27 0 -42.5 11t-15.5 28q-2 29 10 57q2 6 12 6q35 -50 82 -50q36 0 54 34t33 118q16 94 48 305q26 167 59.5 241.5t92.5 119.5q50 39 90 39q35 0 35 -17t-44 -57q-5 -5 -11 -2q-18 13 -44 13q-27 0 -45 -37q-15 -33 -26.5 -90.5
t-31.5 -191.5q-37 -237 -43 -268q-14 -79 -42 -128z" />
    <glyph glyph-name="longs_longs_i" unicode="&#x17f;&#x17f;i" horiz-adv-x="674" 
d="M324 655q34 0 34 -17q0 -15 -43 -54q-4 -4 -11 -2q-18 13 -42 13q-25 0 -42 -36q-26 -59 -61 -286q-30 -205 -42 -268q-13 -75 -42 -128v-1q25 -49 95 -49q74 0 101 153q10 57 47 301q25 167 61 243t97 119q53 40 110 41q51 0 67 -25q3 -9 -1 -16q-6 -11 -19 -25t-22 -20
q-6 -4 -13 -1q-31 36 -70 36q-46 0 -74 -63q-31 -72 -60 -270q-6 -37 -12 -83.5t-12.5 -88t-16.5 -93.5q-23 -125 -93 -192t-135 -67q-47 0 -65 35q-6 13 -6 32q-34 -48 -74.5 -72.5t-76.5 -24.5q-27 0 -42.5 11.5t-15.5 28.5q-2 28 10 56q2 6 12 6q37 -49 82 -49
q33 0 53 34.5t34 116.5q16 94 48 305q26 167 59.5 242t92.5 120q47 36 88 38zM639 107q3 -1 3 -3q3 -14 -3 -29q-32 -43 -69 -67t-56 -24q-35 0 -17 94l50 231q5 22 -4 22q-17 0 -55 -30l-1 1q-2 1 -3 2q-2 14 5 25q30 31 70 56.5t58 25.5q20 -2 5 -70q-4 -17 -16.5 -74
l-23 -106.5t-13.5 -71.5q-3 -26 10 -26q19 0 60 44z" />
    <glyph glyph-name="longs_longs_l" unicode="&#x17f;&#x17f;l" horiz-adv-x="683" 
d="M326 655q35 0 35 -18q0 -17 -42 -53q-6 -6 -12 -2q-23 14 -44 14q-27 0 -43 -37q-26 -55 -61 -286q-30 -205 -42 -268q-13 -75 -42 -128v-1q28 -49 94 -49q39 0 63.5 36.5t39.5 117.5q14 82 30.5 191t23.5 152q40 241 151 321q48 37 98 37q34 0 56 -14q21 6 43 20
q3 1 7.5 -3.5t3.5 -7.5q-11 -23 -34 -135q-43 -216 -76 -441q-5 -39 9 -39q22 0 65 46q2 -2 3 -6q1 -5 -1 -15.5t-4 -12.5q-31 -41 -68 -65t-61 -24q-33 0 -15 104q9 54 45.5 257.5l42.5 238.5q5 23 -7 34q-19 19 -49 19q-45 0 -73 -57q-36 -66 -69 -281q-5 -32 -11.5 -82.5
t-12.5 -90t-16 -92.5q-23 -123 -93 -191t-135 -68q-47 0 -64 35q-7 16 -7 32q-33 -48 -74 -72.5t-77 -24.5q-27 0 -42.5 11t-15.5 28q-2 26 10 53q3 6 12 6q33 -45 81 -45q35 0 54 34t34 117q16 94 48 305q26 167 59.5 242t92.5 120q49 38 90 38z" />
    <glyph glyph-name="t_t" unicode="tt" horiz-adv-x="526" 
d="M74 397h7.5h13.5h20q7 0 7 6q18 82 25 96q5 8 34.5 31t42.5 28q2 1 5.5 -5.5t1.5 -8.5q-13 -17 -22 -53q-8 -27 -19 -87q0 -7 4 -7h168q9 0 9 6q24 105 31 120q4 8 33.5 30.5t42.5 27.5q3 1 6 -5t1 -8q-13 -17 -22 -53q-9 -32 -24 -111q0 -7 4 -7q94 -2 116 8
q4 -11 -4 -19q-14 -18 -54 -26q-19 -4 -66 -7q-5 0 -7 -7q-34 -159 -41 -237q-5 -50 19 -50q20 0 47.5 23t42.5 44q1 1 3.5 -0.5t2.5 -3.5q0 -25 -5 -33q-24 -38 -72.5 -71.5t-83.5 -33.5q-14 0 -23 17t-9 48q0 50 50 297q2 6 -4 6l-169 1q-5 0 -7 -7q-34 -159 -41 -237
q-5 -50 19 -50q20 0 44 19.5t40 41.5q1 1 3.5 -0.5t2.5 -3.5q0 -20 -5 -33q-25 -36 -70.5 -67.5t-79.5 -31.5q-14 0 -23 17t-9 48q0 50 50 297q2 6 -4 6q-48 0 -70 3q0 5 -1 7q4 7 19 20t20 15z" />
    <glyph glyph-name="u0162_u0068" unicode="&#x162;h" horiz-adv-x="971" 
d="M884 411q42 0 21 -113l-14.5 -71.5l-16.5 -81t-10 -57.5q-3 -24 10 -24q22 0 60 43q3 -3 3 -7q3 -11 -2 -27q-31 -42 -68.5 -65.5t-58.5 -23.5q-29 0 -19 69q6 41 25.5 132.5t23.5 114.5q9 46 -13 46q-27 0 -70.5 -40t-78.5 -98q-37 -57 -50 -121q-10 -42 -4 -68
q-11 -9 -37 -23.5t-33 -14.5q-6 0 -9 13q2 19 8 55q78 432 93 531q-21 -4 -74 -4q-138 0 -150 -1q-2 0 -5 -3t-3 -5q-71 -452 -73 -487q-3 -36 26 -43q16 -5 69 -11q2 -2 0 -14.5t-4 -14.5q-13 0 -66 1.5t-83 1.5q-26 0 -80.5 -1.5t-63.5 -1.5q-2 3 -0.5 15t3.5 14
q57 6 67 9q24 4 33.5 19t17.5 59q25 134 75 454q0 6 -6 8q-14 1 -62 1t-66 -1q-30 -3 -47 -23q-12 -15 -52 -85q-3 -1 -15.5 4t-13.5 8q31 78 45 147q2 3 8 3q35 -14 76 -14l352 1q78 0 99 1q8 37 14 43q21 13 68 27q2 0 6 -5t3 -8q-12 -20 -25 -84l-64 -354q0 -3 4 -1
q55 76 119.5 126t107.5 50zM290 -34q19 0 33.5 -24t8.5 -55q-7 -39 -39.5 -65.5t-84.5 -37.5q-3 1 -6 11t-2 14q40 14 56 27.5t19 31.5q4 32 -48 46q-3 8 3 16q10 13 28 24.5t32 11.5z" />
    <glyph glyph-name="Tcaron_h" unicode="&#x164;h" horiz-adv-x="971" 
d="M884 411q42 0 21 -113l-14.5 -71.5l-16.5 -81t-10 -57.5q-3 -24 10 -24q22 0 60 43q3 -3 3 -7q3 -11 -2 -27q-31 -42 -68.5 -65.5t-58.5 -23.5q-29 0 -19 69q6 41 25.5 132.5t23.5 114.5q9 46 -13 46q-27 0 -70.5 -40t-78.5 -98q-37 -57 -50 -121q-10 -42 -4 -68
q-11 -9 -37 -23.5t-33 -14.5q-6 0 -9 13q2 19 8 55q78 432 93 531q-21 -4 -74 -4q-138 0 -150 -1q-2 0 -5 -3t-3 -5q-71 -452 -73 -487q-3 -36 26 -43q16 -5 69 -11q2 -2 0 -14.5t-4 -14.5q-13 0 -66 1.5t-83 1.5q-26 0 -80.5 -1.5t-63.5 -1.5q-2 3 -0.5 15t3.5 14
q57 6 67 9q24 4 33.5 19t17.5 59q25 134 75 454q0 6 -6 8q-14 1 -62 1t-66 -1q-30 -3 -47 -23q-12 -15 -52 -85q-3 -1 -15.5 4t-13.5 8q31 78 45 147q2 3 8 3q35 -14 76 -14l352 1q78 0 99 1q8 37 14 43q21 13 68 27q2 0 6 -5t3 -8q-12 -20 -25 -84l-64 -354q0 -3 4 -1
q55 76 119.5 126t107.5 50zM399 661q-5 -4 -22 -7q-8 11 -48 51.5t-57 54.5q1 4 7.5 13t9.5 9q5 0 48 -23t56 -31q5 -2 11 1q18 9 70.5 30.5t56.5 21.5q3 0 7.5 -9t2.5 -13q-116 -75 -142 -98z" />
    <glyph glyph-name="gamma_gamma" unicode="&#x3b3;&#x3b3;" horiz-adv-x="787" 
d="M464 331q-31 0 -64 -27.5t-62 -74t-51 -90.5t-42 -93q-16 -39 -19 -53q-6 -21 -20 -77l-26 -102t-15 -55q-3 -8 -18 -8q-10 0 -33.5 20.5t-22.5 31.5q2 25 78 186q12 28 18 52q18 70 18 139q2 151 -78 151q-56 0 -108 -57q-3 1 -4 3q-1 5 -1 15.5t1 13.5q32 51 75.5 78
t78.5 27q85 0 88 -128q0 -71 -20 -167q-1 -3 2 -3t4 3q30 66 56 113.5t59 91.5t69.5 66.5t75.5 22.5q100 0 93 -164q-3 -59 -16 -125q-1 -3 3 -4q2 0 4 4q67 161 138 243q40 47 65 47q11 0 25.5 -7.5t17.5 -13.5q1 -3 0.5 -7.5t-2.5 -5.5q-59 -24 -129 -120.5t-112 -197.5
q-14 -39 -17 -51l-18.5 -90.5l-19 -93t-10.5 -40.5q-3 -7 -18 -7q-10 0 -33 19t-22 30q1 12 11.5 40.5t30 76.5l26.5 66q8 18 15 49q46 273 -71 273z" />
    <glyph glyph-name="u03BB_u03BB" unicode="&#x3bb;&#x3bb;" horiz-adv-x="719" 
d="M593 -16q-24 0 -33 39q-4 18 -8.5 64t-6.5 90.5t-4 84t-2 40.5h-3l-1 -1q-76 -150 -137 -236q-54 -80 -109 -80q-39 0 -50 56q-5 26 -10 93t-7 116.5t-2 58.5q-2 2 -4 -1q-62 -81 -133 -239q-18 -41 -21 -82q-1 -3 -8 -5q-19 0 -39.5 12.5t-19.5 23.5q4 24 44 87l84 127
t86 131q4 7 6 21q0 42 -7 91q-9 66 -26.5 89.5t-51.5 23.5q-29 0 -62 -18q-2 -1 -4 0.5t-2 3.5q-1 4 2 13t5 11q48 50 103 50q46 0 68 -47t33 -179q15 -208 24 -287q8 -72 33 -72q19 0 49 42q27 38 74 122t73 140q8 14 8 31q-2 57 -10 98q-9 68 -29.5 93.5t-56.5 25.5
t-79 -30q-4 0 -4 5q-2 15 5 24q29 31 62.5 47.5t59.5 16.5q48 0 72 -46.5t37 -177.5q6 -60 14 -170t11 -142q4 -35 9.5 -53t10.5 -22.5t13 -4.5q19 0 62 48q3 0 5 -6q2 -15 -5 -29q-24 -38 -59.5 -64.5t-58.5 -26.5z" />
    <glyph glyph-name=".notdef" horiz-adv-x="500" 
d="M-30 0v700h500v-700h-500zM220 395l170 255h-340zM250 350l170 -255v510zM50 50h340l-170 255zM20 605v-510l170 255z" />
    <glyph glyph-name=".null" horiz-adv-x="0" 
 />
    <glyph glyph-name="nonmarkingreturn" horiz-adv-x="333" 
 />
    <glyph glyph-name="space" unicode=" " horiz-adv-x="192" 
 />
    <glyph glyph-name="exclam" unicode="!" horiz-adv-x="285" 
d="M262 615q5 0 11.5 -4t7.5 -8q-7 -52 -100 -406q-14 -14 -28 -14q-6 0 -9 3q27 386 27 390q0 7 6 14.5t12 9.5q36 15 73 15zM149 95q20 0 33 -13q12 -13 12 -38q0 -27 -19 -43q-18 -15 -42 -15q-21 0 -34 14q-10 13 -10 32q0 28 20 48q18 15 40 15z" />
    <glyph glyph-name="quotedbl" unicode="&#x22;" horiz-adv-x="317" 
d="M125 652q5 7 32 25t34 18q5 0 8 -3q2 -6 -1 -24q-8 -41 -26 -98.5t-33 -84.5q-23 -40 -41 -54q-4 -2 -11.5 -1.5t-8.5 2.5q16 44 31 113t16 107zM265 652q5 7 32 25t34 18q4 0 8 -4q2 -7 -1 -23q-7 -41 -24.5 -95.5t-33.5 -82.5q-20 -39 -39 -53q-18 -4 -21 1
q15 44 29.5 110t15.5 104z" />
    <glyph glyph-name="numbersign" unicode="#" horiz-adv-x="453" 
d="M326 447l38 133q8 6 37 12q4 0 4 -3l-41 -139q0 -3 4 -3q76 0 95 3q2 -7 -8 -28q-19 -19 -41 -26t-62 -7q-2 0 -6 -4l-30 -104q0 -4 3 -4q71 0 93 4q1 -2 -2 -13.5t-5 -15.5q-35 -36 -103 -36q-4 0 -4 -5q-26 -89 -39 -142q-1 -3 -7 -3q-2 0 -13 8.5t-12 10.5l16.5 60
l19.5 71h-93q-5 0 -5 -4l-42 -144q-1 -3 -7 -3q-4 1 -14 9t-12 11q19 60 38 131q-78 0 -90 3l25 62q29 -4 83 -4l31 112q-65 0 -87 4l26 58q54 -3 78 -3l34 122q0 1 16.5 7t19.5 6q2 0 6 -4l-36 -125q-2 -6 2 -6zM310 389h-89q-4 0 -8 -4l-29 -103q0 -5 2 -5h92z" />
    <glyph glyph-name="dollar" unicode="$" horiz-adv-x="477" 
d="M242 355q3 -1 6 3l45 200q0 5 -3 5q-58 0 -89 -29.5t-31 -75.5q0 -34 17 -56.5t55 -46.5zM255 245l-47 -210q0 -4 3 -4q55 -1 91.5 26t36.5 79q1 61 -79 112q-5 2 -5 -3zM145 -90l19 86q0 5 -3 5q-21 1 -46.5 8.5t-50.5 17t-26 9.5q-5 9 -6.5 56t-0.5 77q3 2 14 4.5
t15 1.5q12 -71 36.5 -100t73.5 -40q4 -2 4 2l50 224q2 5 -3 7q-62 36 -91.5 73t-29.5 86q0 80 57 123.5t140 41.5q4 0 4 3l17 72q2 1 7.5 2.5t13 3t9.5 2.5q2 0 6 -2l-18 -78q0 -4 3 -4q27 -2 68 -11q43 -8 48 -8q-14 -40 -32 -120q-3 -3 -15 -3t-14 2q5 56 -9.5 79
t-53.5 30q-5 0 -5 -3l-48 -215q0 -6 2 -8q35 -21 54.5 -34.5t41.5 -34t32 -43t10 -50.5q0 -75 -58.5 -123t-157.5 -50q-3 0 -3 -5l-17 -80q-15 -6 -30 -6q-3 0 -7 2z" />
    <glyph glyph-name="percent" unicode="%" horiz-adv-x="703" 
d="M104 11l502 602q13 8 46 12q5 -3 3 -9q-25 -26 -260.5 -311l-270.5 -325q-5 -2 -8 0t-7.5 14t-4.5 17zM268 602q42 0 65 -33.5t23 -82.5q0 -62 -24 -109t-55 -71q-53 -41 -105 -41q-43 0 -65.5 32t-22.5 85q0 52 19.5 98.5t51.5 74.5q56 47 113 47zM230 563
q-28 0 -48 -28.5t-27 -62.5t-7 -66q-1 -52 15.5 -76t42.5 -24q41 0 63.5 48t23.5 106q1 45 -15 74t-48 29zM577 346q42 0 64 -33t22 -83q0 -116 -79 -178q-54 -42 -105 -42q-43 0 -65.5 31.5t-22.5 84.5q0 51 19.5 98t51.5 75q56 47 115 47zM540 308q-29 0 -49 -28t-28 -62
t-8 -66q-1 -100 58 -100q42 0 64.5 46.5t23.5 106.5q0 45 -15.5 74t-45.5 29z" />
    <glyph glyph-name="ampersand" unicode="&#x26;" horiz-adv-x="719" 
d="M479 316q27 0 69 -6t56 -6q44 0 44 33q0 31 -27 63q3 8 29 26t35 20q20 -15 20 -61q0 -44 -39.5 -88.5t-99.5 -49.5q-30 -118 -109.5 -197.5t-187.5 -79.5q-100 0 -152.5 69t-52.5 167q0 117 81 191q21 21 49.5 37t46.5 16q35 0 53 -27.5t17 -57.5q0 -1 1.5 -1.5t2.5 0.5
q36 46 52.5 83t17.5 82q2 17 -5 48q6 8 35 29t38 21q5 -1 8 -17t1 -30q-3 -65 -53 -143t-151 -191q-13 -15 -97 -102q-6 -4 -3 -10q18 -43 61 -70.5t102 -27.5q77 0 126.5 52t53.5 144q0 11 -4 16q-14 10 -44 10q-64 0 -105 -96q-2 -1 -4.5 -1t-3.5 1q-11 6 -14 23
q19 52 60 91.5t93 39.5zM204 398q-28 0 -49.5 -38t-21.5 -108q0 -38 8 -66q3 -7 7 -3q48 42 87 89q17 20 17 57q0 26 -12.5 47.5t-35.5 21.5z" />
    <glyph glyph-name="quotesingle" unicode="'" horiz-adv-x="177" 
d="M122 650q6 7 34 26t35 19q5 0 8 -3q1 -3 0.5 -12t-1.5 -15q-7 -43 -25.5 -100t-36.5 -86q-18 -34 -40 -48q-4 -2 -10 -1t-7 3q17 44 29 109.5t14 107.5z" />
    <glyph glyph-name="parenleft" unicode="(" horiz-adv-x="395" 
d="M85 192q0 183 94.5 334.5t233.5 237.5q4 0 10.5 -10.5t4.5 -13.5q-118 -87 -195.5 -235t-77.5 -321q0 -229 116 -357q1 -3 -8 -12.5t-13 -10.5q-21 13 -46.5 43t-53.5 77t-46.5 118.5t-18.5 149.5z" />
    <glyph glyph-name="parenright" unicode=")" horiz-adv-x="389" 
d="M332 377q0 -183 -94 -334.5t-235 -238.5q-4 1 -10.5 12t-5.5 14q119 87 196.5 234.5t77.5 319.5q2 229 -116 357q-1 4 8.5 13.5t13.5 9.5q20 -12 46 -42t54 -77t46.5 -118.5t18.5 -149.5z" />
    <glyph glyph-name="asterisk" unicode="*" horiz-adv-x="362" 
d="M257 544q18 3 126 34q5 0 5 -9q-1 -1 -5.5 -9l-8.5 -14.5t-7 -7.5q-24 -10 -104 -31q12 -16 47 -48t50 -40q0 -7 -7 -12q-27 -7 -45 3q-15 11 -29.5 23t-27 24t-18.5 17q-31 -92 -36 -126h-7q-8 2 -17 15.5t-6 26.5q10 45 28 100q-25 -7 -130 -30q-4 2 -4 7q5 7 16 19.5
t16 14.5l92 24q-30 28 -76 90q-3 3 -2.5 7t2.5 5q26 14 40 12q19 -31 68 -84q27 90 36 106q3 3 21 6t24 1q5 0 3 -7q-6 -11 -16 -37.5t-18.5 -51.5z" />
    <glyph glyph-name="plus" unicode="+" horiz-adv-x="547" 
d="M503 255q-8 -40 -17 -41q-5 -1 -35.5 -1h-75t-71.5 -1q-7 0 -7 -9q-1 -34 -0.5 -74.5t0.5 -76t-1 -38.5q-1 -5 -19 -12t-27 -8q-6 0 -8 2v40v79.5v96.5q-73 -1 -197 -1q-1 0 -1 10q4 31 12 47q5 -1 116 -1h70v68q0 100 -2 128q30 12 51 12q6 0 6 -35v-163q0 -10 6 -10
h199q1 -1 1 -12z" />
    <glyph glyph-name="comma" unicode="," horiz-adv-x="186" 
d="M-66 -160q-1 1 -1.5 3t0.5 3q113 82 113 162q0 30 -18 70q5 8 31.5 31t36.5 27q2 2 9.5 2t9.5 -2q14 -18 14 -57q0 -72 -52 -142.5t-116 -105.5q-11 -2 -27 9z" />
    <glyph glyph-name="hyphen" unicode="-" horiz-adv-x="266" 
d="M47 234q128 0 198 5q3 -6 3 -10q-2 -9 -13.5 -27t-15.5 -20q-29 -9 -194 -9q-3 6 -3 10q4 12 13 31.5t12 19.5z" />
    <glyph glyph-name="period" unicode="." horiz-adv-x="186" 
d="M86 97q20 0 33 -13q12 -14 12 -38q0 -29 -19 -45q-18 -15 -42 -15q-21 0 -34 14q-10 13 -10 33q0 30 20 49q18 15 40 15z" />
    <glyph glyph-name="slash" unicode="/" horiz-adv-x="436" 
d="M466 685q4 0 4 -7q-12 -29 -198.5 -365.5t-234.5 -404.5q-4 -6 -24 -15t-30 -11q-5 3 -7 8q63 100 221.5 385.5l216.5 395.5q1 3 23 8.5t29 5.5z" />
    <glyph glyph-name="zero" unicode="0" horiz-adv-x="476" 
d="M316 608q74 0 113 -55t39 -146q0 -121 -36.5 -219.5t-99.5 -149.5q-58 -49 -134 -49q-77 0 -114 55.5t-39 149.5q1 101 33 197.5t89 151.5q69 65 149 65zM291 572q-39 0 -72 -37q-41 -47 -65.5 -141.5t-24.5 -193.5q0 -173 98 -173q36 0 65 29q43 44 67.5 141.5
t24.5 204.5q0 170 -93 170z" />
    <glyph glyph-name="one" unicode="1" horiz-adv-x="476" 
d="M357 26q2 -2 -0.5 -14.5t-5.5 -14.5q-13 0 -56 1.5t-78 1.5q-37 0 -85 -1.5t-62 -1.5q-2 2 -1 14.5t5 14.5q35 2 66 8q22 5 31.5 17t14.5 37q17 86 38 216q5 36 13 86.5l12.5 78.5t4.5 36q2 27 -16 30q-22 6 -65 6q-3 3 0.5 14.5t6.5 13.5q91 7 159 39q4 1 8.5 -0.5
t4.5 -3.5q-12 -43 -43 -239q-29 -173 -40 -271q-2 -28 1.5 -40.5t21.5 -17.5q25 -6 65 -10z" />
    <glyph glyph-name="two" unicode="2" horiz-adv-x="476" 
d="M236 540q-69 0 -136 -73q-4 -1 -11.5 9t-5.5 13q33 46 83.5 82.5t111.5 36.5q59 0 99 -44t40 -108q0 -67 -32.5 -122.5t-105.5 -127.5l-145 -133q-1 -1 0 -3t2 -2q67 -7 198 -4q12 1 21 4.5t26.5 22.5t37.5 54q4 1 13 -4t11 -9q-34 -91 -63 -123q-11 -12 -39 -12
q-31 0 -124 1.5t-135 1.5q-46 0 -66 -2q-2 2 -2 10.5t2 11.5l34.5 27t33.5 26.5l29.5 25t33 29l32.5 31l39 39.5q118 124 118 234q0 45 -25.5 76.5t-74.5 31.5z" />
    <glyph glyph-name="three" unicode="3" horiz-adv-x="476" 
d="M290 608q57 0 92 -37.5t35 -89.5q0 -86 -108 -150q-3 -2 -1 -4q49 -18 83 -55t35 -91q0 -120 -117 -187q-61 -36 -143 -36q-68 0 -105 28q-19 12 -26 36q-10 35 -8 74q1 3 11 7t13 4q17 -55 51 -82q39 -29 97 -29q65 0 103.5 38t38.5 111q1 57 -34 93.5t-102 36.5
q-10 0 -36 -2q-2 3 5.5 18.5t10.5 18.5q153 34 153 142q0 41 -24 67.5t-65 26.5q-59 0 -122 -61q-4 0 -9.5 10t-4.5 14q89 99 177 99z" />
    <glyph glyph-name="four" unicode="4" horiz-adv-x="476" 
d="M454 177l-102 -1q-4 0 -6 -5l-29 -197q-53 -2 -83 -8l35 204q0 6 -4 6q-43 0 -130.5 -0.5t-117.5 -0.5q-1 3 1.5 15t4.5 15q309 360 338 396q2 0 11 -0.5t15 -0.5t15.5 0.5t11.5 0.5l-58 -364q0 -6 4 -6q25 0 109 3q-13 -41 -15 -57zM97 227q39 1 176 1q4 0 6 6l48 276
q0 1 -1.5 1t-2.5 -1q-24 -27 -118.5 -141.5t-109.5 -136.5q-2 -3 2 -5z" />
    <glyph glyph-name="five" unicode="5" horiz-adv-x="476" 
d="M411 614q2 0 7.5 -5.5t5.5 -8.5q-2 -10 -17 -32.5t-27 -32.5q-17 -14 -41 -14q-19 0 -60.5 3.5t-48.5 3.5q-8 0 -16 -10q-16 -26 -42 -90q-4 -12 2 -15q3 -2 47.5 -28.5t78 -48.5t52.5 -40q66 -60 66 -129q0 -88 -71.5 -148t-160.5 -60q-55 0 -94.5 20t-57.5 48
q-8 15 -7 31q0 8 7.5 25.5t13.5 26.5q11 6 14 4q20 -47 61 -80.5t101 -33.5q56 0 85 34t29 95q-1 66 -66 121q-29 24 -88.5 61.5t-66.5 44.5q-6 8 1 30q53 129 96 196q16 20 25 20q10 0 54.5 -3.5t66.5 -2.5q28 0 51 18z" />
    <glyph glyph-name="six" unicode="6" horiz-adv-x="476" 
d="M477 619q-122 -56 -192.5 -121t-110.5 -142q-1 -3 0 -4t3 0q79 44 133 44q55 0 94.5 -46.5t40.5 -114.5q0 -146 -119 -217q-55 -32 -113 -32q-83 0 -125.5 55t-42.5 134q0 149 118 278t304 192q3 -1 7.5 -12t2.5 -14zM251 343q-39 0 -80 -25q-18 -11 -25 -29
q-19 -52 -19 -108q1 -79 33 -118t84 -39q55 0 87.5 53.5t32.5 126.5q-1 68 -30.5 103.5t-82.5 35.5z" />
    <glyph glyph-name="seven" unicode="7" horiz-adv-x="476" 
d="M492 598q1 -1 2.5 -5.5t0.5 -6.5q-25 -63 -176.5 -330t-161.5 -289q-1 -1 -4 -3l-3 -1q-7 1 -19 7t-15 10q-1 2 -1 7t2 7l95 160.5l133 225.5t74 137q0 5 -3 5q-181 4 -245 -1q-23 -2 -36.5 -15t-41.5 -62q-3 -2 -14.5 3.5t-12.5 9.5q33 82 52 148q23 -9 78 -9h192
q80 0 104 2z" />
    <glyph glyph-name="eight" unicode="8" horiz-adv-x="476" 
d="M303 608q57 0 95.5 -36t38.5 -89q0 -47 -26 -79.5t-99 -83.5q-2 -2 0 -5q57 -46 82 -80t25 -73q0 -75 -63 -124.5t-146 -49.5t-125 40.5t-42 93.5q0 45 29.5 78t123.5 94q3 3 0 6q-81 69 -81 138q0 79 70 132q53 38 118 38zM278 576q-41 0 -67.5 -28.5t-26.5 -76.5
q0 -38 24 -68t75 -67q4 -4 6 0q81 62 81 133q0 48 -27 77.5t-65 29.5zM236 22q43 0 73.5 26.5t30.5 73.5q1 40 -24 73t-89 81q-4 3 -7 0q-50 -34 -77 -68t-27 -77q1 -47 33.5 -78t86.5 -31z" />
    <glyph glyph-name="nine" unicode="9" horiz-adv-x="476" 
d="M57 -52q-4 1 -8.5 12.5t-3.5 15.5q218 97 300 279q1 2 -0.5 3.5t-3.5 0.5q-72 -47 -143 -47q-56 0 -95.5 45.5t-40.5 114.5q0 62 28.5 115t80.5 86q57 35 116 35q77 0 122.5 -56t47.5 -143q2 -155 -114.5 -282.5t-285.5 -178.5zM263 573q-53 0 -87.5 -50.5t-34.5 -117.5
q0 -69 33 -103.5t86 -34.5q50 0 83 25q15 13 18 24q16 53 15 97q-1 72 -31 116t-82 44z" />
    <glyph glyph-name="colon" unicode=":" horiz-adv-x="277" 
d="M163 359q21 0 34 -13q13 -16 11 -37q0 -26 -18 -43q-19 -16 -43 -16q-21 0 -33 15q-11 14 -11 31q0 30 21 48q16 15 39 15zM119 95q20 0 33 -13q12 -13 12 -38q0 -27 -19 -43q-18 -15 -42 -15q-21 0 -34 14q-10 13 -10 32q0 28 20 48q18 15 40 15z" />
    <glyph glyph-name="semicolon" unicode=";" horiz-adv-x="277" 
d="M163 359q21 0 34 -13q13 -16 11 -37q0 -27 -19 -43q-17 -16 -42 -16q-20 0 -34 15q-10 13 -10 31q0 29 20 48q18 15 40 15zM-19 -160q-4 4 -2 6q114 81 114 162q0 30 -18 70q5 8 31 31t36 27q3 2 10.5 2t8.5 -2q15 -15 15 -57q0 -71 -52.5 -142t-116.5 -106q-12 -2 -26 9
z" />
    <glyph glyph-name="less" unicode="&#x3c;" horiz-adv-x="547" 
d="M463 404q-15 -12 -125.5 -70l-176.5 -91q-4 -2 0 -6q10 -6 87.5 -45.5l149 -77.5t82.5 -48q3 -3 -4.5 -21t-12.5 -26q-3 -3 -8 -3q-30 22 -176.5 97t-215.5 104q-1 4 4.5 20.5t8.5 17.5q74 35 222 113.5t171 96.5q4 0 6 -5q0 -10 -4 -31.5t-8 -24.5z" />
    <glyph glyph-name="equal" unicode="=" horiz-adv-x="547" 
d="M487 303l-441 -1q-1 0 -2.5 3.5t-0.5 5.5q3 28 13 48q10 -2 115 -2h331q4 -4 2 -10q-8 -41 -17 -44zM485 122l-438 -1q-3 0 -3 9q4 30 12 49q10 -3 115 -3h330q2 -2 2 -10q-1 -7 -8 -25t-10 -19z" />
    <glyph glyph-name="greater" unicode="&#x3e;" horiz-adv-x="547" 
d="M83 77q38 28 302 160q4 3 0 7q-10 6 -87.5 45.5l-149 77.5t-82.5 48q-3 2 4.5 20t12.5 26q3 6 8 3q30 -22 177 -97.5t215 -103.5q1 -4 -4 -20t-9 -18q-76 -36 -223 -113.5t-170 -95.5q-4 0 -6 4q0 10 4 32t8 25z" />
    <glyph glyph-name="question" unicode="?" horiz-adv-x="356" 
d="M200 280q-1 -7 6.5 -23t21.5 -30q3 -6 -5 -12q-11 -13 -42 -21q-11 -3 -21 1q-19 9 -29.5 26.5t-9.5 36.5q1 15 16 30q9 9 62 49.5t64 50.5q29 26 29 53q1 32 -29.5 62t-83.5 39q-33 3 -34 3q-11 2 -8 14q2 21 30 47q13 10 34 10q62 0 110 -44q46 -42 46 -105
q0 -38 -27 -67q-16 -17 -64.5 -54t-50.5 -39q-15 -12 -15 -27zM173 95q19 0 34 -13q13 -16 11 -38q0 -26 -18 -43q-18 -15 -43 -15q-22 0 -33 14t-11 32q0 28 21 48q16 15 39 15z" />
    <glyph glyph-name="at" unicode="@" horiz-adv-x="840" 
d="M577 45q54 0 106.5 58.5t52.5 163.5q0 138 -76 209.5t-197 70.5q-39 0 -80.5 -11.5t-87.5 -41t-82 -73.5t-59.5 -117t-23.5 -164q0 -130 53 -205.5t129 -98.5q40 -12 75 -9q4 -4 0 -16q-24 -18 -72 -18q-20 0 -49 11t-65 37.5t-66.5 64t-51 97.5t-20.5 130q0 182 119 311
q65 71 148.5 109t171.5 38q71 0 129 -27t92.5 -70.5t52.5 -93.5t18 -101q0 -74 -29 -136.5t-73 -99t-91 -56t-87 -19.5q-46 0 -40 70q3 32 13 83q0 2 -1.5 2t-2.5 -1q-45 -61 -103 -108t-84 -47q-30 0 -44 39q-9 22 -9 62q0 62 24.5 123.5t66.5 106.5q32 35 88 63t113 28
q40 0 78 -10q-16 -37 -24 -70q-13 -52 -26 -132t-15 -111q0 -41 29 -41zM350 64q21 0 59 34t70 84q17 27 29 74q20 84 26 96q-16 11 -54 11q-78 0 -126 -85q-38 -67 -38 -149q0 -65 34 -65z" />
    <glyph glyph-name="A" unicode="A" horiz-adv-x="599" 
d="M-38 25q56 8 76.5 22t53.5 70q47 82 125.5 232.5t106.5 208.5q17 32 25 59q16 -2 29 -2t29 2q0 -14 7 -54q48 -307 79 -456q10 -50 24.5 -62t69.5 -19q3 -3 2 -15.5t-5 -13.5q-8 0 -48 1.5t-66 1.5q-25 0 -72 -1.5t-53 -1.5q-2 3 -1.5 15t3.5 14q45 7 54 10q18 7 15 26
q-7 69 -28 174q0 6 -6 6q-15 1 -94 1q-65 0 -74 -1q-6 0 -10 -7q-66 -123 -82 -165q-11 -29 19 -36q27 -5 49 -8q2 -2 1 -14t-4 -15q-5 0 -46.5 1.5t-76.5 1.5q-32 0 -66 -1.5t-37 -1.5q-2 3 -2 14.5t3 13.5zM339 511l-51 -102.5t-56 -115.5q0 -6 2 -7q18 -2 80 -2
q50 0 61 1q2 0 4 2.5t1 5.5q-24 152 -36 219h-2q-2 -1 -3 -1z" />
    <glyph glyph-name="B" unicode="B" horiz-adv-x="559" 
d="M0 26q47 5 61 8q17 4 25 14t14 36q5 22 39 227q33 214 34 226q3 22 -1.5 30.5t-20.5 13.5q-18 4 -57 8q-2 3 -0.5 15.5t5.5 13.5q16 0 57.5 -1.5t59.5 -1.5q104 2 138 2q43 0 77 -10.5t59.5 -41t25.5 -77.5q0 -53 -35.5 -92t-93.5 -58q-1 -1 -1 -2.5t1 -2.5
q130 -37 130 -143q0 -63 -36.5 -108t-102.5 -69q-54 -20 -147 -20q-10 0 -103 2.5t-131 1.5q-3 3 -2 15t5 14zM304 584q-17 0 -35 -4q-7 -4 -11 -16l-34 -210q0 -8 6 -8q9 -2 39 -2q79 0 120.5 35t41.5 92q0 113 -127 113zM274 29q74 0 113 39t39 109q0 59 -44 96t-124 37
q-26 0 -35 -2q-6 0 -8 -10q-28 -168 -33 -224q-2 -17 10 -27q22 -18 82 -18z" />
    <glyph glyph-name="C" unicode="C" horiz-adv-x="620" 
d="M562 464q0 59 -8 81t-33 34q-35 19 -103 19q-113 0 -182.5 -91t-69.5 -227q-1 -119 58 -184.5t165 -65.5q45 0 75 15q55 23 109 94q5 0 12 -8.5t6 -13.5q-18 -34 -48.5 -66.5t-54.5 -43.5q-50 -25 -140 -25q-132 0 -203.5 75t-70.5 205q0 103 49 191.5t147 139.5
q76 40 182 40q43 0 102 -9q50 -10 69 -12q-22 -77 -29 -146q-4 -5 -16 -5.5t-16 3.5z" />
    <glyph glyph-name="D" unicode="D" horiz-adv-x="680" 
d="M-2 26q45 4 62 7q30 6 39 51q15 75 41.5 234t32.5 213q3 24 -1 34.5t-23 14.5q-26 6 -58 9q-2 5 0 16.5t6 12.5q4 0 49.5 -1.5t70.5 -1.5q126 2 144 2q145 0 219 -79q69 -78 69 -195q0 -85 -35 -155t-96 -114q-100 -83 -271 -83q-37 0 -128 3.5t-124 2.5q-3 3 -2 14.5
t5 14.5zM183 78q-3 -23 13 -32q28 -18 106 -18q93 0 155 52q46 39 73 108t27 143q0 140 -80 202q-60 49 -159 49q-25 0 -43 -4q-10 -3 -14 -18q-48 -251 -78 -482z" />
    <glyph glyph-name="E" unicode="E" horiz-adv-x="544" 
d="M-7 26q46 4 67 10q18 4 26.5 15.5t14.5 38.5q8 34 38.5 222.5t32.5 216.5q2 27 -1.5 37t-19.5 14q-12 4 -58 10q-3 3 -0.5 14.5t5.5 13.5q6 0 54 -1.5t79 -1.5h185q90 0 113 6q3 -3 3 -7q-14 -39 -31 -137q-3 -3 -16.5 -3t-15.5 2q0 39 -5 64q-3 20 -13 27.5t-35 9.5
q-22 2 -72 2t-70 -2q-10 -3 -15 -17q-13 -74 -36 -221q0 -6 4 -6q106 0 140 1q26 1 42 33q11 25 16 39q3 3 16.5 3t16.5 -4q-12 -45 -21 -94q-3 -18 -8.5 -57.5t-5.5 -41.5q-3 -3 -15.5 -2.5t-14.5 2.5q0 17 -4 43q-3 32 -28 35q-31 3 -141 3q-5 0 -7 -7q-25 -163 -31 -215
q-2 -24 14 -29q18 -4 160 -4q46 -1 76 30q32 35 60 85q3 1 14 -3.5t12 -8.5q-16 -62 -55 -125q-13 -19 -39 -19q-39 0 -128 1.5t-163 1.5q-39 0 -86 -1.5t-57 -1.5q-3 3 -2 14.5t5 14.5z" />
    <glyph glyph-name="F" unicode="F" horiz-adv-x="511" 
d="M4 26q48 7 54 8q22 5 29.5 15.5t13.5 37.5q7 32 37.5 220t34.5 222q3 25 -1.5 36t-19.5 15q-9 3 -59 10q-2 3 0 14.5t5 13.5q4 0 49 -1.5t77 -1.5h218q60 0 95 5q4 0 4 -11q-19 -46 -36 -139q-2 -4 -14 -4t-16 3q0 48 -4 73q-4 32 -38 34q-25 1 -83.5 2t-74.5 0
q-5 0 -10 -6t-6 -12q-18 -75 -39 -233q-2 -6 5 -6q125 0 156 2q34 2 46 31q9 19 16 41q4 3 16.5 1.5t15.5 -4.5q-9 -30 -21 -94q-8 -48 -13 -98q-2 -4 -14.5 -4.5t-15.5 2.5l-3 46q-5 30 -33 34q-33 3 -157 3q-6 0 -6 -7q-23 -137 -28 -186q-3 -28 2 -39t26 -15l63 -8
q2 -4 0.5 -15t-5.5 -14q-12 0 -62.5 1.5t-79.5 1.5q-27 0 -70.5 -1.5t-57.5 -1.5q-2 4 -1 15t5 14z" />
    <glyph glyph-name="G" unicode="G" horiz-adv-x="668" 
d="M573 44q1 -2 -1.5 -11t-4.5 -11q-121 -39 -208 -39q-144 0 -215.5 71t-71.5 201q0 115 57.5 208.5t157.5 135.5q76 34 180 34q46 0 113 -12q56 -9 67 -10q-25 -78 -35 -149q-3 -4 -16 -4.5t-16 2.5q1 53 -5 76.5t-25 35.5q-39 26 -123 26q-119 0 -190 -96.5t-71 -236.5
q0 -117 57.5 -182t161.5 -65q41 0 64 14q17 10 21 32q9 34 21 115q4 25 -1 37t-21 16q-21 4 -68 10q-2 4 0 15.5t5 13.5q8 0 50 -1.5t79 -1.5q39 0 73 1.5t38 1.5q2 -3 1 -14.5t-5 -15.5q-9 -1 -33 -6q-15 -4 -22.5 -14.5t-13.5 -35.5q-14 -70 -18 -116q-2 -16 18 -25z" />
    <glyph glyph-name="H" unicode="H" horiz-adv-x="724" 
d="M97 589q-2 4 -0.5 15.5t4.5 13.5q9 0 50 -1.5t70 -1.5q34 0 76.5 1.5t46.5 1.5q2 -2 1 -14t-4 -15q-35 -4 -49 -8q-16 -5 -24 -14t-12 -32q-11 -52 -32 -189q0 -7 4 -8q10 -2 166 -2q139 0 149 1q6 3 6 8q21 118 30 198q3 31 -19 37q-9 3 -52 10q-2 3 -0.5 14.5t4.5 13.5
q6 0 46 -1.5t71 -1.5q38 0 77 1.5t43 1.5q2 -3 1 -14.5t-4 -13.5q-37 -5 -51 -10q-17 -6 -23.5 -17.5t-12.5 -39.5q-9 -51 -36.5 -224.5t-31.5 -215.5q-4 -40 22 -48q17 -5 57 -9q2 -4 0.5 -15t-5.5 -14q-5 0 -51 1.5t-76 1.5q-46 0 -124 -3q-3 3 -2 15t5 14q44 6 56 10
q24 8 33 46q12 55 34 203q0 7 -4 7q-21 2 -150 2q-158 0 -167 -1q-1 0 -3 -2.5t-2 -3.5q-26 -171 -29 -194q-4 -30 1 -42t24 -16q7 -2 55 -9q2 -3 -0.5 -15.5t-5.5 -13.5q-6 0 -50 1.5t-77 1.5q-36 0 -81 -1.5t-51 -1.5q-2 4 -0.5 15t3.5 14q42 5 55 8q22 4 30.5 18t16.5 55
q58 339 67 426q5 41 -19 47q-13 4 -56 9z" />
    <glyph glyph-name="I" unicode="I" horiz-adv-x="318" 
d="M95 590q-2 4 -1 14.5t5 13.5q5 0 49.5 -1.5t74.5 -1.5q28 0 72.5 1.5t52.5 1.5q3 -4 1.5 -14.5t-4.5 -13.5q-10 -2 -28 -4t-22 -3q-18 -4 -25.5 -13.5t-13.5 -34.5q-9 -42 -37 -216q-31 -207 -34 -230q-3 -25 1.5 -37.5t23.5 -17.5q13 -3 57 -9q2 -4 0.5 -14.5
t-5.5 -13.5q-10 0 -56.5 1.5t-72.5 1.5q-30 0 -79 -1.5t-56 -1.5q-2 3 -1 14t4 14q33 3 55 8q34 8 41 42q15 64 46 264q22 134 30 198q2 22 -1.5 31t-18.5 13q-3 1 -58 9z" />
    <glyph glyph-name="J" unicode="J" horiz-adv-x="312" 
d="M96 589q-3 5 -0.5 16t5.5 13q11 0 50 -1.5t75 -1.5q38 0 76 1.5t44 1.5q3 -3 1.5 -14t-4.5 -15q-33 -5 -50 -9q-23 -7 -31 -39q-4 -18 -34 -207t-39 -239q-13 -71 -25 -112.5t-34 -76.5q-62 -97 -173 -131q-4 1 -10.5 9t-7.5 13q0 5 2 7q60 25 98 69q34 37 58 163
q19 92 47 270t31 219q2 16 1.5 27t-5.5 17.5t-17 10.5q-12 3 -58 9z" />
    <glyph glyph-name="K" unicode="K" horiz-adv-x="625" 
d="M94 590q-2 3 -0.5 14t4.5 14q8 0 52 -1.5t74 -1.5q29 0 71 1.5t51 1.5q2 -3 2 -13.5t-4 -14.5q-45 -7 -53 -9q-17 -4 -24.5 -15.5t-12.5 -38.5q-32 -172 -69 -430q-3 -34 4 -46t27 -18l24 -3.5t28 -4.5q2 -3 0.5 -14t-4.5 -14q-13 0 -58 1.5t-81 1.5q-41 0 -83.5 -1.5
t-43.5 -1.5q-2 3 -1 14t4 14q10 2 30 4.5t27 4.5q19 5 29.5 18.5t15.5 41.5q43 246 69 441q3 23 -1.5 32.5t-22.5 13.5zM436 590q-3 4 -1.5 14.5t5.5 13.5q6 0 45 -1.5t69 -1.5q40 0 118 3q3 -2 2 -13.5t-5 -14.5q-46 -8 -72.5 -20.5t-59.5 -43.5q-138 -134 -218 -200l-1 -5
q38 -63 98 -144t101 -120q20 -17 38 -21q24 -9 67 -10q3 -3 1 -15t-6 -14q-39 -4 -91 -1.5t-67 10.5q-18 7 -44 35q-56 62 -170 241q-5 8 -15 18q-3 8 6 15q33 11 111.5 79.5t122.5 117.5q32 35 32 49q2 13 -13 18q-18 6 -53 11z" />
    <glyph glyph-name="L" unicode="L" horiz-adv-x="543" 
d="M93 589q-2 4 -0.5 15.5t4.5 13.5q10 0 53 -1.5t79 -1.5q31 0 72.5 1.5t47.5 1.5q2 -3 1 -14t-4 -14q-22 -3 -56 -10q-28 -7 -34 -41q-13 -71 -41.5 -251t-31.5 -215q-3 -24 11 -30q15 -5 73 -6t101 0q30 1 59 32.5t71 106.5q6 1 15 -3.5t11 -9.5q-9 -35 -28.5 -80.5
t-36.5 -66.5q-13 -19 -48 -19q-39 -1 -154 1t-125 2q-41 0 -88 -2t-49 -2q-3 4 -2 15.5t5 13.5q51 8 64 11q29 8 37 45q30 138 73 446q4 30 -1.5 40t-25.5 15q-12 3 -52 7z" />
    <glyph glyph-name="M" unicode="M" horiz-adv-x="813" 
d="M111 591q-2 3 0 14.5t5 13.5q129 -3 169 -3q1 -21 10 -60q101 -396 107 -411q2 -2 4 0q19 28 114.5 191t130.5 228q14 28 20 52q51 -1 103 1t61 2q2 -3 1 -14.5t-4 -13.5q-54 -10 -59 -11q-30 -6 -34 -43q-8 -51 -21 -209.5t-17 -231.5q-1 -31 4.5 -43.5t24.5 -17.5
t55 -9q1 -4 0 -15.5t-4 -13.5q-6 0 -54.5 1.5t-74.5 1.5q-23 0 -71 -1.5t-52 -1.5q-2 4 -1.5 15t3.5 14q34 4 54 10q23 8 29 40q8 41 44 426q0 1 -1 1t-2 -1q-10 -19 -74 -131l-125.5 -222t-81.5 -150q-4 -2 -17.5 -2.5t-15.5 1.5q-9 60 -52.5 251.5l-55.5 241.5q-2 4 -4 0
q-69 -251 -96 -389q-7 -27 -2.5 -43.5t24.5 -21.5q9 -3 58 -11q2 -4 0.5 -15.5t-4.5 -13.5q-5 0 -47 1.5t-70 1.5q-33 0 -73.5 -1.5t-42.5 -1.5q-2 4 -1.5 15t3.5 13q25 4 47 9q23 5 35 19.5t23 50.5q45 145 118 430q8 35 -19 44q-10 3 -71 13z" />
    <glyph glyph-name="N" unicode="N" horiz-adv-x="705" 
d="M80 590q-1 4 1.5 15t4.5 13q19 0 64.5 -1.5t65.5 -1.5q26 0 32 1q9 -24 28 -55q244 -418 264 -449q2 0 4 2q54 331 61 410q2 24 -4 36.5t-27 18.5q-8 2 -61 11q-2 4 -0.5 16t5.5 13q8 0 52.5 -2t74.5 -2q20 0 58.5 2t43.5 2q2 -3 0.5 -15t-4.5 -14q-34 -6 -42 -9
q-33 -9 -43 -54q-14 -64 -69 -398q-9 -55 -20 -136q-1 0 -13 1t-21 1q-11 0 -21 -1l-11 -1q-32 62 -134 242l-153 265q-1 1 -3 0l-2 -1q-43 -261 -60 -405q-3 -28 3.5 -40t25.5 -17q30 -8 61 -12q2 -3 0 -14.5t-4 -14.5q-15 0 -55 2t-68 2q-25 0 -69.5 -2t-55.5 -2
q-2 4 -0.5 15t4.5 14q40 6 60 11q19 5 29 18t16 40q23 92 76 429q2 34 -17 47q-23 14 -77 20z" />
    <glyph glyph-name="O" unicode="O" horiz-adv-x="691" 
d="M305 -18q-117 0 -176.5 70.5t-59.5 184.5q0 75 26 148t75 126q49 58 116 90.5t140 32.5q111 0 169.5 -71.5t59.5 -182.5q2 -162 -89 -271q-104 -127 -261 -127zM338 22q61 0 106 34q63 46 92 133.5t29 182.5q-2 100 -44 161t-130 61q-72 0 -126 -52.5t-80 -131
t-26 -165.5q0 -102 45.5 -162.5t133.5 -60.5z" />
    <glyph glyph-name="P" unicode="P" horiz-adv-x="529" 
d="M271 238q-19 0 -59 5q-6 0 -6 -6q-22 -144 -23 -156q-3 -38 31 -46q17 -4 58 -9q2 -4 0 -15t-5 -14q-11 0 -53 1.5t-73 1.5q-42 0 -90.5 -1.5t-52.5 -1.5q-2 4 -1 15t3 14q45 5 57 8q18 4 28 14.5t16 38.5q12 60 38 222t34 220q4 25 -2 36.5t-24 16.5q-11 3 -53 7
q-2 5 0 15.5t5 13.5q7 0 55 -1.5t65 -1.5q49 1 133 1q75 0 127.5 -40t52.5 -123q0 -66 -35 -116t-92 -75q-55 -24 -134 -24zM274 274q87 0 129 47.5t43 126.5q0 63 -35.5 98.5t-104.5 35.5q-22 0 -35 -5q-7 -3 -10 -14q-16 -78 -47 -277q0 -6 6 -8q17 -4 54 -4z" />
    <glyph glyph-name="Q" unicode="Q" horiz-adv-x="691" 
d="M340 22q59 0 103 33q62 47 92 133t30 186q-2 98 -44 159t-129 61q-72 0 -126.5 -51.5t-80.5 -131t-26 -170.5q1 -98 47.5 -158.5t133.5 -60.5zM427 634q108 0 168 -70.5t60 -179.5q2 -166 -90 -276q-71 -88 -175 -115q13 -5 69 -39q83 -52 131 -72t95 -20q64 0 117 27
q2 0 3.5 -12.5t-0.5 -15.5q-79 -62 -182 -62q-71 0 -143 49q-30 20 -82.5 60l-63.5 48q-21 16 -82 34q-183 48 -183 243q0 78 25.5 151t74.5 126q48 59 116.5 91.5t141.5 32.5z" />
    <glyph glyph-name="R" unicode="R" horiz-adv-x="580" 
d="M95 590q-2 3 0.5 15t5.5 13q7 0 52.5 -1.5t65.5 -1.5q71 1 130 1q79 0 122.5 -38.5t43.5 -103.5q0 -66 -41.5 -110.5t-104.5 -67.5q-5 -4 -3 -6q48 -105 125 -211q23 -31 43 -40.5t65 -15.5q2 -3 -0.5 -15t-6.5 -14q-103 -5 -144 19q-25 14 -44 43q-20 31 -107 193
q-10 21 -28 23h-51q-2 0 -4 -2t-2 -4q-23 -143 -27 -180q-3 -24 3.5 -35t23.5 -15q9 -3 58 -11q2 -2 0 -14t-5 -14q-22 0 -72 1.5t-65 1.5q-29 0 -69.5 -1.5t-58.5 -1.5q-2 3 -1 14.5t3 14.5q17 1 56 8q20 5 29 15.5t15 38.5q15 71 39.5 223.5t33.5 224.5q4 37 -24 44
q-12 4 -56 10zM429 456q0 61 -32 94t-97 33q-21 0 -30 -4q-7 -3 -11 -18q-4 -21 -40 -248q-2 -7 5 -7q71 -4 115 13q90 36 90 137z" />
    <glyph glyph-name="S" unicode="S" horiz-adv-x="468" 
d="M71 179q10 -99 58 -133q39 -29 96 -29q50 0 84 29t34 84q0 40 -24 71t-88 79q-63 48 -93 86.5t-30 90.5q0 84 57 130t143 46q46 0 101 -12q31 -7 52 -10q-24 -71 -36 -136q-2 -4 -14.5 -3.5t-14.5 3.5q3 86 -25 107q-27 21 -77 21q-55 0 -83.5 -34.5t-28.5 -79.5
q0 -55 53 -101q19 -17 62 -47.5t57 -42.5q71 -57 71 -129q0 -77 -60 -132t-163 -55q-47 0 -91.5 15t-67.5 33q-5 9 -5 62t4 82q2 3 13.5 5t15.5 0z" />
    <glyph glyph-name="T" unicode="T" horiz-adv-x="611" 
d="M128 26q52 6 64 8q25 4 35 18.5t17 52.5q3 16 76 463q0 8 -6 8q-11 1 -53.5 1t-58.5 -2q-27 -2 -47 -26q-20 -23 -57 -90q-5 -2 -16 2.5t-13 8.5q31 77 47 156q2 3 8 3q35 -14 76 -14h348q51 0 94 12q1 0 3.5 -2.5t2.5 -4.5q-23 -56 -44 -158q-2 -3 -15 -3.5t-16 3.5
q3 59 -3 87q-2 13 -11.5 19.5t-18.5 6.5q-24 2 -75 2.5t-59 -0.5q-7 -3 -7 -9q-72 -451 -74 -488q-1 -36 28 -43q18 -6 68 -11q3 -3 1 -15t-5 -14q-14 0 -66 1.5t-83 1.5q-30 0 -84 -1.5t-60 -1.5q-2 4 -1 15.5t5 13.5z" />
    <glyph glyph-name="U" unicode="U" horiz-adv-x="685" 
d="M83 589q-2 5 0 16t6 13q3 0 50 -1.5t75 -1.5t71.5 1.5t50.5 1.5q3 -3 2 -13.5t-4 -15.5q-32 -5 -47 -8q-37 -8 -45 -52q-37 -214 -45 -290q-9 -69 3 -104q9 -42 47.5 -70t102.5 -28q77 0 121 40.5t67 145.5q25 113 49 289q5 35 -2.5 49.5t-31.5 19.5q-13 3 -51 8
q-3 5 -1 16.5t5 13.5q3 0 44.5 -2t75.5 -2q33 0 68.5 2t39.5 2q3 -3 1.5 -15.5t-4.5 -14.5q-28 -3 -46 -8q-22 -6 -32 -22t-16 -48q-5 -25 -21.5 -116.5t-29 -152.5t-24.5 -93q-59 -167 -243 -167q-126 0 -179 71q-32 45 -32 117q1 31 26.5 192t26.5 171q3 37 -22 46
q-16 6 -56 10z" />
    <glyph glyph-name="V" unicode="V" horiz-adv-x="599" 
d="M50 589q-2 4 0 16.5t6 13.5q11 0 53.5 -2t65.5 -2q63 0 119 4q3 -3 2 -15.5t-4 -14.5q-48 -10 -52 -11q-23 -6 -20 -31q40 -293 64 -445q3 -3 6 0l123.5 218t108.5 203q13 27 11.5 39t-21.5 18q-17 4 -53 9q-2 6 0 16.5t6 13.5q4 0 43.5 -2t74.5 -2q31 0 63.5 1.5
t40.5 1.5q2 -3 0.5 -14.5t-4.5 -14.5q-36 -6 -49 -11q-23 -9 -37 -24.5t-42 -61.5l-212 -370q-46 -78 -70 -128q-1 0 -11 0.5t-19 0.5t-18 -0.5t-10 -0.5q-1 10 -15 120q-44 315 -57 388q-7 42 -16 57.5t-31 21.5q-12 4 -46 8z" />
    <glyph glyph-name="W" unicode="W" horiz-adv-x="855" 
d="M59 590q-3 4 -1.5 15t5.5 13q6 0 47 -1.5t74 -1.5q59 0 119 3q2 -2 1 -14t-4 -14q-35 -7 -50 -12q-25 -8 -25 -40q0 -81 15 -415q3 -3 6 0l125 240t106 216h3t4.5 -0.5t7 -0.5h10.5q9 0 17 0.5t10 0.5q8 -127 55 -461q2 -2 4 0l101.5 205.5t89.5 191.5q24 54 -8 64
q-19 5 -58 11q-2 4 -0.5 15.5t5.5 12.5q8 0 47 -1.5t67 -1.5q31 0 66.5 1.5t41.5 1.5q3 -3 1.5 -14.5t-5.5 -13.5q-40 -9 -47 -11q-33 -11 -59 -60l-263 -525q-2 0 -12.5 0.5t-14.5 0.5q-7 0 -16 -0.5t-11 -0.5q-19 218 -53 456q-2 4 -4 0l-237 -457q-2 0 -11 0.5t-16 0.5
q-6 0 -16 -0.5t-11 -0.5q-12 380 -22 522q-2 34 -8 47t-24 18q-4 1 -52 10z" />
    <glyph glyph-name="X" unicode="X" horiz-adv-x="604" 
d="M-20 26q38 4 61 12q37 12 79 60q61 70 167 208q3 3 0 8q-29 75 -85 202q-9 21 -14.5 31t-17 19.5t-27.5 13.5q-25 6 -59 9q-2 5 -0.5 16t4.5 13q13 0 57 -1t70 -1q83 0 111 2q3 -2 2.5 -14t-4.5 -15q-26 -3 -42 -8q-12 -4 -10 -18q25 -71 75 -188q2 -4 6 0
q37 45 78 100.5t53 77.5q11 22 -8 27q-20 6 -49 9q-3 4 -1 15.5t6 13.5l37 -2q37 -1 68 -1q37 0 72.5 1.5t37.5 1.5q2 -2 1 -14t-4 -15q-29 -2 -48 -8q-25 -7 -45.5 -22.5t-57.5 -61.5l-124 -158q-3 -3 -1 -9q65 -157 90 -208q22 -50 37 -65.5t39 -21.5q16 -5 53 -9
q2 -4 0.5 -15.5t-4.5 -13.5q-8 0 -56.5 1.5t-83.5 1.5q-32 0 -74 -1.5t-43 -1.5q-2 3 -1.5 15t3.5 14q34 4 51 10q20 5 11 27q-23 72 -82 202q-2 5 -8 1q-100 -128 -147 -202q-13 -22 7 -29q11 -4 48 -9q2 -3 0 -15t-5 -14q-10 0 -51.5 2t-61.5 1q-96 -2 -113 -3
q-2 4 -1.5 15t4.5 14z" />
    <glyph glyph-name="Y" unicode="Y" horiz-adv-x="531" 
d="M99 26q42 5 62 9q19 4 27.5 15.5t14.5 39.5q14 68 27 156q3 18 -2 43q-17 65 -76 219q-17 44 -28.5 57t-34.5 18q-12 3 -43 7q-2 4 -0.5 15.5t5.5 13.5q4 0 39.5 -2t67.5 -2q83 0 119 3q3 -3 1.5 -14.5t-3.5 -14.5q-30 -5 -40 -8q-19 -6 -13 -29q39 -126 80 -229
q2 -5 6 0q105 140 154 223q15 28 -12 35q-11 3 -45 9q-2 5 0 16.5t6 12.5q4 0 43 -2t57 -2q57 0 109 4q2 -4 1.5 -15t-4.5 -14q-7 -2 -22 -4.5t-18 -3.5q-25 -5 -41 -18t-43 -46q-74 -93 -166 -229q-13 -17 -15 -33q-13 -71 -25 -156q-4 -32 1 -46.5t25 -18.5q14 -4 59 -9
q2 -4 0 -15t-6 -14q-6 0 -54 1.5t-82 1.5q-30 0 -79 -1.5t-56 -1.5q-2 2 -0.5 14.5t4.5 14.5z" />
    <glyph glyph-name="Z" unicode="Z" horiz-adv-x="576" 
d="M105 454q-3 -2 -14.5 3t-12.5 9q34 90 52 161q28 -12 88 -12h218q84 -2 140 3q1 -1 1.5 -8.5t-0.5 -10.5l-433 -550q-3 -7 1 -8q31 -6 239 -6q37 2 61 22q41 37 90 119q3 2 14 -3t12 -9q-8 -27 -32 -77.5t-44 -78.5q-9 -11 -50 -11q-67 1 -178.5 1.5t-145.5 0.5
q-69 0 -92 -2q-2 2 -3.5 9t-0.5 9q77 86 241.5 292.5t207.5 266.5q1 2 0 4t-2 2q-49 0 -122.5 -0.5t-77.5 -0.5q-43 0 -62.5 -7.5t-36.5 -28.5q-35 -46 -58 -89z" />
    <glyph glyph-name="bracketleft" unicode="[" horiz-adv-x="375" 
d="M243 702q-5 0 -7 -7q-17 -58 -70 -400q-54 -338 -57 -401q0 -16 7 -19q20 -6 151 -6q1 -6 -5 -24t-11 -19q-78 -6 -163 -1q-29 2 -41 9q1 25 70 454t76 455q3 6 6 6h197q1 -4 -5 -23.5t-9 -19.5q-14 -2 -75 -3t-64 -1z" />
    <glyph glyph-name="backslash" unicode="\" horiz-adv-x="409" 
d="M149 690q6 0 7 -1q31 -148 93.5 -425t89.5 -371q-2 -7 -9 -7q-43 13 -49 26q-11 32 -46 183l-75.5 332t-53.5 233q21 21 43 30z" />
    <glyph glyph-name="bracketright" unicode="]" horiz-adv-x="362" 
d="M331 747q8 0 10 -8q1 -7 -69 -452.5t-74 -455.5q-3 -6 -6 -6q-56 -5 -201 -3q-2 5 3 24.5t9 19.5q100 0 142 4q6 0 8 7q19 66 71 399q50 316 56 403q0 20 -7 20q-42 4 -151 4q-1 6 4 23.5t10 17.5q120 3 195 3z" />
    <glyph glyph-name="asciicircum" unicode="^" horiz-adv-x="468" 
d="M104 272q-9 -13 -51 -13q-7 0 -7 6q15 20 83.5 155.5t84.5 174.5q1 1 17 6t19 5q24 -55 88 -179.5t83 -150.5q0 -2 -2 -6q-6 -5 -28 -12t-24 -5q-9 9 -39 65l-61.5 117.5l-35.5 69.5l-6 1l-1 -1q-98 -208 -120 -233z" />
    <glyph glyph-name="underscore" unicode="_" horiz-adv-x="555" 
d="M565 -182v-51h-569v51h569z" />
    <glyph glyph-name="grave" unicode="`" horiz-adv-x="400" 
d="M168 606q0 8 5 10q9 3 38 2.5t36 -2.5q5 -17 29 -165q-1 -4 -12.5 -7.5t-14.5 -1.5q-54 98 -81 164z" />
    <glyph glyph-name="a" unicode="a" horiz-adv-x="450" 
d="M419 109q4 -1 4 -3q3 -19 -3 -31q-26 -37 -64.5 -64t-59.5 -27q-32 0 -21 78q1 8 5.5 34.5t7.5 46.5v1q-2 1 -3 0q-48 -67 -103 -113.5t-90 -46.5q-28 0 -40.5 32t-12.5 69q0 65 24.5 128.5t67.5 108.5q32 32 85 59.5t110 27.5q48 0 89 -9q-16 -36 -24 -63
q-12 -48 -26 -130t-16 -114q-1 -28 10 -28q20 0 60 44zM146 60q25 0 62.5 35t71.5 90q18 31 30 78q22 86 24 90q-20 10 -65 10q-72 0 -116 -80q-38 -69 -38 -154q0 -69 31 -69z" />
    <glyph glyph-name="b" unicode="b" horiz-adv-x="451" 
d="M361 411q28 0 42.5 -28.5t14.5 -73.5q0 -150 -116 -250q-87 -75 -171 -75q-27 0 -49 25.5t-22 75.5q0 30 8 86q5 31 24 130.5l34 184.5t18 108q2 15 -7 15q-24 0 -62 -19q-2 3 -0.5 15t3.5 14q35 23 79 43.5t62 21.5q15 0 5 -54l-69 -356q0 -2 1.5 -2.5t3.5 1.5
q52 63 108.5 100.5t92.5 37.5zM190 36q43 0 83 46q30 35 48.5 92t18.5 108q0 65 -37 65q-28 0 -67.5 -34.5t-66.5 -76.5q-36 -56 -36 -127q0 -73 57 -73z" />
    <glyph glyph-name="c" unicode="c" horiz-adv-x="337" 
d="M211 360q-39 0 -67.5 -61.5t-28.5 -140.5q0 -109 69 -109q59 0 126 76q4 -4 4 -6q3 -20 -6 -32q-37 -49 -85.5 -75.5t-87.5 -26.5q-53 0 -76 47q-18 34 -18 86q0 68 26.5 135t81.5 107q69 51 120 51q49 0 63 -22q2 -3 2.5 -8.5t-0.5 -7.5q-3 -10 -16.5 -28.5t-22.5 -23.5
q-1 -1 -5 -1t-6 1q-35 39 -73 39z" />
    <glyph glyph-name="d" unicode="d" horiz-adv-x="467" 
d="M40 99q0 67 24.5 132t65.5 105q32 30 81.5 52.5t80.5 22.5q35 0 54 -7q5 -2 5 3q25 115 33 181q3 30 -10 30q-26 0 -65 -17q-1 3 0.5 14.5t3.5 13.5q34 20 79.5 38t64.5 18q15 -1 6 -51l-36.5 -186t-47.5 -248t-17 -123q0 -17 9 -17q20 0 65 45q3 -3 3 -4q2 -14 -5 -31
q-26 -35 -71 -65.5t-64 -30.5q-9 0 -13 12.5t-2 29.5q1 24 18 120q-2 2 -5 0q-49 -66 -105 -108.5t-91 -42.5q-33 0 -47 34.5t-14 79.5zM155 57q23 0 60.5 31t76.5 90q19 30 25 57q8 29 18 90q0 15 -6 20q-26 23 -75 23q-43 0 -75.5 -39.5t-47 -92t-14.5 -105.5
q0 -74 38 -74z" />
    <glyph glyph-name="e" unicode="e" horiz-adv-x="346" 
d="M221 366q-31 0 -61 -36.5t-40 -103.5q-2 -5 3 -5q56 11 101 38q37 23 37 64q0 18 -10.5 30.5t-29.5 12.5zM268 411q25 0 42.5 -18t19.5 -46q1 -65 -97 -117q-41 -22 -113 -46q-6 -2 -6 -9q-2 -10 -2 -20q0 -105 73 -105q66 0 132 70q5 0 5 -6q0 -13 -7 -29
q-34 -45 -84.5 -72.5t-95.5 -27.5q-50 0 -72.5 39t-22.5 99q0 59 22 122.5t64 100.5q30 27 72.5 46t69.5 19z" />
    <glyph glyph-name="f" unicode="f" horiz-adv-x="245" 
d="M34 355q-2 2 0 7q5 8 18.5 21t18.5 14h44q5 3 5 7q18 92 48.5 147t87.5 97q48 34 86 36q37 0 37 -18q0 -7 -17.5 -29.5t-27.5 -29.5q-6 -6 -12 -2q-21 15 -43 15q-27 0 -43 -32q-24 -50 -44 -183q-2 -7 4 -7q72 0 100 6q1 -2 -0.5 -9.5t-3.5 -9.5q-24 -24 -64 -29l-39 -3
q-1 0 -3.5 -2.5t-2.5 -4.5q-4 -24 -22 -148t-31 -193q-22 -123 -86.5 -191.5t-127.5 -68.5q-27 0 -42.5 11t-16.5 28q-2 32 13 62q4 6 12 6q37 -51 86 -51q32 0 49 33t32 117q32 187 61 394q0 8 -5 8q-49 0 -71 2z" />
    <glyph glyph-name="g" unicode="g" horiz-adv-x="387" 
d="M426 401q2 -1 2 -12q-5 -16 -21 -32.5t-32 -21.5q-13 -7 -33 -11q1 -6 1 -27q0 -54 -23 -99.5t-62 -71.5q-32 -23 -81 -34q-18 -6 -22 -8q-17 -11 -17 -19q0 -15 29 -29q89 -41 130 -69q53 -35 53 -79q0 -30 -23 -63t-66 -58q-61 -35 -127 -35q-76 0 -125.5 36t-49.5 88
q0 41 136 123q3 1 0 4q-34 24 -34 48q0 9 6 15q14 16 56 40q0 4 -1 4q-75 17 -75 109q1 51 24.5 99t65.5 77q22 14 54 25t52 11q24 0 66 -21q31 -14 49 -13q41 0 68 24zM186 128q37 0 62.5 47t25.5 105q0 42 -16.5 67t-48.5 25q-40 0 -64.5 -48t-24.5 -104q0 -41 17 -66.5
t49 -25.5zM173 -222q51 1 80.5 21t29.5 49q0 32 -40 61q-27 20 -62 37.5t-49 17.5q-15 0 -60 -33t-45 -56q0 -38 43 -67.5t103 -29.5z" />
    <glyph glyph-name="h" unicode="h" horiz-adv-x="470" 
d="M321 345q-24 0 -67 -38t-80 -98q-35 -55 -49 -119q-12 -52 -5 -70q-10 -9 -36.5 -23.5t-34.5 -14.5q-2 0 -5 4.5t-3 7.5q0 11 8 57q11 64 35 190.5l43 225t22 124.5q1 22 -11 22q-17 0 -59 -19q-1 3 1 15t4 14q29 21 73.5 41t63.5 20q16 0 7 -53q-8 -44 -38.5 -198.5
l-38.5 -196.5q1 -1 4 0q56 76 119.5 125.5t106.5 49.5q25 0 29 -31.5t-9 -88.5l-14 -69.5t-15 -76l-10 -55.5q-1 -26 10 -26q21 0 61 43q3 -3 3 -6q2 -12 -4 -29q-31 -40 -69 -64t-57 -24q-14 0 -19 19t0 50q6 40 47 234q6 31 3 44.5t-16 13.5z" />
    <glyph glyph-name="i" unicode="i" horiz-adv-x="235" 
d="M201 107q3 -1 3 -3q3 -14 -3 -29q-32 -43 -69.5 -67t-56.5 -24q-36 0 -16 94l47 230q5 22 -4 22q-16 0 -54 -30q-3 1 -3 3q-4 13 4 26q31 31 69.5 56.5t56.5 25.5q21 0 6 -70q-3 -16 -25.5 -120.5t-25.5 -131.5q-3 -26 10 -26q20 0 61 44zM192 583q19 0 24 -7
q7 -10 5 -27q-3 -28 -25 -43q-5 -3 -23 -4.5t-22 1.5q-15 9 -16 34q2 20 9 28q18 18 48 18z" />
    <glyph glyph-name="j" unicode="j" horiz-adv-x="240" 
d="M-66 -262q-4 0 -10 9t-5 14q62 35 90.5 80.5t45.5 126.5q45 222 60 338q4 19 -6 19q-11 0 -62 -37l-3 6q-1 4 0 12.5t2 10.5q37 36 78.5 65.5t63.5 28.5q17 0 8 -65q-27 -169 -55 -306q-16 -82 -38 -134t-64 -96q-49 -52 -105 -72zM192 583q19 0 25 -9q6 -8 4 -25
q-3 -31 -26 -44q-5 -3 -22.5 -4t-21.5 1q-15 9 -15 34q0 20 9 29q16 18 47 18z" />
    <glyph glyph-name="k" unicode="k" horiz-adv-x="436" 
d="M219 684q17 0 6 -56l-80 -408q0 -3 2 -4.5t4 0.5q45 61 116 128t113 67q37 0 51 -18q0 -10 -1 -13q-2 -11 -15 -31t-20 -22q-28 19 -59 19q-24 0 -64.5 -37t-64.5 -69q-3 -5 0 -8q18 -22 32 -47q48 -77 73.5 -103t45.5 -26q30 0 74 58q1 0 3 -2.5t2 -3.5q0 -24 -6 -33
q-23 -35 -56.5 -60.5t-59.5 -25.5q-30 0 -59 39q-16 22 -49 77.5t-38 64.5q-6 13 -15 4q-19 -22 -27 -54q-3 -12 -6 -29t-4 -20q-4 -35 5 -50q-4 -7 -34 -23t-38 -16q-10 0 -10 22q2 26 25 146q77 408 80 437q5 24 -8 24q-15 1 -59 -18q-2 2 0 14t4 14q34 22 77.5 42.5
t59.5 20.5z" />
    <glyph glyph-name="l" unicode="l" horiz-adv-x="230" 
d="M72 592q-1 3 2 15.5t5 13.5q38 24 80.5 43.5t58.5 19.5t6 -61q-92 -488 -96 -523q-5 -37 10 -37q25 0 68 47q3 0 3 -6q0 -24 -6 -30q-30 -39 -69 -64t-63 -25q-32 0 -16 93l43.5 236.5t47.5 270.5q3 26 -8 26q-25 0 -66 -19z" />
    <glyph glyph-name="m" unicode="m" horiz-adv-x="702" 
d="M42 291q-4 0 -4 4q-4 14 4 29q32 36 69.5 61.5t55.5 25.5q22 0 10 -75q-2 -14 -19 -99h4q54 75 115 124.5t96 49.5q44 0 31 -98q-2 -18 -13 -79q3 -3 4 0q53 75 116 126t100 51q26 0 30.5 -33.5t-10.5 -104.5q-35 -176 -35 -178q-4 -29 9 -29q19 0 61 43q3 0 3 -6
q0 -17 -5 -29q-32 -41 -69.5 -65.5t-57.5 -24.5q-32 0 -14 98l23 110t19 90q13 60 -10 60q-25 0 -70.5 -43.5t-81.5 -105.5q-22 -36 -36 -90q-16 -66 -15 -90q-7 -7 -32.5 -18.5t-34.5 -11.5q-10 0 -7 17q2 11 24 116t30 160q11 65 -14 65q-23 0 -64 -38t-84 -107
q-17 -26 -31 -70q-27 -77 -20 -110q-10 -9 -35 -20t-33 -12q-9 0 -7 16q1 15 10 56q34 141 50 245q4 28 -5 28q-14 0 -57 -38z" />
    <glyph glyph-name="n" unicode="n" horiz-adv-x="464" 
d="M43 290q-4 0 -4 3q-3 10 3 29q32 37 69 63t54 26q26 0 9 -93l-15 -79h3q78 110 162 155q31 17 54 17q46 0 18 -135q-26 -120 -36 -184q-2 -27 8 -27q21 0 60 44q3 0 4 -5q1 -3 -1 -15.5t-4 -15.5q-28 -38 -66 -63.5t-60 -25.5q-32 0 -12 101q8 41 23.5 113t18.5 88
q10 56 -13 56q-24 0 -65.5 -39t-83.5 -107q-24 -37 -36 -93q-17 -68 -13 -86q-8 -8 -33 -20t-34 -13q-4 -1 -7 3t-2 8q2 17 28 141t32 170q3 23 -6 23q-14 0 -55 -39z" />
    <glyph glyph-name="o" unicode="o" horiz-adv-x="423" 
d="M283 411q51 0 75.5 -40t24.5 -94q0 -81 -34 -150.5t-101 -107.5q-58 -35 -109 -35q-47 0 -72 40t-25 99q0 70 25.5 133.5t76.5 101.5q31 23 71.5 38t67.5 15zM118 154q0 -122 72 -122q47 0 81 66.5t34 151.5q0 116 -72 117q-53 0 -84 -68.5t-31 -144.5z" />
    <glyph glyph-name="p" unicode="p" horiz-adv-x="459" 
d="M209 33q39 0 68 28q34 31 52 87.5t18 118.5q0 78 -36 78q-23 0 -60.5 -29t-73.5 -81q-18 -26 -24 -56q-15 -61 -17 -92q-2 -12 3 -19q21 -35 70 -35zM424 295q0 -73 -28 -137t-73 -103q-79 -69 -148 -69q-31 0 -53 15q-19 -107 -25 -168q-1 -19 4 -27.5t21 -11.5
q5 -1 51 -4q2 -3 0 -14t-5 -13q-89 0 -228 -25q-2 3 -1 14t3 13q29 8 43 14q17 7 24 16.5t13 32.5q6 26 34 188q43 236 51 303q2 19 -7 19q-14 0 -59 -42q-5 0 -6 2q-2 15 4 30q27 30 75.5 69.5t62.5 39.5q4 0 8.5 -7t4.5 -15q-1 -12 -23 -141q0 -2 5 0q45 57 99.5 97
t90.5 40q28 0 45 -32t17 -84z" />
    <glyph glyph-name="q" unicode="q" horiz-adv-x="454" 
d="M396 -233q-99 -3 -235 -30q-2 3 -1 14t4 13q48 15 52 17q25 10 31 39q7 32 24.5 142.5t27.5 165.5q-3 2 -5 0q-41 -55 -98.5 -99.5t-93.5 -44.5q-29 0 -44.5 31.5t-15.5 81.5q0 61 21 121.5t54 99.5q36 42 92.5 67.5t94.5 25.5q65 0 118 -22q-12 -20 -18 -54
q-18 -82 -44.5 -261t-31.5 -242q-3 -29 19 -34q16 -2 53 -4q2 -3 0.5 -14t-4.5 -13zM158 55q51 0 130 110q18 28 29 73q14 61 16 97q2 10 -4 14q-23 17 -70 17q-53 0 -88 -48q-24 -33 -37.5 -84.5t-13.5 -100.5q0 -78 38 -78z" />
    <glyph glyph-name="r" unicode="r" horiz-adv-x="331" 
d="M164 258q31 53 64 96q46 57 79 57q31 0 43 -23v-14q-2 -11 -17 -34.5t-24 -31.5q-6 -6 -12 -2q-21 25 -39 25q-30 0 -89 -123q-23 -48 -39 -117q-12 -54 -11 -75q-6 -7 -33 -19t-36 -13q-7 0 -7 9q54 258 58 300q4 34 -6 34q-14 0 -57 -37q-4 0 -4 3q-2 11 4 27
q31 35 69.5 63t55.5 28q22 0 10 -82q-2 -15 -7 -39t-6 -32q1 -1 4 0z" />
    <glyph glyph-name="s" unicode="s" horiz-adv-x="302" 
d="M222 411q49 0 61 -22q3 -6 1 -15q-9 -29 -32 -50q-5 -3 -11 0q-22 40 -67 40q-22 0 -37 -15t-15 -39q0 -20 13.5 -37t57.5 -50q41 -31 56.5 -52t15.5 -45q0 -53 -56 -99q-54 -43 -115 -43q-48 0 -73 25q-13 13 -13 29q0 9 7.5 32t14.5 33q1 1 4.5 2t7 1t3.5 -1
q8 -36 34 -56.5t59 -20.5q27 0 44.5 16t17.5 38q0 20 -13 38.5t-55 50.5q-39 30 -53 52t-14 47q0 52 46 93q53 48 111 48z" />
    <glyph glyph-name="t" unicode="t" horiz-adv-x="277" 
d="M178 346q-29 -136 -40 -236q-6 -51 18 -51q19 0 46.5 22.5t43.5 44.5q2 1 4 -1t1 -3q2 -21 -5 -31q-24 -38 -72.5 -72.5t-82.5 -34.5q-15 0 -24 17t-8 50t51 296q0 5 -3 5q-49 0 -71 3q-1 2 -1 7q4 7 19.5 20t19.5 15h7h13h20q7 0 7 5q23 97 28 107q4 9 33.5 31.5
t42.5 27.5q2 1 5.5 -4.5t2.5 -7.5q-14 -18 -22 -57q-12 -44 -21 -95q-1 -2 0 -4.5t3 -2.5q96 -2 118 8q2 -11 -6 -22q-14 -16 -53 -23q-28 -6 -67 -7q-3 0 -7 -7z" />
    <glyph glyph-name="u" unicode="u" horiz-adv-x="463" 
d="M107 309q4 22 -5 22q-17 0 -59 -39q-4 0 -4 4q-1 4 0.5 15t3.5 13q30 34 70.5 60.5t58.5 26.5q25 0 5 -90q-38 -181 -42 -205q-6 -30 -1.5 -44t20.5 -14q27 0 71 44.5t76 105.5q13 25 26 72q21 92 25 99q6 6 32.5 17.5t40.5 14.5q6 -3 4 -12q-13 -18 -23 -65
q-35 -148 -44 -235q-4 -36 9 -36q20 0 63 49q4 0 4 -5q0 -19 -5 -31q-26 -39 -64.5 -65.5t-61.5 -26.5q-30 0 -18 89q2 14 6.5 38.5t6.5 36.5q0 1 -1.5 1.5t-2.5 -0.5q-50 -75 -119 -126q-51 -39 -87 -39q-49 0 -29 111q9 52 44 214z" />
    <glyph glyph-name="v" unicode="v" horiz-adv-x="395" 
d="M317 298q0 41 -26 72q-2 5 4 11q39 28 66 30q9 -2 16 -20t7 -43q0 -53 -31 -116t-75 -114q-82 -99 -146 -130q-12 -7 -25 -4q-16 16 -15 106q1 30 5 109.5t4 101.5q1 29 -9 29q-16 0 -57 -42q-3 0 -5 5q-2 19 5 29q31 39 70 66q32 23 49 23q22 0 19 -75q-6 -90 -10 -197
q-3 -59 4 -73q4 -10 16 -2q47 34 91 107.5t43 126.5z" />
    <glyph glyph-name="w" unicode="w" horiz-adv-x="604" 
d="M399 68q49 44 87.5 122t38.5 126q0 38 -42 44q0 8 4 20q16 11 44 20.5t46 10.5q14 -7 14 -40q0 -35 -17 -85q-28 -81 -93 -169.5t-119 -126.5q-8 -6 -25 -6q-20 42 -36 236q0 1 -5 1q-33 -58 -91.5 -138t-91.5 -99q-14 -3 -19 4q-12 22 -5 104q2 37 7 112t6 93
q0 36 -11 36q-20 0 -61 -43q-5 0 -6 5q0 18 6 30q31 40 67 63t55 23q25 0 20 -92q-1 -24 -6 -85.5t-6 -85.5q-4 -52 0 -61q2 -3 7 0q52 60 124 191q7 13 32 66q29 17 45 15q-4 -56 4 -166t20 -125q5 -2 7 0z" />
    <glyph glyph-name="x" unicode="x" horiz-adv-x="451" 
d="M64 265q-5 0 -5 2q-3 4 -3.5 15.5t0.5 14.5q20 38 59.5 76t66.5 38q22 0 41 -52q15 -41 31 -96q1 -2 3 -2t3 2q46 65 75 96q47 52 82 52q24 0 24 -40q0 -28 -6.5 -55.5t-11.5 -35.5q0 -2 -7 -5.5t-12.5 -5t-6.5 1.5q1 72 -20 72q-24 0 -109 -116q-1 -2 -1 -8
q31 -102 46.5 -131.5t31.5 -29.5q27 0 72 71h5l1 -1q2 -4 2.5 -17.5t-0.5 -15.5q-23 -48 -59.5 -79.5t-62.5 -31.5q-28 0 -52 62q-2 5 -37 112q-1 3 -4 0q-66 -100 -111 -145q-29 -29 -54 -29q-36 0 -36 60q0 48 25 89q1 2 12 5t12 0q-2 -26 1 -44t8.5 -25t12.5 -7
q16 0 41 27q40 45 78 103q3 7 1 12q-16 58 -34 105q-13 31 -26 31q-24 0 -76 -75z" />
    <glyph glyph-name="y" unicode="y" horiz-adv-x="391" 
d="M136 410q29 0 45 -91q14 -81 27 -259q2 -2 4 0q48 77 72 139.5t23 94.5q0 37 -17 71q-2 7 3 13q11 9 34.5 22.5t29.5 13.5q8 0 13 -17t4 -36q0 -62 -40 -145q-49 -103 -119.5 -213t-127.5 -173q-45 -50 -74 -69t-55 -19q-25 0 -25 14q0 9 22 46t30 44q3 5 11 3
q20 -10 39 -10q34 0 105 115q6 14 6 27q1 57 -10.5 156t-25.5 152q-11 42 -25 42q-20 0 -61 -50q-2 -2 -5 4q-2 5 -0.5 17.5t5.5 17.5q25 36 57.5 63t54.5 27z" />
    <glyph glyph-name="z" unicode="z" horiz-adv-x="420" 
d="M322 375q33 0 77 51q1 1 3 0t3 -2q2 -5 2.5 -15t-1.5 -13q-7 -13 -98 -104q-28 -27 -106.5 -109.5t-83.5 -89.5q-2 -2 -2 -4.5t2 -2.5q30 -6 85 -29q51 -21 82 -21q64 0 123 98q1 1 4 -1t4 -4q2 -23 -5 -35q-26 -47 -73 -85.5t-99 -38.5q-27 0 -104 34q-46 21 -66 21
q-22 0 -60 -36q-3 -3 -6 3q-9 17 -4 24q17 25 76 81q19 18 106 109t103 110q1 2 1 3.5t-2 1.5q-33 0 -76 8q-59 8 -64 8q-22 0 -40 -13.5t-42 -50.5q-2 -5 -6 -1q-5 2 -9 8.5t-3 8.5q7 17 29 54.5t34 52.5q13 15 30 15q24 0 80 -15q82 -21 106 -21z" />
    <glyph glyph-name="braceleft" unicode="{" horiz-adv-x="414" 
d="M66 302q32 1 54.5 9.5t35 19t20.5 34.5t10 40t6 51l9 92q12 99 72 148.5t165 58.5q2 -2 2.5 -15t-1.5 -15q-81 -13 -120.5 -47t-48.5 -94q-4 -25 -8 -83t-7 -81t-7 -36.5t-15.5 -35.5t-36.5 -37t-63 -24q-2 -2 -1 -5q38 -5 60 -18.5t28 -36t6 -37.5t-4 -39
q-5 -32 -19.5 -90t-18.5 -79q-5 -33 3.5 -57.5t29.5 -38t42.5 -21t49.5 -11.5q0 -4 -5 -16t-8 -13q-85 -1 -135 40t-40 120q3 27 21 99q23 88 20 115q-4 47 -64 63q-19 5 -46 8q0 4 5.5 17t8.5 15z" />
    <glyph glyph-name="bar" unicode="|" horiz-adv-x="289" 
d="M112 710h65v-1020h-65v1020z" />
    <glyph glyph-name="braceright" unicode="}" horiz-adv-x="409" 
d="M370 266q-41 -1 -67.5 -11.5t-39 -33t-17.5 -46.5t-6 -62q-4 -72 -7 -93q-15 -99 -73 -146t-163 -56q-4 1 -4 14t2 15q83 15 122.5 48.5t48.5 93.5q3 22 6 77.5t7 80.5q3 23 7.5 37.5t16 36.5t37 37.5t62.5 23.5q1 2 1 6q-113 16 -90 134q5 26 20.5 85.5t19.5 85.5
q5 33 -4 57t-30 37.5t-43 20.5t-50 11q-1 4 3 16t8 13q83 1 135.5 -40t41.5 -118q-6 -37 -20 -98q-22 -89 -22 -113q2 -54 67 -73q18 -5 43 -8q1 -3 -4 -16.5t-8 -15.5z" />
    <glyph glyph-name="asciitilde" unicode="~" horiz-adv-x="547" 
d="M200 301q31 0 99 -30q50 -26 79 -26q59 0 115 64q1 1 5.5 0t5.5 -3q0 -17 -8 -36q-17 -30 -58.5 -58.5t-87.5 -28.5q-28 0 -100 36q-42 21 -80 21q-25 0 -62.5 -23.5t-56.5 -43.5q-1 -1 -4 1.5t-3 4.5q0 7 4.5 21.5t6.5 17.5q20 28 67 55.5t78 27.5z" />
    <glyph glyph-name="uni00A0" unicode="&#xa0;" horiz-adv-x="192" 
 />
    <glyph glyph-name="exclamdown" unicode="&#xa1;" horiz-adv-x="256" 
d="M23 -220q-5 0 -11.5 4.5t-6.5 8.5q5 37 98 404q4 4 14.5 10t15.5 5q7 0 9 -3q-5 -68 -15 -219t-12 -172q0 -14 -18 -23q-36 -15 -74 -15zM137 301q-22 0 -34 13q-13 16 -11 37q0 26 18 43q18 15 42 15q23 0 34 -14t11 -31q0 -30 -21 -48q-18 -15 -39 -15z" />
    <glyph glyph-name="cent" unicode="&#xa2;" horiz-adv-x="476" 
d="M241 152l63 303q0 4 -3 4q-67 -1 -104.5 -53t-37.5 -119q0 -108 82 -135zM342 455q-4 0 -5 -3l-62 -307q8 -2 24 -2q70 0 128 50q2 -1 1.5 -14.5t-3.5 -16.5q-63 -70 -161 -80q-2 0 -5 -4l-15 -74q-18 -6 -30 -6q-2 0 -6 2l17 78q-1 6 -4 6q-71 11 -109 65
q-30 43 -30 106t31.5 118.5t91.5 88.5q55 27 108 32l15 72q14 8 31 8q1 0 3 -0.5l2 -0.5l-16 -78q43 0 76 -14q25 -11 30 -26q2 -7 -2 -16q-17 -25 -34 -33q-6 -2 -11 0q-1 1 -6.5 8t-8 9.5t-9 8.5t-11.5 9.5t-13 7.5t-17 6z" />
    <glyph glyph-name="sterling" unicode="&#xa3;" horiz-adv-x="476" 
d="M125 305q8 76 23 123t46 85q41 49 86 68.5t72 19.5q26 0 44.5 -6.5t26 -13.5t7.5 -13q0 -9 -9 -29.5t-16 -28.5q-6 -3 -9 -2q-17 16 -27.5 24t-28 15.5t-35.5 7.5q-43 0 -59 -52q-20 -44 -36 -193q-2 -5 4 -5q92 0 133 3q3 -10 -5 -18q-15 -15 -39 -20q-24 -4 -94 -4
q-6 0 -6 -6q-6 -40 -12.5 -65t-26 -58.5t-49.5 -59.5q36 3 101 -13q62 -13 87 -12q45 0 69 19t55 84q1 1 4.5 1t4.5 -1q2 -2 5.5 -13t2.5 -16q-30 -77 -77.5 -113.5t-85.5 -36.5t-107 23q-63 22 -91 22q-29 0 -67 -34q-10 0 -13 8q14 42 19 47q12 10 43 25q13 7 22 20.5
t19 59t16 120.5q-55 0 -72 2l-1 6q7 17 16 31z" />
    <glyph glyph-name="currency" unicode="&#xa4;" horiz-adv-x="476" 
d="M287 464q45 0 83 -25q3 -3 6 0q46 45 56 51q3 2 21.5 4t22.5 1q3 -1 3 -8q-41 -40 -78 -84q24 -45 20 -101q-6 -61 -46 -113q-4 -4 -1 -9q36 -50 65 -79q0 -8 -5 -11q-49 -7 -56 0q-33 28 -54 55q-45 -34 -101 -34q-57 0 -94 35q-10 -8 -25 -22.5l-29.5 -28.5l-18.5 -18
q-2 -1 -6 -0.5t-5 2.5q-1 7 0.5 25.5t4.5 22.5q10 12 51 53l1 7q-19 41 -15 89q7 65 42 109q-32 39 -45 59q-4 4 -2 12q0 4 10 22.5t16 23.5q1 1 5 1t6 -1q34 -49 53 -71q3 -3 9 0q47 33 106 33zM256 419q-48 0 -75.5 -34.5t-31.5 -85.5q-6 -68 25 -103t81 -35q93 0 104 118
q5 58 -24 99t-79 41z" />
    <glyph glyph-name="yen" unicode="&#xa5;" horiz-adv-x="476" 
d="M270 174q-4 0 -4 -4q-9 -52 -12 -82q-4 -29 0 -39.5t22 -15.5q8 -2 51 -7q2 -3 -1 -14.5t-6 -14.5q-16 0 -55 1.5t-64 1.5t-62 -1.5t-57 -1.5q-2 4 -0.5 15.5t3.5 13.5q43 5 53 7q19 4 26 14.5t12 35.5q8 37 15 86q1 1 0 3t-3 2q-26 0 -55.5 -0.5t-35.5 -0.5q5 28 9 33
q1 0 28 -0.5t60 -0.5q3 0 3 4q8 42 10 59q1 1 -0.5 3.5t-3.5 2.5q-29 0 -55 -1t-28 -1q8 30 10 33h76q2 0 3 2t0 4q-20 84 -57 186q-13 39 -22 50t-30 17q-4 1 -33 6q-2 4 -0.5 14.5t5.5 13.5q5 0 39 -1.5t59 -1.5q62 0 95 3q2 -2 1 -13.5t-4 -14.5q-26 -5 -33 -7
q-16 -6 -10 -28q29 -107 55 -188q0 -1 2 -1t3 1q75 115 111 182q16 27 -11 34q-2 1 -38 7q-1 3 2 15t6 13q11 0 37 -1.5t48 -1.5q16 0 30 0.5t30 1.5t26 1q1 -3 -0.5 -14t-3.5 -14q-1 0 -11.5 -2t-16.5 -4q-36 -9 -72 -61l-125 -192q-1 -2 -1 -4.5t2 -2.5q19 0 42 0.5t35 1
t15 0.5q0 -12 -9 -33q-7 0 -38.5 0.5t-50.5 0.5q-3 0 -5 -5l-9 -59q-2 -5 2 -5q18 0 53 0.5t37 0.5q0 -18 -9 -32h-85z" />
    <glyph glyph-name="brokenbar" unicode="&#xa6;" horiz-adv-x="289" 
d="M111 631h67v-348h-67v348zM111 127h67v-355h-67v355z" />
    <glyph glyph-name="section" unicode="&#xa7;" horiz-adv-x="460" 
d="M290 541q-25 0 -25 -40q0 -26 8 -45q13 -41 77 -175q40 -80 40 -146q0 -81 -53 -155q-39 -54 -92.5 -88t-92.5 -34q-74 0 -117 47q-12 18 -11 28q2 20 23 49q6 3 9 3q26 -37 61 -55t54 -18q20 0 20 29q0 25 -15 57l-57 117q-57 114 -57 195q0 117 91 210q30 29 72 51
t75 22q62 0 102 -43q13 -16 10 -28q-2 -19 -21 -40l-6 -2q-65 61 -95 61zM227 -81q48 22 75 70.5t27 105.5q1 63 -47 168l-16.5 33.5t-19 40.5t-14.5 36.5t-12.5 44t-3.5 39.5q0 46 20 83q-47 -10 -82 -65t-35 -116q0 -73 47 -175q7 -16 24 -49.5t26 -53.5t17 -46.5t8 -46.5
q0 -37 -14 -69z" />
    <glyph glyph-name="dieresis" unicode="&#xa8;" horiz-adv-x="400" 
d="M194 581q19 0 24 -8q7 -11 5 -27q-5 -30 -26 -42q-3 -3 -20 -4.5t-21 1.5q-15 9 -17 35q0 18 8 28q15 17 47 17zM343 581q19 0 24 -8q6 -8 4 -26q-5 -32 -25 -43q-4 -3 -21 -4.5t-20 1.5q-16 8 -18 37q2 19 10 27q16 16 46 16z" />
    <glyph glyph-name="copyright" unicode="&#xa9;" horiz-adv-x="741" 
d="M382 629q139 0 229.5 -92t90.5 -228t-93 -229t-227 -93q-137 0 -229 91t-92 231q0 134 93.5 227t227.5 93zM382 598q-117 0 -198.5 -84t-81.5 -205q0 -120 81.5 -204t199.5 -84q123 0 201 82.5t78 205.5q0 120 -82 204.5t-198 84.5zM400 475q-62 0 -92.5 -43.5
t-30.5 -114.5q0 -60 37 -113.5t107 -53.5q47 0 100 68q3 -1 8.5 -6.5t6.5 -7.5q-5 -18 -22.5 -42.5t-25.5 -29.5q-40 -12 -81 -12q-98 0 -153.5 51.5t-55.5 139.5q0 77 55 133.5t159 56.5q26 0 68 -5q31 -4 50 -3q-6 -56 -8 -101q-1 -2 -11 -3t-11 1q-6 49 -33 68
q-24 17 -67 17z" />
    <glyph glyph-name="ordfeminine" unicode="&#xaa;" horiz-adv-x="322" 
d="M325 309q3 0 3 -1q2 -12 -2 -25q-19 -27 -48.5 -47t-46.5 -20q-22 0 -16 55q2 8 4 24.5t4 27.5v1q-1 1 -3 0q-32 -43 -72.5 -75.5t-59.5 -32.5q-20 0 -29.5 22t-9.5 49q0 97 64 164q21 23 60.5 43t79.5 20q38 0 66 -7q-10 -24 -17 -47q-24 -98 -28 -163q-1 -20 9 -20
q11 0 42 32zM131 277q14 0 39 23t48 56q16 26 21 50l5.5 22.5t6 26t5.5 16.5q-12 7 -40 7q-52 0 -81 -54q-26 -46 -26 -105q0 -42 22 -42z" />
    <glyph glyph-name="guillemotleft" unicode="&#xab;" horiz-adv-x="685" 
d="M183 190q34 -19 82.5 -56.5t63.5 -56.5q6 -11 -1 -35q-3 -7 -8 -5q-19 20 -109.5 74t-131.5 70q4 17 10 21q70 27 162 75t123 71q5 -2 5 -6q-1 -7 -6 -20t-7 -15q-44 -37 -182 -112q-2 -1 -2.5 -2.5t1.5 -2.5zM404 190q37 -21 90.5 -60.5t67.5 -57.5q3 -5 2 -17.5
t-3 -19.5q-1 -2 -7 -5q-21 21 -116 78t-137 72q8 20 11 23q73 28 168 77.5t129 73.5q3 0 6 -6q-6 -30 -14 -35q-31 -28 -196 -118q-2 -1 -2.5 -2.5t1.5 -2.5z" />
    <glyph glyph-name="logicalnot" unicode="&#xac;" horiz-adv-x="547" 
d="M85 286q-35 0 -35 5q8 39 17 52q11 -2 190 -2h79.5t60 0.5t40 0.5h25.5h10t3.5 -2.5t2.5 -4.5q0 -5 -0.5 -78.5t-0.5 -110.5q0 -65 2 -91q-35 -11 -52 -11q-1 0 -4 3t-3 5q0 38 -1 121.5t-1 88.5q0 24 -12 24h-321z" />
    <glyph glyph-name="uni00AD" unicode="&#xad;" horiz-adv-x="266" 
d="M47 234q128 0 198 5q3 -6 3 -10q-2 -9 -13.5 -27t-15.5 -20q-29 -9 -194 -9q-3 6 -3 10q4 12 13 31.5t12 19.5z" />
    <glyph glyph-name="registered" unicode="&#xae;" horiz-adv-x="291" 
d="M192 612q58 0 96.5 -38.5t38.5 -97.5t-39.5 -97.5t-96.5 -38.5t-95.5 38.5t-38.5 97.5q0 56 40 96t95 40zM192 590q-45 0 -76.5 -33t-31.5 -81q0 -47 31.5 -80t77.5 -33q47 0 77 31t30 82q0 47 -31.5 80.5t-76.5 33.5zM125 413q-2 7 0 11q15 2 18.5 4.5t3.5 9.5v82
q0 7 -3.5 8.5t-17.5 3.5q-1 1 -0.5 7.5t1.5 6.5q4 0 14.5 -0.5t16.5 -0.5q10 0 27 0.5t19 0.5q42 0 42 -36q0 -26 -29 -33q20 -31 30 -41q10 -11 24 -12q1 -2 0 -7t-3 -6q-14 -3 -36 3q-7 1 -15 11q-5 6 -13 20t-11 18q-4 7 -16 7v-31q0 -7 3.5 -9t17.5 -4q2 -2 2 -7t-2 -6
q-4 0 -16 0.5t-19 0.5t-21.5 -0.5t-16.5 -0.5zM177 483q20 0 27 3q11 6 11 19q0 27 -30 27q-8 0 -8 -8v-41z" />
    <glyph glyph-name="macron" unicode="&#xaf;" horiz-adv-x="400" 
d="M167 553q2 0 17 -0.5t28 -0.5q152 0 158 2q-1 -8 -11 -28.5t-13 -21.5q-22 -5 -169 -5l-34 2q2 8 12 29.5t12 22.5z" />
    <glyph glyph-name="degree" unicode="&#xb0;" horiz-adv-x="294" 
d="M148 601q54 0 83.5 -33t29.5 -85q0 -49 -34 -81t-82 -32q-49 0 -82.5 30.5t-33.5 80.5q0 57 34.5 88.5t84.5 31.5zM143 557q-29 0 -49.5 -20t-20.5 -49q0 -37 22 -55.5t52 -18.5q72 0 72 68q0 30 -20.5 52.5t-55.5 22.5z" />
    <glyph glyph-name="plusminus" unicode="&#xb1;" horiz-adv-x="547" 
d="M488 13l-441 -1q-3 0 -3 9q3 29 12 47q5 -1 114 -1l331 -1q1 0 2 -3.5t0 -5.5q0 -7 -5 -25t-10 -19zM504 353q-8 -41 -16 -42h-36.5t-77 -0.5t-72.5 -0.5q-6 0 -6 -7q0 -168 -1 -176q-3 -10 -45 -20q-8 1 -8 3v25v46.5v60.5v68q-73 -1 -195 -1q-3 0 -3 9q3 27 12 48
q7 -2 115 -2h71v70q0 82 -2 110q7 3 27 8t24 5q6 0 6 -35q0 -90 -1 -149q0 -9 6 -9h199q3 -3 3 -11z" />
    <glyph glyph-name="two.k" unicode="&#xb2;" horiz-adv-x="334" 
d="M315 657q0 -71 -89 -148l-88 -76q-4 -3 1 -5q45 -4 119 -2q22 0 59 59q3 0 11 -5t9 -8q-27 -69 -47 -91q-6 -12 -22 -12q-29 0 -98.5 1.5t-97.5 1.5q-26 0 -34 -1q-1 2 -0.5 11t1.5 11q87 65 133 110q74 71 74 133q0 27 -15.5 46t-45.5 19q-43 0 -90 -47q-2 0 -5 4.5
t-5 10t-2 6.5q23 31 60.5 56t76.5 25q42 0 69 -28.5t26 -70.5z" />
    <glyph glyph-name="three.k" unicode="&#xb3;" horiz-adv-x="334" 
d="M225 756q37 0 61.5 -23.5t23.5 -55.5q0 -51 -66 -91q-2 -2 -1 -3q31 -11 53 -34t22 -56q0 -62 -54.5 -102t-121.5 -40q-45 0 -66 14q-12 5 -18 23q-10 28 -7 56q1 3 10 6.5t11 2.5q15 -38 34 -52q23 -17 61 -17q36 0 60 20.5t23 61.5q0 34 -23 55.5t-62 21.5
q-15 0 -26 -2q-1 2 4.5 15t7.5 15q95 20 95 80q0 25 -15 40t-40 15q-36 0 -81 -37q-2 0 -6 9t-3 12q62 66 124 66z" />
    <glyph glyph-name="acute" unicode="&#xb4;" horiz-adv-x="400" 
d="M371 610q7 -7 4 -15q-15 -19 -71 -72t-84 -77q-3 -1 -13 7t-10 11l35 51l36.5 53.5t23.5 32.5q8 4 39.5 7.5t39.5 1.5z" />
    <glyph glyph-name="mu" unicode="&#xb5;" horiz-adv-x="454" 
d="M422 74q-25 -39 -60.5 -64.5t-56.5 -25.5q-38 0 -24 92q5 35 11 62h-5q-49 -84 -93 -119t-71 -35q-26 0 -34 23q-14 -57 -18 -100q-10 -107 91 -123q1 -3 -2 -11.5t-6 -11.5q-26 -22 -88 -22q-56 0 -41 133q7 66 33 223l17.5 106.5l21 124t11.5 55.5q6 7 35 18t41 12
q1 0 3 -3t2 -4q-11 -18 -36 -142.5t-27 -162.5q-2 -46 28 -46q27 0 64 40t72 108q15 26 26 70q23 99 27 109q5 6 31.5 17.5t39.5 13.5q4 -4 4 -11q-11 -23 -23 -66q-32 -131 -44 -235q-5 -35 10 -35q21 0 62 46q4 0 4 -4q0 -20 -5 -32z" />
    <glyph glyph-name="paragraph" unicode="&#xb6;" horiz-adv-x="571" 
d="M588 587q-45 -5 -55 -7q-19 -4 -28.5 -13t-22 -51t-26.5 -131l-24 -168t-26 -178q-10 -67 -29.5 -116.5t-40.5 -76.5t-47 -43t-45.5 -20.5t-40.5 -4.5q-28 0 -50.5 15t-27.5 32q-11 35 -5 78q7 11 11 14q54 -68 129 -68q29 0 48 23t34.5 84.5t31.5 178.5q-49 -21 -96 -22
q-92 13 -141.5 75t-50.5 154q0 119 74.5 184.5t186.5 78.5q123 14 243 14q2 -4 1.5 -16t-3.5 -16zM294 337q-3 -142 83 -166q12 124 39 278q16 89 33 118q-69 -3 -111.5 -65.5t-43.5 -164.5z" />
    <glyph glyph-name="periodcentered" unicode="&#xb7;" horiz-adv-x="193" 
d="M103 244q21 0 33 -13q12 -15 12 -38q0 -26 -19 -44q-19 -16 -42 -16q-21 0 -34 15q-11 13 -11 32q0 31 21 49q16 15 40 15z" />
    <glyph glyph-name="cedilla" unicode="&#xb8;" horiz-adv-x="397" 
d="M177 11h28l-36 -45q-3 -8 0 -9q17 -14 32 -29q18 -18 18 -44q0 -39 -38 -66.5t-66 -27.5q-35 0 -49 27q0 16 4 22q27 -14 56 -14q17 0 28 8t11 23q0 38 -60 62q2 9 3 11q56 69 69 82z" />
    <glyph glyph-name="one.k" unicode="&#xb9;" horiz-adv-x="334" 
d="M279 394q1 -2 -1.5 -12.5t-3.5 -11.5q-10 0 -47.5 1t-57.5 1t-54.5 -1.5t-44.5 -1.5q-1 2 0 12.5t3 12.5l43 6q27 5 31 35q8 40 23 130q14 86 17 118q0 15 -14 19l-42 4q-1 2 1.5 11.5t4.5 11.5q75 6 122 27q7 0 7 -2q-9 -39 -26 -151l-25 -165q-3 -30 17 -37z" />
    <glyph glyph-name="ordmasculine" unicode="&#xba;" horiz-adv-x="306" 
d="M231 515q38 0 55.5 -28.5t17.5 -66.5q0 -56 -24.5 -103.5t-72.5 -75.5q-44 -25 -81 -25q-34 0 -52 28.5t-18 70.5q0 47 18 91.5t54 71.5q21 15 53.5 26t49.5 11zM193 480q-35 0 -55.5 -45.5t-21.5 -91.5t11 -67t39 -21q30 0 53 44t23 102q0 79 -49 79z" />
    <glyph glyph-name="guillemotright" unicode="&#xbb;" horiz-adv-x="685" 
d="M496 195q-33 18 -82 55.5t-65 56.5q-2 5 -1 17t3 18q1 3 7 6q20 -20 111 -75t131 -69q-4 -18 -11 -22q-70 -27 -161.5 -74.5t-123.5 -70.5q-1 0 -3 2t-2 3q5 26 14 35q19 17 80 54t102 58q4 3 1 6zM275 195q-37 20 -90.5 59.5t-68.5 58.5q-5 11 1 36q3 5 8 5
q20 -20 115 -77t137 -73q-4 -18 -11 -22q-73 -29 -168.5 -78.5t-128.5 -73.5q-5 2 -5 6q1 8 6 21.5t8 15.5q42 36 196 116q4 3 1 6z" />
    <glyph glyph-name="onequarter" unicode="&#xbc;" horiz-adv-x="764" 
d="M716 114h-69q-1 0 -3 -4l-18 -119q-38 0 -66 -6l22 125q2 3 -2 3h-165q0 19 7 24q36 42 121 133.5t103 108.5q3 2 20.5 4.5t20.5 1.5l-37 -225q0 -4 3 -4l75 2q-11 -33 -12 -44zM278 246q1 -2 -1.5 -12.5t-3.5 -11.5q-10 0 -47.5 1t-57.5 1t-54.5 -1.5t-44.5 -1.5
q-1 2 0 12.5t3 12.5l43 6q27 5 31 35q8 40 23 130q14 86 17 118q0 15 -14 19l-42 4q-1 2 1.5 11.5t4.5 11.5q75 6 122 27q7 0 7 -2q-9 -39 -26 -151l-25 -165q-3 -30 17 -37zM638 631q0 1 15 0t18 -2q1 -1 1 -6q-7 -9 -244 -332t-257 -347q0 -1 -3 -2.5t-4 -0.5
q-15 18 -15 27l257.5 350.5t231.5 312.5zM585 155q4 0 4 3l28 153l-3 1q-15 -15 -69 -76.5t-66 -76.5v-5z" />
    <glyph glyph-name="onehalf" unicode="&#xbd;" horiz-adv-x="764" 
d="M717 285q0 -71 -89 -148l-88 -76q-4 -3 1 -5q45 -4 119 -2q22 0 59 59q3 0 11 -5t9 -8q-27 -69 -47 -91q-6 -12 -22 -12q-29 0 -98.5 1.5t-97.5 1.5q-26 0 -34 -1q-1 2 -0.5 11t1.5 11q87 65 133 110q74 71 74 133q0 27 -15.5 46t-45.5 19q-43 0 -90 -47q-2 0 -5 4.5
t-5 10t-2 6.5q23 31 60.5 56t76.5 25q42 0 69 -28.5t26 -70.5zM272 246q1 -2 -1.5 -12.5t-3.5 -11.5q-10 0 -47.5 1t-57.5 1t-54.5 -1.5t-44.5 -1.5q-1 2 0 12.5t3 12.5l43 6q27 5 31 35q8 40 23 130q14 86 17 118q0 15 -14 19l-42 4q-1 2 1.5 11.5t4.5 11.5q75 6 122 27
q7 0 7 -2q-9 -39 -26 -151l-25 -165q-3 -30 17 -37zM620 631q0 1 15 0t18 -2q1 -1 1 -6q-7 -9 -244 -332t-257 -347q0 -1 -3 -2.5t-4 -0.5q-15 18 -15 27l257.5 350.5t231.5 312.5z" />
    <glyph glyph-name="threequarters" unicode="&#xbe;" horiz-adv-x="764" 
d="M726 114h-69q-1 0 -3 -4l-18 -119q-38 0 -66 -6l22 125q2 3 -2 3h-165q0 19 7 24q36 42 121 133.5t103 108.5q3 2 20.5 4.5t20.5 1.5l-37 -225q0 -4 3 -4l75 2q-11 -33 -12 -44zM240 608q37 0 61.5 -23.5t23.5 -55.5q0 -51 -66 -91q-2 -2 -1 -3q31 -11 53 -34t22 -56
q0 -62 -54.5 -102t-121.5 -40q-45 0 -66 14q-12 5 -18 23q-9 28 -7 56q1 3 10 6.5t11 2.5q15 -38 34 -52q23 -17 61 -17q36 0 60 20.5t23 61.5q0 34 -23 55.5t-62 21.5q-15 0 -26 -2q-1 2 4.5 15t7.5 15q95 20 95 80q0 25 -15 40t-40 15q-36 0 -81 -37q-2 0 -6 9t-3 12
q62 66 124 66zM658 631q0 1 15 0t18 -2q1 -1 1 -6q-7 -9 -244 -332t-257 -347q0 -1 -3 -2.5t-4 -0.5q-15 18 -15 27l257.5 350.5t231.5 312.5zM595 155q4 0 4 3l28 153l-3 1q-15 -15 -69 -76.5t-66 -76.5v-5z" />
    <glyph glyph-name="questiondown" unicode="&#xbf;" horiz-adv-x="334" 
d="M161 114q2 20 -29 53q-3 6 4 13q13 13 42 21q10 2 22 -1q19 -9 29.5 -26.5t8.5 -36.5q0 -15 -15 -30q-8 -8 -62.5 -48.5t-67.5 -51.5q-29 -27 -29 -53q0 -33 30 -62.5t83 -38.5q17 -3 32 -3q12 -4 10 -15q-2 -20 -30 -46q-12 -10 -34 -10q-64 0 -110 44q-46 42 -46 105
q0 39 27 68q12 12 34 29l49.5 37l35.5 26q15 10 16 26zM185 300q-20 0 -33 13q-12 13 -12 37q0 26 19 44q19 15 42 15q22 0 34 -15q10 -11 10 -31q0 -28 -20 -48q-18 -15 -40 -15z" />
    <glyph glyph-name="Agrave" unicode="&#xc0;" horiz-adv-x="599" 
d="M-38 25q56 8 76.5 22t53.5 70q47 82 125.5 232.5t106.5 208.5q17 32 25 59q16 -2 29 -2t29 2q0 -14 7 -54q48 -307 79 -456q10 -50 24.5 -62t69.5 -19q3 -3 2 -15.5t-5 -13.5q-8 0 -48 1.5t-66 1.5q-25 0 -72 -1.5t-53 -1.5q-2 3 -1.5 15t3.5 14q45 7 54 10q18 7 15 26
q-7 69 -28 174q0 6 -6 6q-15 1 -94 1q-65 0 -74 -1q-6 0 -10 -7q-66 -123 -82 -165q-11 -29 19 -36q27 -5 49 -8q2 -2 1 -14t-4 -15q-5 0 -46.5 1.5t-76.5 1.5q-32 0 -66 -1.5t-37 -1.5q-2 3 -2 14.5t3 13.5zM339 511l-51 -102.5t-56 -115.5q0 -6 2 -7q18 -2 80 -2
q50 0 61 1q2 0 4 2.5t1 5.5q-24 152 -36 219h-2q-2 -1 -3 -1zM259 752q-1 2 -1 5.5t2 5.5q7 7 34 16t38 9q20 -22 82 -128q1 -3 -8.5 -10.5t-14.5 -7.5q-4 0 -63 49.5t-69 60.5z" />
    <glyph glyph-name="Aacute" unicode="&#xc1;" horiz-adv-x="599" 
d="M-38 25q56 8 76.5 22t53.5 70q47 82 125.5 232.5t106.5 208.5q17 32 25 59q16 -2 29 -2t29 2q0 -14 7 -54q48 -307 79 -456q10 -50 24.5 -62t69.5 -19q3 -3 2 -15.5t-5 -13.5q-8 0 -48 1.5t-66 1.5q-25 0 -72 -1.5t-53 -1.5q-2 3 -1.5 15t3.5 14q45 7 54 10q18 7 15 26
q-7 69 -28 174q0 6 -6 6q-15 1 -94 1q-65 0 -74 -1q-6 0 -10 -7q-66 -123 -82 -165q-11 -29 19 -36q27 -5 49 -8q2 -2 1 -14t-4 -15q-5 0 -46.5 1.5t-76.5 1.5q-32 0 -66 -1.5t-37 -1.5q-2 3 -2 14.5t3 13.5zM339 511l-51 -102.5t-56 -115.5q0 -6 2 -7q18 -2 80 -2
q50 0 61 1q2 0 4 2.5t1 5.5q-24 152 -36 219h-2q-2 -1 -3 -1zM539 746q3 -4 0 -12q-14 -10 -94.5 -49t-86.5 -39q-3 0 -9.5 10.5t-4.5 12.5q117 101 138 114q11 0 30.5 -13.5t26.5 -23.5z" />
    <glyph glyph-name="Acircumflex" unicode="&#xc2;" horiz-adv-x="599" 
d="M-38 25q56 8 76.5 22t53.5 70q47 82 125.5 232.5t106.5 208.5q17 32 25 59q16 -2 29 -2t29 2q0 -14 7 -54q48 -307 79 -456q10 -50 24.5 -62t69.5 -19q3 -3 2 -15.5t-5 -13.5q-8 0 -48 1.5t-66 1.5q-25 0 -72 -1.5t-53 -1.5q-2 3 -1.5 15t3.5 14q45 7 54 10q18 7 15 26
q-7 69 -28 174q0 6 -6 6q-15 1 -94 1q-65 0 -74 -1q-6 0 -10 -7q-66 -123 -82 -165q-11 -29 19 -36q27 -5 49 -8q2 -2 1 -14t-4 -15q-5 0 -46.5 1.5t-76.5 1.5q-32 0 -66 -1.5t-37 -1.5q-2 3 -2 14.5t3 13.5zM339 511l-51 -102.5t-56 -115.5q0 -6 2 -7q18 -2 80 -2
q50 0 61 1q2 0 4 2.5t1 5.5q-24 152 -36 219h-2q-2 -1 -3 -1zM389 758q12 6 21 6q11 -13 50.5 -52.5t54.5 -51.5q0 -5 -6.5 -14t-10.5 -9t-47 22t-56 30q-5 2 -11 0q-16 -8 -69.5 -30t-58.5 -22q-4 0 -8.5 9.5t-2.5 13.5q107 65 144 98z" />
    <glyph glyph-name="Atilde" unicode="&#xc3;" horiz-adv-x="599" 
d="M-38 25q56 8 76.5 22t53.5 70q47 82 125.5 232.5t106.5 208.5q17 32 25 59q16 -2 29 -2t29 2q0 -14 7 -54q48 -307 79 -456q10 -50 24.5 -62t69.5 -19q3 -3 2 -15.5t-5 -13.5q-8 0 -48 1.5t-66 1.5q-25 0 -72 -1.5t-53 -1.5q-2 3 -1.5 15t3.5 14q45 7 54 10q18 7 15 26
q-7 69 -28 174q0 6 -6 6q-15 1 -94 1q-65 0 -74 -1q-6 0 -10 -7q-66 -123 -82 -165q-11 -29 19 -36q27 -5 49 -8q2 -2 1 -14t-4 -15q-5 0 -46.5 1.5t-76.5 1.5q-32 0 -66 -1.5t-37 -1.5q-2 3 -2 14.5t3 13.5zM339 511l-51 -102.5t-56 -115.5q0 -6 2 -7q18 -2 80 -2
q50 0 61 1q2 0 4 2.5t1 5.5q-24 152 -36 219h-2q-2 -1 -3 -1zM450 719q37 0 73 32q2 2 4 -6q5 -15 3 -21q-15 -20 -50 -40.5t-62 -20.5q-17 0 -65 17q-26 7 -35 7q-26 0 -69 -30l-4 5q-5 19 -1 22q13 15 47.5 36.5t53.5 21.5q18 0 59 -13q32 -10 46 -10z" />
    <glyph glyph-name="Adieresis" unicode="&#xc4;" horiz-adv-x="599" 
d="M-38 25q56 8 76.5 22t53.5 70q47 82 125.5 232.5t106.5 208.5q17 32 25 59q16 -2 29 -2t29 2q0 -14 7 -54q48 -307 79 -456q10 -50 24.5 -62t69.5 -19q3 -3 2 -15.5t-5 -13.5q-8 0 -48 1.5t-66 1.5q-25 0 -72 -1.5t-53 -1.5q-2 3 -1.5 15t3.5 14q45 7 54 10q18 7 15 26
q-7 69 -28 174q0 6 -6 6q-15 1 -94 1q-65 0 -74 -1q-6 0 -10 -7q-66 -123 -82 -165q-11 -29 19 -36q27 -5 49 -8q2 -2 1 -14t-4 -15q-5 0 -46.5 1.5t-76.5 1.5q-32 0 -66 -1.5t-37 -1.5q-2 3 -2 14.5t3 13.5zM339 511l-51 -102.5t-56 -115.5q0 -6 2 -7q18 -2 80 -2
q50 0 61 1q2 0 4 2.5t1 5.5q-24 152 -36 219h-2q-2 -1 -3 -1zM312 738q22 0 28 -9q9 -11 4 -30q-5 -27 -25 -40q-4 -2 -20.5 -3.5t-20.5 1.5q-18 10 -18 38q0 20 8 28q17 15 44 15zM481 738q23 0 28 -8q7 -10 4 -31q-5 -29 -25 -41q-5 -2 -20.5 -3t-20.5 2q-19 9 -19 40
q2 18 10 26q15 15 43 15z" />
    <glyph glyph-name="Aring" unicode="&#xc5;" horiz-adv-x="599" 
d="M-38 25q56 8 76.5 22t53.5 70q47 82 125.5 232.5t106.5 208.5q17 32 25 59q16 -2 29 -2t29 2q0 -14 7 -54q48 -307 79 -456q10 -50 24.5 -62t69.5 -19q3 -3 2 -15.5t-5 -13.5q-8 0 -48 1.5t-66 1.5q-25 0 -72 -1.5t-53 -1.5q-2 3 -1.5 15t3.5 14q45 7 54 10q18 7 15 26
q-7 69 -28 174q0 6 -6 6q-15 1 -94 1q-65 0 -74 -1q-6 0 -10 -7q-66 -123 -82 -165q-11 -29 19 -36q27 -5 49 -8q2 -2 1 -14t-4 -15q-5 0 -46.5 1.5t-76.5 1.5q-32 0 -66 -1.5t-37 -1.5q-2 3 -2 14.5t3 13.5zM339 511l-51 -102.5t-56 -115.5q0 -6 2 -7q18 -2 80 -2
q50 0 61 1q2 0 4 2.5t1 5.5q-24 152 -36 219h-2q-2 -1 -3 -1zM397 778q34 0 52 -19.5t16 -49.5q-3 -33 -27 -53t-58 -20q-28 0 -49.5 19t-18.5 54q3 32 26 50.5t59 18.5zM390 742q-42 0 -45 -33q-1 -16 11 -26.5t31 -10.5q18 0 31 8.5t14 23.5q2 18 -8 28t-34 10z" />
    <glyph glyph-name="AE" unicode="&#xc6;" horiz-adv-x="820" 
d="M317 590q0 22 6 29q7 0 70.5 -2t95.5 -2h205q65 0 107 4q1 -1 3 -4l1 -3q-12 -27 -38 -144q-4 -2 -16.5 -3t-15.5 2q3 33 -2 76q-2 18 -11.5 25t-32.5 9q-14 1 -74 1t-71 -1q-11 -2 -13 -13q-22 -143 -34 -243q2 -7 5 -7q96 0 132 2q29 3 43 34q6 10 18 39q5 2 17 1.5
t14 -4.5q-17 -65 -22 -95q0 -2 -13 -95q-5 -3 -17 -3t-15 2q0 9 -3 42q-7 32 -29 33q-27 2 -132 2q-4 0 -6 -7q-17 -132 -20 -176q-3 -16 2.5 -28t13.5 -16q19 -6 149 -6q46 0 77 32q22 24 62 88q4 1 14 -4.5t11 -9.5q-6 -23 -23.5 -65.5t-32.5 -65.5q-11 -16 -51 -16
q-110 2 -270 2q-34 0 -85.5 -1.5t-68.5 -1.5q-2 2 -1 14t3 15q63 7 78 11q18 4 26 16t13 39q1 10 5 37l10 67l11 72q0 3 -1 3q-8 1 -158 1q-5 0 -14 -9l-43 -63l-56 -83.5t-27 -46.5q-6 -13 -3 -22.5t21 -13.5q7 -2 46 -8q1 -2 -1 -13.5t-4 -15.5q-7 0 -51.5 1.5t-73.5 1.5
q-32 0 -67.5 -1.5t-38.5 -1.5q-1 3 0 14.5t3 14.5q57 9 80 22.5t61 66.5l318 455q0 6 -3 8q-12 2 -43.5 6t-39.5 6zM455 566q-2 2 -8 2q-14 -22 -52 -77l-69 -102l-44 -68q0 -6 2 -7q18 -1 128 -1q8 0 8 8q32 197 35 245z" />
    <glyph glyph-name="Ccedilla" unicode="&#xc7;" horiz-adv-x="620" 
d="M563 464q-1 59 -9 81t-33 35q-36 18 -103 18q-113 0 -183.5 -91t-68.5 -227q1 -117 59.5 -183.5t163.5 -66.5q45 0 75 15q55 23 108 94q5 0 12.5 -8.5t6.5 -13.5q-18 -34 -48.5 -66.5t-55.5 -43.5q-43 -21 -117 -24l-17 -23q-1 -1 -0.5 -4t1.5 -4q20 -15 34 -29
q19 -19 19 -46q0 -41 -40.5 -69.5t-71.5 -28.5q-37 0 -51 26q-3 18 4 25q28 -14 60 -14q18 0 30.5 8.5t12.5 23.5q0 38 -66 64q1 9 2 11q30 34 50 59q-127 3 -195.5 78.5t-67.5 201.5q0 103 49 191.5t147 139.5q76 40 182 40q43 0 102 -9q50 -10 69 -12q-22 -77 -29 -146
q-4 -4 -16 -5t-15 3z" />
    <glyph glyph-name="Egrave" unicode="&#xc8;" horiz-adv-x="544" 
d="M-7 26q46 4 67 10q18 4 26.5 15.5t14.5 38.5q8 34 38.5 222.5t32.5 216.5q2 27 -1.5 37t-19.5 14q-12 4 -58 10q-3 3 -0.5 14.5t5.5 13.5q6 0 54 -1.5t79 -1.5h185q90 0 113 6q3 -3 3 -7q-14 -39 -31 -137q-3 -3 -16.5 -3t-15.5 2q0 39 -5 64q-3 20 -13 27.5t-35 9.5
q-22 2 -72 2t-70 -2q-10 -3 -15 -17q-13 -74 -36 -221q0 -6 4 -6q106 0 140 1q26 1 42 33q11 25 16 39q3 3 16.5 3t16.5 -4q-12 -45 -21 -94q-3 -18 -8.5 -57.5t-5.5 -41.5q-3 -3 -15.5 -2.5t-14.5 2.5q0 17 -4 43q-3 32 -28 35q-31 3 -141 3q-5 0 -7 -7q-25 -163 -31 -215
q-2 -24 14 -29q18 -4 160 -4q46 -1 76 30q32 35 60 85q3 1 14 -3.5t12 -8.5q-16 -62 -55 -125q-13 -19 -39 -19q-39 0 -128 1.5t-163 1.5q-39 0 -86 -1.5t-57 -1.5q-3 3 -2 14.5t5 14.5zM233 761q-1 2 -1 5.5t2 5.5q7 7 34 16t38 9q20 -22 82 -128q1 -3 -8.5 -10.5
t-14.5 -7.5q-4 0 -63 49.5t-69 60.5z" />
    <glyph glyph-name="Eacute" unicode="&#xc9;" horiz-adv-x="544" 
d="M-7 26q46 4 67 10q18 4 26.5 15.5t14.5 38.5q8 34 38.5 222.5t32.5 216.5q2 27 -1.5 37t-19.5 14q-12 4 -58 10q-3 3 -0.5 14.5t5.5 13.5q6 0 54 -1.5t79 -1.5h185q90 0 113 6q3 -3 3 -7q-14 -39 -31 -137q-3 -3 -16.5 -3t-15.5 2q0 39 -5 64q-3 20 -13 27.5t-35 9.5
q-22 2 -72 2t-70 -2q-10 -3 -15 -17q-13 -74 -36 -221q0 -6 4 -6q106 0 140 1q26 1 42 33q11 25 16 39q3 3 16.5 3t16.5 -4q-12 -45 -21 -94q-3 -18 -8.5 -57.5t-5.5 -41.5q-3 -3 -15.5 -2.5t-14.5 2.5q0 17 -4 43q-3 32 -28 35q-31 3 -141 3q-5 0 -7 -7q-25 -163 -31 -215
q-2 -24 14 -29q18 -4 160 -4q46 -1 76 30q32 35 60 85q3 1 14 -3.5t12 -8.5q-16 -62 -55 -125q-13 -19 -39 -19q-39 0 -128 1.5t-163 1.5q-39 0 -86 -1.5t-57 -1.5q-3 3 -2 14.5t5 14.5zM494 752q3 -4 0 -12q-14 -10 -94.5 -49t-86.5 -39q-3 0 -9.5 10.5t-4.5 12.5
q117 101 138 114q11 0 30.5 -13.5t26.5 -23.5z" />
    <glyph glyph-name="Ecircumflex" unicode="&#xca;" horiz-adv-x="544" 
d="M-7 26q46 4 67 10q18 4 26.5 15.5t14.5 38.5q8 34 38.5 222.5t32.5 216.5q2 27 -1.5 37t-19.5 14q-12 4 -58 10q-3 3 -0.5 14.5t5.5 13.5q6 0 54 -1.5t79 -1.5h185q90 0 113 6q3 -3 3 -7q-14 -39 -31 -137q-3 -3 -16.5 -3t-15.5 2q0 39 -5 64q-3 20 -13 27.5t-35 9.5
q-22 2 -72 2t-70 -2q-10 -3 -15 -17q-13 -74 -36 -221q0 -6 4 -6q106 0 140 1q26 1 42 33q11 25 16 39q3 3 16.5 3t16.5 -4q-12 -45 -21 -94q-3 -18 -8.5 -57.5t-5.5 -41.5q-3 -3 -15.5 -2.5t-14.5 2.5q0 17 -4 43q-3 32 -28 35q-31 3 -141 3q-5 0 -7 -7q-25 -163 -31 -215
q-2 -24 14 -29q18 -4 160 -4q46 -1 76 30q32 35 60 85q3 1 14 -3.5t12 -8.5q-16 -62 -55 -125q-13 -19 -39 -19q-39 0 -128 1.5t-163 1.5q-39 0 -86 -1.5t-57 -1.5q-3 3 -2 14.5t5 14.5zM356 776q12 6 21 6q11 -13 50.5 -52.5t54.5 -51.5q0 -5 -6.5 -14t-10.5 -9t-47 22
t-56 30q-5 2 -11 0q-16 -8 -69.5 -30t-58.5 -22q-4 0 -8.5 9.5t-2.5 13.5q107 65 144 98z" />
    <glyph glyph-name="Edieresis" unicode="&#xcb;" horiz-adv-x="544" 
d="M-7 26q46 4 67 10q18 4 26.5 15.5t14.5 38.5q8 34 38.5 222.5t32.5 216.5q2 27 -1.5 37t-19.5 14q-12 4 -58 10q-3 3 -0.5 14.5t5.5 13.5q6 0 54 -1.5t79 -1.5h185q90 0 113 6q3 -3 3 -7q-14 -39 -31 -137q-3 -3 -16.5 -3t-15.5 2q0 39 -5 64q-3 20 -13 27.5t-35 9.5
q-22 2 -72 2t-70 -2q-10 -3 -15 -17q-13 -74 -36 -221q0 -6 4 -6q106 0 140 1q26 1 42 33q11 25 16 39q3 3 16.5 3t16.5 -4q-12 -45 -21 -94q-3 -18 -8.5 -57.5t-5.5 -41.5q-3 -3 -15.5 -2.5t-14.5 2.5q0 17 -4 43q-3 32 -28 35q-31 3 -141 3q-5 0 -7 -7q-25 -163 -31 -215
q-2 -24 14 -29q18 -4 160 -4q46 -1 76 30q32 35 60 85q3 1 14 -3.5t12 -8.5q-16 -62 -55 -125q-13 -19 -39 -19q-39 0 -128 1.5t-163 1.5q-39 0 -86 -1.5t-57 -1.5q-3 3 -2 14.5t5 14.5zM274 754q22 0 28 -9q9 -11 4 -30q-5 -27 -25 -40q-4 -2 -20.5 -3.5t-20.5 1.5
q-18 10 -18 38q0 20 8 28q17 15 44 15zM443 754q23 0 28 -8q7 -10 4 -31q-5 -29 -25 -41q-5 -2 -20.5 -3t-20.5 2q-19 9 -19 40q2 18 10 26q15 15 43 15z" />
    <glyph glyph-name="Igrave" unicode="&#xcc;" horiz-adv-x="318" 
d="M95 590q-2 4 -1 14.5t5 13.5q5 0 49.5 -1.5t74.5 -1.5q28 0 72.5 1.5t52.5 1.5q3 -4 1.5 -14.5t-4.5 -13.5q-10 -2 -28 -4t-22 -3q-18 -4 -25.5 -13.5t-13.5 -34.5q-9 -42 -37 -216q-31 -207 -34 -230q-3 -25 1.5 -37.5t23.5 -17.5q13 -3 57 -9q2 -4 0.5 -14.5
t-5.5 -13.5q-10 0 -56.5 1.5t-72.5 1.5q-30 0 -79 -1.5t-56 -1.5q-2 3 -1 14t4 14q33 3 55 8q34 8 41 42q15 64 46 264q22 134 30 198q2 22 -1.5 31t-18.5 13q-3 1 -58 9zM117 763q-1 2 -1 5.5t2 5.5q7 7 34 16t38 9q20 -22 82 -128q1 -3 -8.5 -10.5t-14.5 -7.5
q-4 0 -63 49.5t-69 60.5z" />
    <glyph glyph-name="Iacute" unicode="&#xcd;" horiz-adv-x="318" 
d="M95 590q-2 4 -1 14.5t5 13.5q5 0 49.5 -1.5t74.5 -1.5q28 0 72.5 1.5t52.5 1.5q3 -4 1.5 -14.5t-4.5 -13.5q-10 -2 -28 -4t-22 -3q-18 -4 -25.5 -13.5t-13.5 -34.5q-9 -42 -37 -216q-31 -207 -34 -230q-3 -25 1.5 -37.5t23.5 -17.5q13 -3 57 -9q2 -4 0.5 -14.5
t-5.5 -13.5q-10 0 -56.5 1.5t-72.5 1.5q-30 0 -79 -1.5t-56 -1.5q-2 3 -1 14t4 14q33 3 55 8q34 8 41 42q15 64 46 264q22 134 30 198q2 22 -1.5 31t-18.5 13q-3 1 -58 9zM390 750q3 -4 0 -12q-14 -10 -94.5 -49t-86.5 -39q-3 0 -9.5 10.5t-4.5 12.5q117 101 138 114
q11 0 30.5 -13.5t26.5 -23.5z" />
    <glyph glyph-name="Icircumflex" unicode="&#xce;" horiz-adv-x="318" 
d="M95 590q-2 4 -1 14.5t5 13.5q5 0 49.5 -1.5t74.5 -1.5q28 0 72.5 1.5t52.5 1.5q3 -4 1.5 -14.5t-4.5 -13.5q-10 -2 -28 -4t-22 -3q-18 -4 -25.5 -13.5t-13.5 -34.5q-9 -42 -37 -216q-31 -207 -34 -230q-3 -25 1.5 -37.5t23.5 -17.5q13 -3 57 -9q2 -4 0.5 -14.5
t-5.5 -13.5q-10 0 -56.5 1.5t-72.5 1.5q-30 0 -79 -1.5t-56 -1.5q-2 3 -1 14t4 14q33 3 55 8q34 8 41 42q15 64 46 264q22 134 30 198q2 22 -1.5 31t-18.5 13q-3 1 -58 9zM243 778q12 6 21 6q11 -13 50.5 -52.5t54.5 -51.5q0 -5 -6.5 -14t-10.5 -9t-47 22t-56 30q-5 2 -11 0
q-16 -8 -69.5 -30t-58.5 -22q-4 0 -8.5 9.5t-2.5 13.5q107 65 144 98z" />
    <glyph glyph-name="Idieresis" unicode="&#xcf;" horiz-adv-x="318" 
d="M95 590q-2 4 -1 14.5t5 13.5q5 0 49.5 -1.5t74.5 -1.5q28 0 72.5 1.5t52.5 1.5q3 -4 1.5 -14.5t-4.5 -13.5q-10 -2 -28 -4t-22 -3q-18 -4 -25.5 -13.5t-13.5 -34.5q-9 -42 -37 -216q-31 -207 -34 -230q-3 -25 1.5 -37.5t23.5 -17.5q13 -3 57 -9q2 -4 0.5 -14.5
t-5.5 -13.5q-10 0 -56.5 1.5t-72.5 1.5q-30 0 -79 -1.5t-56 -1.5q-2 3 -1 14t4 14q33 3 55 8q34 8 41 42q15 64 46 264q22 134 30 198q2 22 -1.5 31t-18.5 13q-3 1 -58 9zM167 754q22 0 28 -9q9 -11 4 -30q-5 -27 -25 -40q-4 -2 -20.5 -3.5t-20.5 1.5q-18 10 -18 38
q0 20 8 28q17 15 44 15zM336 754q23 0 28 -8q7 -10 4 -31q-5 -29 -25 -41q-5 -2 -20.5 -3t-20.5 2q-19 9 -19 40q2 18 10 26q15 15 43 15z" />
    <glyph glyph-name="Eth" unicode="&#xd0;" horiz-adv-x="690" 
d="M101 589q-2 5 0 16.5t6 12.5q7 0 58 -1.5t62 -1.5q28 0 56.5 0.5t47 1t40.5 0.5q145 0 219 -79q69 -78 69 -193q1 -85 -34 -156.5t-96 -114.5q-99 -83 -272 -83q-36 0 -127.5 3.5t-124.5 2.5q-3 3 -2 14.5t5 14.5q44 4 61 8q17 3 26 14t14 36q8 39 39 217q-16 0 -47 -1
t-39 -1q5 31 13 37h78q23 129 29 195q2 15 1.5 25t-6 15.5t-18.5 8.5q-26 6 -58 9zM327 582q-16 0 -42 -4q-11 -4 -14 -20q-8 -36 -39 -222h68t64.5 0.5t34.5 0.5q2 -9 -10 -37q-8 0 -71 0.5t-91 0.5q-25 -147 -34 -223q-3 -23 13 -32q28 -18 108 -18q90 0 152 52
q48 39 74.5 106t26.5 145q0 139 -80 202q-60 49 -160 49z" />
    <glyph glyph-name="Ntilde" unicode="&#xd1;" horiz-adv-x="705" 
d="M80 590q-1 4 1.5 15t4.5 13q19 0 64.5 -1.5t65.5 -1.5q26 0 32 1q9 -24 28 -55q244 -418 264 -449q2 0 4 2q54 331 61 410q2 24 -4 36.5t-27 18.5q-8 2 -61 11q-2 4 -0.5 16t5.5 13q8 0 52.5 -2t74.5 -2q20 0 58.5 2t43.5 2q2 -3 0.5 -15t-4.5 -14q-34 -6 -42 -9
q-33 -9 -43 -54q-14 -64 -69 -398q-9 -55 -20 -136q-1 0 -13 1t-21 1q-11 0 -21 -1l-11 -1q-32 62 -134 242l-153 265q-1 1 -3 0l-2 -1q-43 -261 -60 -405q-3 -28 3.5 -40t25.5 -17q30 -8 61 -12q2 -3 0 -14.5t-4 -14.5q-15 0 -55 2t-68 2q-25 0 -69.5 -2t-55.5 -2
q-2 4 -0.5 15t4.5 14q40 6 60 11q19 5 29 18t16 40q23 92 76 429q2 34 -17 47q-23 14 -77 20zM497 725q37 0 73 32q2 2 4 -6q5 -15 3 -21q-15 -20 -50 -40.5t-62 -20.5q-17 0 -65 17q-26 7 -35 7q-26 0 -69 -30l-4 5q-5 19 -1 22q13 15 47.5 36.5t53.5 21.5q18 0 59 -13
q32 -10 46 -10z" />
    <glyph glyph-name="Ograve" unicode="&#xd2;" horiz-adv-x="691" 
d="M305 -18q-117 0 -176.5 70.5t-59.5 184.5q0 75 26 148t75 126q49 58 116 90.5t140 32.5q111 0 169.5 -71.5t59.5 -182.5q2 -162 -89 -271q-104 -127 -261 -127zM338 22q61 0 106 34q63 46 92 133.5t29 182.5q-2 100 -44 161t-130 61q-72 0 -126 -52.5t-80 -131
t-26 -165.5q0 -102 45.5 -162.5t133.5 -60.5zM314 776q-1 2 -1 5.5t2 5.5q7 7 34 16t38 9q20 -22 82 -128q1 -3 -8.5 -10.5t-14.5 -7.5q-4 0 -63 49.5t-69 60.5z" />
    <glyph glyph-name="Oacute" unicode="&#xd3;" horiz-adv-x="691" 
d="M305 -18q-117 0 -176.5 70.5t-59.5 184.5q0 75 26 148t75 126q49 58 116 90.5t140 32.5q111 0 169.5 -71.5t59.5 -182.5q2 -162 -89 -271q-104 -127 -261 -127zM338 22q61 0 106 34q63 46 92 133.5t29 182.5q-2 100 -44 161t-130 61q-72 0 -126 -52.5t-80 -131
t-26 -165.5q0 -102 45.5 -162.5t133.5 -60.5zM564 771q3 -4 0 -12q-14 -10 -94.5 -49t-86.5 -39q-3 0 -9.5 10.5t-4.5 12.5q117 101 138 114q11 0 30.5 -13.5t26.5 -23.5z" />
    <glyph glyph-name="Ocircumflex" unicode="&#xd4;" horiz-adv-x="691" 
d="M305 -18q-117 0 -176.5 70.5t-59.5 184.5q0 75 26 148t75 126q49 58 116 90.5t140 32.5q111 0 169.5 -71.5t59.5 -182.5q2 -162 -89 -271q-104 -127 -261 -127zM338 22q61 0 106 34q63 46 92 133.5t29 182.5q-2 100 -44 161t-130 61q-72 0 -126 -52.5t-80 -131
t-26 -165.5q0 -102 45.5 -162.5t133.5 -60.5zM431 785q12 6 21 6q11 -13 50.5 -52.5t54.5 -51.5q0 -5 -6.5 -14t-10.5 -9t-47 22t-56 30q-5 2 -11 0q-16 -8 -69.5 -30t-58.5 -22q-4 0 -8.5 9.5t-2.5 13.5q107 65 144 98z" />
    <glyph glyph-name="Otilde" unicode="&#xd5;" horiz-adv-x="691" 
d="M305 -18q-117 0 -176.5 70.5t-59.5 184.5q0 75 26 148t75 126q49 58 116 90.5t140 32.5q111 0 169.5 -71.5t59.5 -182.5q2 -162 -89 -271q-104 -127 -261 -127zM338 22q61 0 106 34q63 46 92 133.5t29 182.5q-2 100 -44 161t-130 61q-72 0 -126 -52.5t-80 -131
t-26 -165.5q0 -102 45.5 -162.5t133.5 -60.5zM497 741q37 0 73 32q2 2 4 -6q5 -15 3 -21q-15 -20 -50 -40.5t-62 -20.5q-17 0 -65 17q-26 7 -35 7q-26 0 -69 -30l-4 5q-5 19 -1 22q13 15 47.5 36.5t53.5 21.5q18 0 59 -13q32 -10 46 -10z" />
    <glyph glyph-name="Odieresis" unicode="&#xd6;" horiz-adv-x="691" 
d="M305 -18q-117 0 -176.5 70.5t-59.5 184.5q0 75 26 148t75 126q49 58 116 90.5t140 32.5q111 0 169.5 -71.5t59.5 -182.5q2 -162 -89 -271q-104 -127 -261 -127zM338 22q61 0 106 34q63 46 92 133.5t29 182.5q-2 100 -44 161t-130 61q-72 0 -126 -52.5t-80 -131
t-26 -165.5q0 -102 45.5 -162.5t133.5 -60.5zM354 761q22 0 28 -9q9 -11 4 -30q-5 -27 -25 -40q-4 -2 -20.5 -3.5t-20.5 1.5q-18 10 -18 38q0 20 8 28q17 15 44 15zM523 761q23 0 28 -8q7 -10 4 -31q-5 -29 -25 -41q-5 -2 -20.5 -3t-20.5 2q-19 10 -19 40q2 18 10 26
q15 15 43 15z" />
    <glyph glyph-name="multiply" unicode="&#xd7;" horiz-adv-x="547" 
d="M433 446q1 4 21.5 7.5t40.5 4.5q2 -1 2.5 -5t-0.5 -6q-20 -27 -47.5 -59.5l-45.5 -52.5l-52.5 -58l-42.5 -47v-8q32 -38 95.5 -104.5t88.5 -87.5q0 -10 -4 -11q-9 -2 -39 1.5t-39 10.5q-37 31 -143 148q-4 4 -7 -1q-127 -139 -140 -148q-21 -14 -67 -14q-2 1 -3.5 4.5
t-0.5 5.5q13 11 84 87t93 102q3 6 0 9q-119 131 -171 195q0 5 12.5 23.5t17.5 23.5q7 3 10 0q5 -9 74.5 -90.5t102.5 -114.5q138 154 160 185z" />
    <glyph glyph-name="Oslash" unicode="&#xd8;" horiz-adv-x="691" 
d="M561 592v1l35 47q2 2 13 1t18 -3l1 -6q-2 -4 -42 -61q68 -72 70 -189q0 -170 -87 -274q-103 -126 -263 -126q-73 0 -131 34l-40 -51q-1 -1 -13.5 2t-17.5 6l-1 6l45 58q-79 70 -79 197q0 76 26 150.5t75 127.5q48 57 115 89.5t139 32.5q80 0 137 -42zM519 536
q-42 58 -127 58q-71 0 -126.5 -55t-82 -135t-26.5 -165q0 -89 38 -140zM539 506h-1l-323 -437q46 -46 122 -46q60 0 104 32q64 48 95.5 135.5t31.5 182.5q0 79 -29 133z" />
    <glyph glyph-name="Ugrave" unicode="&#xd9;" horiz-adv-x="685" 
d="M83 589q-2 5 0 16t6 13q3 0 50 -1.5t75 -1.5t71.5 1.5t50.5 1.5q3 -3 2 -13.5t-4 -15.5q-32 -5 -47 -8q-37 -8 -45 -52q-37 -214 -45 -290q-9 -69 3 -104q9 -42 47.5 -70t102.5 -28q77 0 121 40.5t67 145.5q25 113 49 289q5 35 -2.5 49.5t-31.5 19.5q-13 3 -51 8
q-3 5 -1 16.5t5 13.5q3 0 44.5 -2t75.5 -2q33 0 68.5 2t39.5 2q3 -3 1.5 -15.5t-4.5 -14.5q-28 -3 -46 -8q-22 -6 -32 -22t-16 -48q-5 -25 -21.5 -116.5t-29 -152.5t-24.5 -93q-59 -167 -243 -167q-126 0 -179 71q-32 45 -32 117q1 31 26.5 192t26.5 171q3 37 -22 46
q-16 6 -56 10zM309 761q-1 2 -1 5.5t2 5.5q7 7 34 16t38 9q20 -22 82 -128q1 -3 -8.5 -10.5t-14.5 -7.5q-4 0 -63 49.5t-69 60.5z" />
    <glyph glyph-name="Uacute" unicode="&#xda;" horiz-adv-x="685" 
d="M83 589q-2 5 0 16t6 13q3 0 50 -1.5t75 -1.5t71.5 1.5t50.5 1.5q3 -3 2 -13.5t-4 -15.5q-32 -5 -47 -8q-37 -8 -45 -52q-37 -214 -45 -290q-9 -69 3 -104q9 -42 47.5 -70t102.5 -28q77 0 121 40.5t67 145.5q25 113 49 289q5 35 -2.5 49.5t-31.5 19.5q-13 3 -51 8
q-3 5 -1 16.5t5 13.5q3 0 44.5 -2t75.5 -2q33 0 68.5 2t39.5 2q3 -3 1.5 -15.5t-4.5 -14.5q-28 -3 -46 -8q-22 -6 -32 -22t-16 -48q-5 -25 -21.5 -116.5t-29 -152.5t-24.5 -93q-59 -167 -243 -167q-126 0 -179 71q-32 45 -32 117q1 31 26.5 192t26.5 171q3 37 -22 46
q-16 6 -56 10zM578 756q3 -4 0 -12q-14 -10 -94.5 -49t-86.5 -39q-3 0 -9.5 10.5t-4.5 12.5q117 101 138 114q11 0 30.5 -13.5t26.5 -23.5z" />
    <glyph glyph-name="Ucircumflex" unicode="&#xdb;" horiz-adv-x="685" 
d="M83 589q-2 5 0 16t6 13q3 0 50 -1.5t75 -1.5t71.5 1.5t50.5 1.5q3 -3 2 -13.5t-4 -15.5q-32 -5 -47 -8q-37 -8 -45 -52q-37 -214 -45 -290q-9 -69 3 -104q9 -42 47.5 -70t102.5 -28q77 0 121 40.5t67 145.5q25 113 49 289q5 35 -2.5 49.5t-31.5 19.5q-13 3 -51 8
q-3 5 -1 16.5t5 13.5q3 0 44.5 -2t75.5 -2q33 0 68.5 2t39.5 2q3 -3 1.5 -15.5t-4.5 -14.5q-28 -3 -46 -8q-22 -6 -32 -22t-16 -48q-5 -25 -21.5 -116.5t-29 -152.5t-24.5 -93q-59 -167 -243 -167q-126 0 -179 71q-32 45 -32 117q1 31 26.5 192t26.5 171q3 37 -22 46
q-16 6 -56 10zM435 785q12 6 21 6q11 -13 50.5 -52.5t54.5 -51.5q0 -5 -6.5 -14t-10.5 -9t-47 22t-56 30q-5 2 -11 0q-16 -8 -69.5 -30t-58.5 -22q-4 0 -8.5 9.5t-2.5 13.5q107 65 144 98z" />
    <glyph glyph-name="Udieresis" unicode="&#xdc;" horiz-adv-x="685" 
d="M83 589q-2 5 0 16t6 13q3 0 50 -1.5t75 -1.5t71.5 1.5t50.5 1.5q3 -3 2 -13.5t-4 -15.5q-32 -5 -47 -8q-37 -8 -45 -52q-37 -214 -45 -290q-9 -69 3 -104q9 -42 47.5 -70t102.5 -28q77 0 121 40.5t67 145.5q25 113 49 289q5 35 -2.5 49.5t-31.5 19.5q-13 3 -51 8
q-3 5 -1 16.5t5 13.5q3 0 44.5 -2t75.5 -2q33 0 68.5 2t39.5 2q3 -3 1.5 -15.5t-4.5 -14.5q-28 -3 -46 -8q-22 -6 -32 -22t-16 -48q-5 -25 -21.5 -116.5t-29 -152.5t-24.5 -93q-59 -167 -243 -167q-126 0 -179 71q-32 45 -32 117q1 31 26.5 192t26.5 171q3 37 -22 46
q-16 6 -56 10zM361 758q22 0 28 -9q9 -11 4 -30q-5 -27 -25 -40q-4 -2 -20.5 -3.5t-20.5 1.5q-18 10 -18 38q0 20 8 28q17 15 44 15zM530 758q23 0 28 -8q7 -10 4 -31q-5 -29 -25 -41q-5 -2 -20.5 -3t-20.5 2q-19 9 -19 40q2 18 10 26q15 15 43 15z" />
    <glyph glyph-name="Yacute" unicode="&#xdd;" horiz-adv-x="531" 
d="M99 26q42 5 62 9q19 4 27.5 15.5t14.5 39.5q14 68 27 156q3 18 -2 43q-17 65 -76 219q-17 44 -28.5 57t-34.5 18q-12 3 -43 7q-2 4 -0.5 15.5t5.5 13.5q4 0 39.5 -2t67.5 -2q83 0 119 3q3 -3 1.5 -14.5t-3.5 -14.5q-30 -5 -40 -8q-19 -6 -13 -29q39 -126 80 -229
q2 -5 6 0q105 140 154 223q15 28 -12 35q-11 3 -45 9q-2 5 0 16.5t6 12.5q4 0 43 -2t57 -2q57 0 109 4q2 -4 1.5 -15t-4.5 -14q-7 -2 -22 -4.5t-18 -3.5q-25 -5 -41 -18t-43 -46q-74 -93 -166 -229q-13 -17 -15 -33q-13 -71 -25 -156q-4 -32 1 -46.5t25 -18.5q14 -4 59 -9
q2 -4 0 -15t-6 -14q-6 0 -54 1.5t-82 1.5q-30 0 -79 -1.5t-56 -1.5q-2 2 -0.5 14.5t4.5 14.5zM507 753q3 -4 0 -12q-14 -10 -94.5 -49t-86.5 -39q-3 0 -9.5 10.5t-4.5 12.5q117 101 138 114q11 0 30.5 -13.5t26.5 -23.5z" />
    <glyph glyph-name="Thorn" unicode="&#xde;" horiz-adv-x="532" 
d="M421 329q0 57 -35.5 90.5t-101.5 33.5q-32 0 -38 -4q-8 -3 -10 -14q-18 -101 -41 -256q37 -8 78 -8q69 0 108.5 42.5t39.5 115.5zM104 590q-2 3 -1 15t5 13q6 0 42 -1l70 -2q25 0 65 1.5t50 1.5q2 -3 0.5 -13.5t-4.5 -14.5q-36 -5 -44 -7q-16 -4 -21.5 -13t-11.5 -33
l-8 -48q2 -4 4 -4q32 1 80 1q92 0 136 -43q41 -39 41 -107q0 -120 -114 -175q-50 -25 -122 -25q-49 0 -81 9l-9 -63q-3 -23 2.5 -33.5t23.5 -14.5q10 -2 55 -8q1 -2 -1 -14.5t-4 -14.5q-12 0 -57 1.5t-66 1.5q-26 0 -76 -1.5t-56 -1.5q-2 3 -0.5 15t3.5 14q36 3 54 8
q19 6 27.5 17t14.5 41q10 54 37.5 218t33.5 216q4 26 0 39.5t-23 17.5q-16 4 -45 7z" />
    <glyph glyph-name="germandbls" unicode="&#xdf;" horiz-adv-x="466" 
d="M115 397q4 0 6 5q31 168 136 242q55 40 113 40q41 0 69 -29t28 -81q0 -45 -47 -104q-13 -16 -35 -41t-31 -37q-20 -26 -21 -41q0 -12 10.5 -28.5t43.5 -61.5q41 -56 41 -100q0 -51 -37.5 -96.5t-86.5 -65.5q-34 -14 -66 -14q-38 0 -54 20q-7 10 -9 32.5t2 32.5q1 3 6 6.5
t7 3.5q38 -47 93 -47q33 0 55 20.5t23 61.5q1 42 -44 102q-39 50 -53 74q-6 10 -5.5 28t9.5 27q81 87 100 117q32 47 32 88q0 38 -19.5 62.5t-55.5 24.5q-51 0 -82 -59t-50 -174q-7 -42 -27.5 -178t-34.5 -219q-22 -127 -87.5 -194.5t-125.5 -67.5q-61 0 -61 43q3 37 13 56
q6 6 12 5q34 -49 84 -49q32 0 50.5 33.5t33.5 122.5q31 188 60 386q3 8 -5 8q-65 3 -68 3q-4 2 -2 7q4 9 15.5 20.5t19.5 14.5z" />
    <glyph glyph-name="agrave" unicode="&#xe0;" horiz-adv-x="450" 
d="M419 109q4 -1 4 -3q3 -19 -3 -31q-26 -37 -64.5 -64t-59.5 -27q-32 0 -21 78q1 8 5.5 34.5t7.5 46.5v1q-2 1 -3 0q-48 -67 -103 -113.5t-90 -46.5q-28 0 -40.5 32t-12.5 69q0 65 24.5 128.5t67.5 108.5q32 32 85 59.5t110 27.5q48 0 89 -9q-16 -36 -24 -63
q-12 -48 -26 -130t-16 -114q-1 -28 10 -28q20 0 60 44zM146 60q25 0 62.5 35t71.5 90q18 31 30 78q22 86 24 90q-20 10 -65 10q-72 0 -116 -80q-38 -69 -38 -154q0 -69 31 -69zM215 614q0 8 5 10q9 3 38 2.5t36 -2.5q5 -17 29 -165q-1 -4 -12.5 -7.5t-14.5 -1.5
q-54 98 -81 164z" />
    <glyph glyph-name="aacute" unicode="&#xe1;" horiz-adv-x="450" 
d="M419 109q4 -1 4 -3q3 -19 -3 -31q-26 -37 -64.5 -64t-59.5 -27q-32 0 -21 78q1 8 5.5 34.5t7.5 46.5v1q-2 1 -3 0q-48 -67 -103 -113.5t-90 -46.5q-28 0 -40.5 32t-12.5 69q0 65 24.5 128.5t67.5 108.5q32 32 85 59.5t110 27.5q48 0 89 -9q-16 -36 -24 -63
q-12 -48 -26 -130t-16 -114q-1 -28 10 -28q20 0 60 44zM146 60q25 0 62.5 35t71.5 90q18 31 30 78q22 86 24 90q-20 10 -65 10q-72 0 -116 -80q-38 -69 -38 -154q0 -69 31 -69zM432 611q7 -7 4 -15q-15 -19 -71 -72t-84 -77q-3 -1 -13 7t-10 11l35 51l36.5 53.5t23.5 32.5
q8 4 39.5 7.5t39.5 1.5z" />
    <glyph glyph-name="acircumflex" unicode="&#xe2;" horiz-adv-x="450" 
d="M419 109q4 -1 4 -3q3 -19 -3 -31q-26 -37 -64.5 -64t-59.5 -27q-32 0 -21 78q1 8 5.5 34.5t7.5 46.5v1q-2 1 -3 0q-48 -67 -103 -113.5t-90 -46.5q-28 0 -40.5 32t-12.5 69q0 65 24.5 128.5t67.5 108.5q32 32 85 59.5t110 27.5q48 0 89 -9q-16 -36 -24 -63
q-12 -48 -26 -130t-16 -114q-1 -28 10 -28q20 0 60 44zM146 60q25 0 62.5 35t71.5 90q18 31 30 78q22 86 24 90q-20 10 -65 10q-72 0 -116 -80q-38 -69 -38 -154q0 -69 31 -69zM303 539q-50 -69 -66 -79q-20 -13 -41 -11q-4 2 -4 7q65 77 114 155q2 2 15 6t16 3
q6 -22 27.5 -80t30.5 -78q-3 -4 -18.5 -9.5t-24.5 -5.5q-6 1 -44 92q-2 3 -5 0z" />
    <glyph glyph-name="atilde" unicode="&#xe3;" horiz-adv-x="450" 
d="M419 109q4 -1 4 -3q3 -19 -3 -31q-26 -37 -64.5 -64t-59.5 -27q-32 0 -21 78q1 8 5.5 34.5t7.5 46.5v1q-2 1 -3 0q-48 -67 -103 -113.5t-90 -46.5q-28 0 -40.5 32t-12.5 69q0 65 24.5 128.5t67.5 108.5q32 32 85 59.5t110 27.5q48 0 89 -9q-16 -36 -24 -63
q-12 -48 -26 -130t-16 -114q-1 -28 10 -28q20 0 60 44zM146 60q25 0 62.5 35t71.5 90q18 31 30 78q22 86 24 90q-20 10 -65 10q-72 0 -116 -80q-38 -69 -38 -154q0 -69 31 -69zM360 540q31 0 65 29q2 1 4 -5q5 -15 2 -21q-16 -20 -47 -39t-56 -19q-13 0 -58 15q-20 8 -36 8
q-26 0 -65 -28l-3 7q-4 17 -1 20q13 14 46 35t51 21q13 0 54 -13q27 -10 44 -10z" />
    <glyph glyph-name="adieresis" unicode="&#xe4;" horiz-adv-x="450" 
d="M419 109q4 -1 4 -3q3 -19 -3 -31q-26 -37 -64.5 -64t-59.5 -27q-32 0 -21 78q1 8 5.5 34.5t7.5 46.5v1q-2 1 -3 0q-48 -67 -103 -113.5t-90 -46.5q-28 0 -40.5 32t-12.5 69q0 65 24.5 128.5t67.5 108.5q32 32 85 59.5t110 27.5q48 0 89 -9q-16 -36 -24 -63
q-12 -48 -26 -130t-16 -114q-1 -28 10 -28q20 0 60 44zM146 60q25 0 62.5 35t71.5 90q18 31 30 78q22 86 24 90q-20 10 -65 10q-72 0 -116 -80q-38 -69 -38 -154q0 -69 31 -69zM236 581q19 0 24 -8q7 -11 5 -27q-5 -30 -26 -42q-3 -3 -20 -4.5t-21 1.5q-15 9 -17 35
q0 18 8 28q15 17 47 17zM385 581q19 0 24 -8q6 -8 4 -26q-5 -32 -25 -43q-4 -3 -21 -4.5t-20 1.5q-16 8 -18 37q2 19 10 27q16 16 46 16z" />
    <glyph glyph-name="aring" unicode="&#xe5;" horiz-adv-x="450" 
d="M419 109q4 -1 4 -3q3 -19 -3 -31q-26 -37 -64.5 -64t-59.5 -27q-32 0 -21 78q1 8 5.5 34.5t7.5 46.5v1q-2 1 -3 0q-48 -67 -103 -113.5t-90 -46.5q-28 0 -40.5 32t-12.5 69q0 65 24.5 128.5t67.5 108.5q32 32 85 59.5t110 27.5q48 0 89 -9q-16 -36 -24 -63
q-12 -48 -26 -130t-16 -114q-1 -28 10 -28q20 0 60 44zM146 60q25 0 62.5 35t71.5 90q18 31 30 78q22 86 24 90q-20 10 -65 10q-72 0 -116 -80q-38 -69 -38 -154q0 -69 31 -69zM316 610q32 0 49.5 -22.5t14.5 -54.5q-3 -35 -27.5 -55.5t-56.5 -20.5q-26 0 -47 19t-18 56
q2 34 26 56t59 22zM307 573q-20 0 -33 -10.5t-14 -27.5q-1 -18 11.5 -30t32.5 -12q19 0 32 10.5t15 26.5q2 19 -9 31t-35 12z" />
    <glyph glyph-name="ae" unicode="&#xe6;" horiz-adv-x="544" 
d="M298 391q33 0 50 -28q65 46 115 46q29 0 50.5 -22.5t20.5 -59.5q-1 -20 -68 -74q-67 -52 -149 -109q-4 -4 -4 -9q5 -89 74 -89q53 0 121 68q3 0 5 -5q2 -13 -4 -29q-34 -42 -84 -69t-90 -27q-80 0 -92 108q-49 -46 -94 -76.5t-64 -31.5q-26 0 -38.5 28t-12.5 68
q0 56 24 115.5t68 105.5q30 31 81.5 60.5t90.5 29.5zM111 123q0 -61 32 -61q27 0 98 63q-1 51 20.5 112t62.5 103q-16 9 -50 9q-73 0 -122 -76q-41 -65 -41 -150zM419 367q-34 0 -67 -51.5t-39 -134.5q0 -2 1.5 -3.5t2.5 -0.5q70 47 126 101q19 19 19 41t-12 35t-31 13z" />
    <glyph glyph-name="ccedilla" unicode="&#xe7;" horiz-adv-x="337" 
d="M211 360q-39 0 -67.5 -61.5t-28.5 -140.5q0 -109 69 -109q60 0 126 76q4 -4 4 -6q1 -5 -1 -16.5t-5 -14.5q-41 -56 -100 -84l-37 -42q-1 -1 -0.5 -4t1.5 -4q24 -17 29 -23q19 -20 19 -44q0 -39 -38.5 -67t-66.5 -28q-35 0 -48 28q-3 15 4 22q25 -14 55 -14q17 0 28 8
t11 23q0 37 -60 61q1 9 3 11l54 57q-15 -3 -27 -3q-53 0 -76 47q-18 34 -18 86q0 68 26.5 135t81.5 107q69 51 120 51q49 0 63 -22q2 -3 2.5 -9t-0.5 -8q-3 -11 -16 -28.5t-22 -22.5q-7 -2 -12 0q-35 39 -73 39z" />
    <glyph glyph-name="egrave" unicode="&#xe8;" horiz-adv-x="346" 
d="M221 366q-31 0 -61 -36.5t-40 -103.5q-2 -5 3 -5q56 11 101 38q37 23 37 64q0 18 -10.5 30.5t-29.5 12.5zM268 411q25 0 42.5 -18t19.5 -46q1 -65 -97 -117q-41 -22 -113 -46q-6 -2 -6 -9q-2 -10 -2 -20q0 -105 73 -105q66 0 132 70q5 0 5 -6q0 -13 -7 -29
q-34 -45 -84.5 -72.5t-95.5 -27.5q-50 0 -72.5 39t-22.5 99q0 59 22 122.5t64 100.5q30 27 72.5 46t69.5 19zM156 607q0 7 5 10q9 3 38 2.5t36 -2.5q5 -17 29 -165q-1 -4 -12.5 -7.5t-14.5 -1.5q-54 98 -81 164z" />
    <glyph glyph-name="eacute" unicode="&#xe9;" horiz-adv-x="346" 
d="M221 366q-31 0 -61 -36.5t-40 -103.5q-2 -5 3 -5q56 11 101 38q37 23 37 64q0 18 -10.5 30.5t-29.5 12.5zM268 411q25 0 42.5 -18t19.5 -46q1 -65 -97 -117q-41 -22 -113 -46q-6 -2 -6 -9q-2 -10 -2 -20q0 -105 73 -105q66 0 132 70q5 0 5 -6q0 -13 -7 -29
q-34 -45 -84.5 -72.5t-95.5 -27.5q-50 0 -72.5 39t-22.5 99q0 59 22 122.5t64 100.5q30 27 72.5 46t69.5 19zM365 610q7 -7 4 -15q-15 -19 -71 -72t-84 -77q-3 -1 -13 7t-10 11l35 51l36.5 53.5t23.5 32.5q8 4 39.5 7.5t39.5 1.5z" />
    <glyph glyph-name="ecircumflex" unicode="&#xea;" horiz-adv-x="346" 
d="M221 366q-31 0 -61 -36.5t-40 -103.5q-2 -5 3 -5q56 11 101 38q37 23 37 64q0 18 -10.5 30.5t-29.5 12.5zM268 411q25 0 42.5 -18t19.5 -46q1 -65 -97 -117q-41 -22 -113 -46q-6 -2 -6 -9q-2 -10 -2 -20q0 -105 73 -105q66 0 132 70q5 0 5 -6q0 -13 -7 -29
q-34 -45 -84.5 -72.5t-95.5 -27.5q-50 0 -72.5 39t-22.5 99q0 59 22 122.5t64 100.5q30 27 72.5 46t69.5 19zM247 534q-50 -69 -66 -79q-20 -13 -41 -11q-4 2 -4 7q65 77 114 155q2 2 15 6t16 3q6 -22 27.5 -80t30.5 -78q-3 -4 -18.5 -9.5t-24.5 -5.5q-6 1 -44 92q-2 3 -5 0
z" />
    <glyph glyph-name="edieresis" unicode="&#xeb;" horiz-adv-x="346" 
d="M221 366q-31 0 -61 -36.5t-40 -103.5q-2 -5 3 -5q56 11 101 38q37 23 37 64q0 18 -10.5 30.5t-29.5 12.5zM268 411q25 0 42.5 -18t19.5 -46q1 -65 -97 -117q-41 -22 -113 -46q-6 -2 -6 -9q-2 -10 -2 -20q0 -105 73 -105q66 0 132 70q5 0 5 -6q0 -13 -7 -29
q-34 -45 -84.5 -72.5t-95.5 -27.5q-50 0 -72.5 39t-22.5 99q0 59 22 122.5t64 100.5q30 27 72.5 46t69.5 19zM192 579q19 0 24 -8q7 -11 5 -27q-5 -30 -26 -42q-3 -3 -20 -4.5t-21 1.5q-15 9 -17 35q0 18 8 28q15 17 47 17zM341 579q19 0 24 -8q6 -8 4 -26q-5 -32 -25 -43
q-4 -3 -21 -4.5t-20 1.5q-16 8 -18 37q2 19 10 27q16 16 46 16z" />
    <glyph glyph-name="igrave" unicode="&#xec;" horiz-adv-x="235" 
d="M201 107q3 -1 3 -3q3 -14 -3 -29q-32 -43 -69.5 -67t-56.5 -24q-36 0 -16 94l47 230q5 22 -4 22q-15 0 -54 -30q-3 1 -3 3q-4 13 4 26q31 31 69.5 56.5t56.5 25.5q21 0 6 -70q-3 -16 -25.5 -120.5t-25.5 -131.5q-3 -26 10 -26q20 0 61 44zM77 606q0 8 5 10q9 3 38 2.5
t36 -2.5q5 -17 29 -165q-1 -4 -12.5 -7.5t-14.5 -1.5q-54 98 -81 164z" />
    <glyph glyph-name="iacute" unicode="&#xed;" horiz-adv-x="235" 
d="M201 107q3 -1 3 -3q3 -14 -3 -29q-32 -43 -69.5 -67t-56.5 -24q-36 0 -16 94l47 230q5 22 -4 22q-15 0 -54 -30q-3 1 -3 3q-4 13 4 26q31 31 69.5 56.5t56.5 25.5q21 0 6 -70q-3 -16 -25.5 -120.5t-25.5 -131.5q-3 -26 10 -26q20 0 61 44zM293 610q7 -7 4 -15
q-15 -19 -71 -72t-84 -77q-3 -1 -13 7t-10 11l35 51l36.5 53.5t23.5 32.5q8 4 39.5 7.5t39.5 1.5z" />
    <glyph glyph-name="icircumflex" unicode="&#xee;" horiz-adv-x="235" 
d="M201 107q3 -1 3 -3q3 -14 -3 -29q-32 -43 -69.5 -67t-56.5 -24q-36 0 -16 94l47 230q5 22 -4 22q-15 0 -54 -30q-3 1 -3 3q-4 13 4 26q31 31 69.5 56.5t56.5 25.5q21 0 6 -70q-3 -16 -25.5 -120.5t-25.5 -131.5q-3 -26 10 -26q20 0 61 44zM167 534q-50 -69 -66 -79
q-20 -13 -41 -11q-4 2 -4 7q65 77 114 155q2 2 15 6t16 3q6 -22 27.5 -80t30.5 -78q-3 -4 -18.5 -9.5t-24.5 -5.5q-6 1 -44 92q-2 3 -5 0z" />
    <glyph glyph-name="idieresis" unicode="&#xef;" horiz-adv-x="235" 
d="M201 107q3 -1 3 -3q3 -14 -3 -29q-32 -43 -69.5 -67t-56.5 -24q-36 0 -16 94l47 230q5 22 -4 22q-15 0 -54 -30q-3 1 -3 3q-4 13 4 26q31 31 69.5 56.5t56.5 25.5q21 0 6 -70q-3 -16 -25.5 -120.5t-25.5 -131.5q-3 -26 10 -26q20 0 61 44zM109 581q19 0 24 -8
q7 -11 5 -27q-5 -30 -26 -42q-3 -3 -20 -4.5t-21 1.5q-15 9 -17 35q0 18 8 28q15 17 47 17zM258 581q19 0 24 -8q6 -8 4 -26q-5 -32 -25 -43q-4 -3 -21 -4.5t-20 1.5q-16 8 -18 37q2 19 10 27q16 16 46 16z" />
    <glyph glyph-name="eth" unicode="&#xf0;" horiz-adv-x="417" 
d="M187 30q36 0 65.5 47t43.5 108t15 118q2 34 -15 47q-20 18 -54 18q-40 0 -70 -38t-42 -84t-12 -87q-2 -129 69 -129zM42 127q0 63 25 126.5t74 100.5q29 22 71.5 39t63.5 17q24 0 37 -4q3 59 -25 115q-58 -26 -107 -45q-3 3 -3 7q4 27 10 29q61 25 87 38q-41 78 -142 105
q-1 4 3 13.5t8 11.5q117 -11 187 -102q3 -3 6 -2q7 3 46.5 21t50.5 24q3 -1 3 -6q0 -20 -7 -29q-5 -5 -75 -38q-4 -2 -2 -7q36 -81 36 -173q0 -116 -39 -213t-116 -141q-52 -30 -92 -30q-50 0 -75.5 42.5t-24.5 100.5z" />
    <glyph glyph-name="ntilde" unicode="&#xf1;" horiz-adv-x="464" 
d="M43 290q-4 0 -4 3q-3 10 3 29q32 37 69 63t54 26q26 0 9 -93l-15 -79h3q78 110 162 155q31 17 54 17q46 0 18 -135q-26 -120 -36 -184q-2 -27 8 -27q21 0 60 44q3 0 4 -5q1 -3 -1 -15.5t-4 -15.5q-28 -38 -66 -63.5t-60 -25.5q-32 0 -12 101q8 41 23.5 113t18.5 88
q10 56 -13 56q-24 0 -65.5 -39t-83.5 -107q-24 -37 -36 -93q-17 -68 -13 -86q-8 -8 -33 -20t-34 -13q-4 -1 -7 3t-2 8q2 17 28 141t32 170q3 23 -6 23q-14 0 -55 -39zM346 540q31 0 65 29q2 1 4 -5q5 -15 2 -21q-16 -20 -47 -39t-56 -19q-13 0 -58 15q-20 8 -36 8
q-26 0 -65 -28l-3 7q-4 17 -1 20q13 14 46 35t51 21q13 0 54 -13q27 -10 44 -10z" />
    <glyph glyph-name="ograve" unicode="&#xf2;" horiz-adv-x="423" 
d="M283 411q51 0 75.5 -40t24.5 -94q0 -81 -34 -150.5t-101 -107.5q-58 -35 -109 -35q-47 0 -72 40t-25 99q0 70 25.5 133.5t76.5 101.5q31 23 71.5 38t67.5 15zM118 154q0 -122 72 -122q47 0 81 66.5t34 151.5q0 116 -72 117q-53 0 -84 -68.5t-31 -144.5zM181 610q0 8 5 10
q9 3 38 2.5t36 -2.5q5 -17 29 -165q-1 -4 -12.5 -7.5t-14.5 -1.5q-54 98 -81 164z" />
    <glyph glyph-name="oacute" unicode="&#xf3;" horiz-adv-x="423" 
d="M283 411q51 0 75.5 -40t24.5 -94q0 -81 -34 -150.5t-101 -107.5q-58 -35 -109 -35q-47 0 -72 40t-25 99q0 70 25.5 133.5t76.5 101.5q31 23 71.5 38t67.5 15zM118 154q0 -122 72 -122q47 0 81 66.5t34 151.5q0 116 -72 117q-53 0 -84 -68.5t-31 -144.5zM387 610
q7 -7 4 -15q-15 -19 -71 -72t-84 -77q-3 -1 -13 7t-10 11l35 51l36.5 53.5t23.5 32.5q8 4 39.5 7.5t39.5 1.5z" />
    <glyph glyph-name="ocircumflex" unicode="&#xf4;" horiz-adv-x="423" 
d="M283 411q51 0 75.5 -40t24.5 -94q0 -81 -34 -150.5t-101 -107.5q-58 -35 -109 -35q-47 0 -72 40t-25 99q0 70 25.5 133.5t76.5 101.5q31 23 71.5 38t67.5 15zM118 154q0 -122 72 -122q47 0 81 66.5t34 151.5q0 116 -72 117q-53 0 -84 -68.5t-31 -144.5zM272 534
q-50 -69 -66 -79q-20 -13 -41 -11q-4 2 -4 7q65 77 114 155q2 2 15 6t16 3q6 -22 27.5 -80t30.5 -78q-3 -4 -18.5 -9.5t-24.5 -5.5q-6 1 -44 92q-2 3 -5 0z" />
    <glyph glyph-name="otilde" unicode="&#xf5;" horiz-adv-x="423" 
d="M283 411q51 0 75.5 -40t24.5 -94q0 -81 -34 -150.5t-101 -107.5q-58 -35 -109 -35q-47 0 -72 40t-25 99q0 70 25.5 133.5t76.5 101.5q31 23 71.5 38t67.5 15zM118 154q0 -122 72 -122q47 0 81 66.5t34 151.5q0 116 -72 117q-53 0 -84 -68.5t-31 -144.5zM329 539
q31 0 65 29q2 1 4 -5q5 -15 2 -21q-16 -20 -47 -39t-56 -19q-13 0 -58 15q-20 8 -36 8q-26 0 -65 -28l-3 7q-4 17 -1 20q13 14 46 35t51 21q13 0 54 -13q27 -10 44 -10z" />
    <glyph glyph-name="odieresis" unicode="&#xf6;" horiz-adv-x="423" 
d="M283 411q51 0 75.5 -40t24.5 -94q0 -81 -34 -150.5t-101 -107.5q-58 -35 -109 -35q-47 0 -72 40t-25 99q0 70 25.5 133.5t76.5 101.5q31 23 71.5 38t67.5 15zM118 154q0 -122 72 -122q47 0 81 66.5t34 151.5q0 116 -72 117q-53 0 -84 -68.5t-31 -144.5zM214 581
q19 0 24 -8q7 -11 5 -27q-5 -30 -26 -42q-3 -3 -20 -4.5t-21 1.5q-15 9 -17 35q0 18 8 28q15 17 47 17zM363 581q19 0 24 -8q6 -8 4 -26q-5 -32 -25 -43q-4 -3 -21 -4.5t-20 1.5q-16 8 -18 37q2 19 10 27q16 16 46 16z" />
    <glyph glyph-name="divide" unicode="&#xf7;" horiz-adv-x="544" 
d="M320 409q0 -27 -25 -54q-3 -3 -22 -5.5t-28 3.5q-18 12 -21 39q-1 4 2 17t5 15q21 15 50 15q26 0 31 -8q8 -8 8 -22zM488 214l-442 -3q-3 0 -3 10q8 34 14 47q4 -1 114 -1h331q2 -1 2 -12q-10 -40 -16 -41zM320 104q0 -30 -18 -49q-3 -3 -24 -6.5t-30 2.5q-21 17 -24 41
q-1 3 2 15.5t5 14.5q20 16 50 16q25 0 31 -8q8 -8 8 -26z" />
    <glyph glyph-name="oslash" unicode="&#xf8;" horiz-adv-x="422" 
d="M189 31q54 0 87.5 71t33.5 146q0 32 -6 56l-175 -235q15 -38 60 -38zM235 369q-38 0 -67 -37t-42 -86t-13 -96q0 -33 5 -52l175 237q-17 34 -58 34zM277 411q35 0 59 -19l21 27q4 5 36 13q4 -2 4 -6l-41 -55q26 -37 26 -102q0 -87 -39 -152t-98 -101q-56 -32 -104 -32
q-33 0 -59 24l-23 -28q-13 -10 -33 -12q-3 3 -3 6l42 55q-25 39 -23 101q1 74 28.5 134t75.5 96q28 22 67 36.5t64 14.5z" />
    <glyph glyph-name="ugrave" unicode="&#xf9;" horiz-adv-x="463" 
d="M107 309q4 22 -5 22q-17 0 -59 -39q-4 0 -4 4q-1 4 0.5 15t3.5 13q30 34 70.5 60.5t58.5 26.5q25 0 5 -90q-38 -181 -42 -205q-6 -30 -1.5 -44t20.5 -14q27 0 71 44.5t76 105.5q13 25 26 72q21 92 25 99q6 6 32.5 17.5t40.5 14.5q6 -3 4 -12q-13 -18 -23 -65
q-35 -148 -44 -235q-4 -36 9 -36q20 0 63 49q4 0 4 -5q0 -19 -5 -31q-26 -39 -64.5 -65.5t-61.5 -26.5q-30 0 -18 89q2 14 6.5 38.5t6.5 36.5q0 1 -1.5 1.5t-2.5 -0.5q-50 -75 -119 -126q-51 -39 -87 -39q-49 0 -29 111q9 52 44 214zM197 607q0 7 5 10q9 3 38 2.5t36 -2.5
q5 -17 29 -165q-1 -4 -12.5 -7.5t-14.5 -1.5q-54 98 -81 164z" />
    <glyph glyph-name="uacute" unicode="&#xfa;" horiz-adv-x="463" 
d="M107 309q4 22 -5 22q-17 0 -59 -39q-4 0 -4 4q-1 4 0.5 15t3.5 13q30 34 70.5 60.5t58.5 26.5q25 0 5 -90q-38 -181 -42 -205q-6 -30 -1.5 -44t20.5 -14q27 0 71 44.5t76 105.5q13 25 26 72q21 92 25 99q6 6 32.5 17.5t40.5 14.5q6 -3 4 -12q-13 -18 -23 -65
q-35 -148 -44 -235q-4 -36 9 -36q20 0 63 49q4 0 4 -5q0 -19 -5 -31q-26 -39 -64.5 -65.5t-61.5 -26.5q-30 0 -18 89q2 14 6.5 38.5t6.5 36.5q0 1 -1.5 1.5t-2.5 -0.5q-50 -75 -119 -126q-51 -39 -87 -39q-49 0 -29 111q9 52 44 214zM416 606q7 -7 4 -15q-15 -19 -71 -72
t-84 -77q-3 -1 -13 7t-10 11l35 51l36.5 53.5t23.5 32.5q8 4 39.5 7.5t39.5 1.5z" />
    <glyph glyph-name="ucircumflex" unicode="&#xfb;" horiz-adv-x="463" 
d="M107 309q4 22 -5 22q-17 0 -59 -39q-4 0 -4 4q-1 4 0.5 15t3.5 13q30 34 70.5 60.5t58.5 26.5q25 0 5 -90q-38 -181 -42 -205q-6 -30 -1.5 -44t20.5 -14q27 0 71 44.5t76 105.5q13 25 26 72q21 92 25 99q6 6 32.5 17.5t40.5 14.5q6 -3 4 -12q-13 -18 -23 -65
q-35 -148 -44 -235q-4 -36 9 -36q20 0 63 49q4 0 4 -5q0 -19 -5 -31q-26 -39 -64.5 -65.5t-61.5 -26.5q-30 0 -18 89q2 14 6.5 38.5t6.5 36.5q0 1 -1.5 1.5t-2.5 -0.5q-50 -75 -119 -126q-51 -39 -87 -39q-49 0 -29 111q9 52 44 214zM291 542q-50 -69 -66 -79
q-20 -13 -41 -11q-4 2 -4 7q65 77 114 155q2 2 15 6t16 3q6 -22 27.5 -80t30.5 -78q-3 -4 -18.5 -9.5t-24.5 -5.5q-6 1 -44 92q-2 3 -5 0z" />
    <glyph glyph-name="udieresis" unicode="&#xfc;" horiz-adv-x="463" 
d="M107 309q4 22 -5 22q-17 0 -59 -39q-4 0 -4 4q-1 4 0.5 15t3.5 13q30 34 70.5 60.5t58.5 26.5q25 0 5 -90q-38 -181 -42 -205q-6 -30 -1.5 -44t20.5 -14q27 0 71 44.5t76 105.5q13 25 26 72q21 92 25 99q6 6 32.5 17.5t40.5 14.5q6 -3 4 -12q-13 -18 -23 -65
q-35 -148 -44 -235q-4 -36 9 -36q20 0 63 49q4 0 4 -5q0 -19 -5 -31q-26 -39 -64.5 -65.5t-61.5 -26.5q-30 0 -18 89q2 14 6.5 38.5t6.5 36.5q0 1 -1.5 1.5t-2.5 -0.5q-50 -75 -119 -126q-51 -39 -87 -39q-49 0 -29 111q9 52 44 214zM233 581q19 0 24 -8q7 -11 5 -27
q-5 -30 -26 -42q-3 -3 -20 -4.5t-21 1.5q-15 9 -17 35q0 18 8 28q15 17 47 17zM382 581q19 0 24 -8q6 -8 4 -26q-5 -32 -25 -43q-4 -3 -21 -4.5t-20 1.5q-16 8 -18 37q2 19 10 27q16 16 46 16z" />
    <glyph glyph-name="yacute" unicode="&#xfd;" horiz-adv-x="391" 
d="M136 410q29 0 45 -91q14 -81 27 -259q2 -2 4 0q48 77 72 139.5t23 94.5q0 37 -17 71q-2 7 3 13q11 9 34.5 22.5t29.5 13.5q8 0 13 -17t4 -36q0 -62 -40 -145q-49 -103 -119.5 -213t-127.5 -173q-45 -50 -74 -69t-55 -19q-25 0 -25 14q0 9 22 46t30 44q3 5 11 3
q20 -10 39 -10q34 0 105 115q6 14 6 27q1 57 -10.5 156t-25.5 152q-11 42 -25 42q-20 0 -61 -50q-2 -2 -5 4q-2 5 -0.5 17.5t5.5 17.5q25 36 57.5 63t54.5 27zM380 610q7 -7 4 -15q-15 -19 -71 -72t-84 -77q-3 -1 -13 7t-10 11l35 51l36.5 53.5t23.5 32.5q8 4 39.5 7.5
t39.5 1.5z" />
    <glyph glyph-name="thorn" unicode="&#xfe;" horiz-adv-x="452" 
d="M143 -16q-20 0 -36 9q-20 -112 -25 -160q-2 -18 2.5 -26.5t20.5 -11.5q6 -1 52 -5q2 -3 0 -13.5t-5 -12.5q-78 -1 -227 -26q-2 3 -1 14t3 13q30 9 43 14q17 7 24 16.5t13 32.5q3 13 12 64.5l23 131t24 131.5q73 387 78 438q2 16 -8 16q-23 0 -62 -20q-2 3 -0.5 16t4.5 14
q31 21 77 42.5t64 22.5q16 0 5 -53l-41 -209t-28 -146q0 -2 2.5 -2.5t3.5 1.5q51 63 107.5 99.5t90.5 36.5q27 0 43.5 -29t16.5 -76q-2 -160 -110 -254q-36 -31 -84 -49.5t-82 -18.5zM195 32q46 0 83 44q30 36 46 91t16 112q0 69 -36 69q-27 0 -67.5 -35.5t-67.5 -76.5
q-17 -27 -29.5 -72t-14.5 -80q-2 -23 11 -33q19 -19 59 -19z" />
    <glyph glyph-name="ydieresis" unicode="&#xff;" horiz-adv-x="391" 
d="M136 410q29 0 45 -91q14 -81 27 -259q2 -2 4 0q48 77 72 139.5t23 94.5q0 37 -17 71q-2 7 3 13q11 9 34.5 22.5t29.5 13.5q8 0 13 -17t4 -36q0 -62 -40 -145q-49 -103 -119.5 -213t-127.5 -173q-45 -50 -74 -69t-55 -19q-25 0 -25 14q0 9 22 46t30 44q3 5 11 3
q20 -10 39 -10q34 0 105 115q6 14 6 27q1 57 -10.5 156t-25.5 152q-11 42 -25 42q-20 0 -61 -50q-2 -2 -5 4q-2 5 -0.5 17.5t5.5 17.5q25 36 57.5 63t54.5 27zM187 581q19 0 24 -8q7 -11 5 -27q-5 -30 -26 -42q-3 -3 -20 -4.5t-21 1.5q-15 9 -17 35q0 18 8 28q15 17 47 17z
M336 581q19 0 24 -8q6 -8 4 -26q-5 -32 -25 -43q-4 -3 -21 -4.5t-20 1.5q-16 8 -18 37q2 19 10 27q16 16 46 16z" />
    <glyph glyph-name="uni0100" unicode="&#x100;" horiz-adv-x="599" 
d="M-38 25q56 8 76.5 22t53.5 70q47 82 125.5 232.5t106.5 208.5q17 32 25 59q16 -2 29 -2t29 2q0 -14 7 -54q48 -307 79 -456q10 -50 24.5 -62t69.5 -19q3 -3 2 -15.5t-5 -13.5q-8 0 -48 1.5t-66 1.5q-25 0 -72 -1.5t-53 -1.5q-2 3 -1.5 15t3.5 14q45 7 54 10q18 7 15 26
q-7 69 -28 174q0 6 -6 6q-15 1 -94 1q-65 0 -74 -1q-6 0 -10 -7q-66 -123 -82 -165q-11 -29 19 -36q27 -5 49 -8q2 -2 1 -14t-4 -15q-5 0 -46.5 1.5t-76.5 1.5q-32 0 -66 -1.5t-37 -1.5q-2 3 -2 14.5t3 13.5zM339 511l-51 -102.5t-56 -115.5q0 -6 2 -7q18 -2 80 -2
q50 0 61 1q2 0 4 2.5t1 5.5q-24 152 -36 219h-2q-2 -1 -3 -1zM284 726q20 -2 53 -2q175 0 178 1q-1 -10 -10 -29t-13 -21q-12 -3 -194 -3l-37 2q1 7 10.5 27.5t12.5 24.5z" />
    <glyph glyph-name="uni0101" unicode="&#x101;" horiz-adv-x="450" 
d="M419 109q4 -1 4 -3q3 -19 -3 -31q-26 -37 -64.5 -64t-59.5 -27q-32 0 -21 78q1 8 5.5 34.5t7.5 46.5v1q-2 1 -3 0q-48 -67 -103 -113.5t-90 -46.5q-28 0 -40.5 32t-12.5 69q0 65 24.5 128.5t67.5 108.5q32 32 85 59.5t110 27.5q48 0 89 -9q-16 -36 -24 -63
q-12 -48 -26 -130t-16 -114q-1 -28 10 -28q20 0 60 44zM146 60q25 0 62.5 35t71.5 90q18 31 30 78q22 86 24 90q-20 10 -65 10q-72 0 -116 -80q-38 -69 -38 -154q0 -69 31 -69zM209 553q2 0 17 -0.5t28 -0.5q152 0 158 2q-1 -8 -11 -28.5t-13 -21.5q-22 -5 -169 -5l-34 2
q2 8 12 29.5t12 22.5z" />
    <glyph glyph-name="uni0102" unicode="&#x102;" horiz-adv-x="599" 
d="M-38 25q56 8 76.5 22t53.5 70q47 82 125.5 232.5t106.5 208.5q17 32 25 59q16 -2 29 -2t29 2q0 -14 7 -54q48 -307 79 -456q10 -50 24.5 -62t69.5 -19q3 -3 2 -15.5t-5 -13.5q-8 0 -48 1.5t-66 1.5q-25 0 -72 -1.5t-53 -1.5q-2 3 -1.5 15t3.5 14q45 7 54 10q18 7 15 26
q-7 69 -28 174q0 6 -6 6q-15 1 -94 1q-65 0 -74 -1q-6 0 -10 -7q-66 -123 -82 -165q-11 -29 19 -36q27 -5 49 -8q2 -2 1 -14t-4 -15q-5 0 -46.5 1.5t-76.5 1.5q-32 0 -66 -1.5t-37 -1.5q-2 3 -2 14.5t3 13.5zM339 511l-51 -102.5t-56 -115.5q0 -6 2 -7q18 -2 80 -2
q50 0 61 1q2 0 4 2.5t1 5.5q-24 152 -36 219h-2q-2 -1 -3 -1zM396 698q54 0 99 52q1 1 10.5 4.5t14.5 3.5t5 -6q-22 -48 -63.5 -75t-91.5 -27q-46 0 -74.5 21.5t-25.5 58.5q4 6 18.5 16.5t20.5 12.5q1 1 6 1t6 -1q8 -61 75 -61z" />
    <glyph glyph-name="uni0103" unicode="&#x103;" horiz-adv-x="450" 
d="M419 109q4 -1 4 -3q3 -19 -3 -31q-26 -37 -64.5 -64t-59.5 -27q-32 0 -21 78q1 8 5.5 34.5t7.5 46.5v1q-2 1 -3 0q-48 -67 -103 -113.5t-90 -46.5q-28 0 -40.5 32t-12.5 69q0 65 24.5 128.5t67.5 108.5q32 32 85 59.5t110 27.5q48 0 89 -9q-16 -36 -24 -63
q-12 -48 -26 -130t-16 -114q-1 -28 10 -28q20 0 60 44zM146 60q25 0 62.5 35t71.5 90q18 31 30 78q22 86 24 90q-20 10 -65 10q-72 0 -116 -80q-38 -69 -38 -154q0 -69 31 -69zM305 520q51 0 94 56q1 1 11 4.5t15 3.5q6 0 6 -5q-21 -52 -62 -81t-90 -29q-44 0 -71 23t-23 63
q3 7 17 18t21 13q2 1 7.5 1t6.5 -1q4 -66 68 -66z" />
    <glyph glyph-name="uni0104" unicode="&#x104;" horiz-adv-x="599" 
d="M587 26q3 -3 2 -15.5t-5 -13.5q-7 0 -38.5 1.5t-56.5 1.5q-77 -69 -77 -109t42 -40q30 0 54 16q1 -4 0 -16t-2 -13q-20 -23 -48.5 -34.5t-50.5 -11.5q-30 0 -50.5 18t-20.5 53q0 11 3.5 21.5t13 22.5l16 20.5t21.5 21.5l21 18l23 18.5t18 14.5q-25 0 -63.5 -1.5
t-43.5 -1.5q-2 3 -1.5 15t3.5 14q45 7 54 10q18 7 15 26q-7 69 -28 174q0 6 -6 6q-15 1 -94 1q-65 0 -74 -1q-6 0 -10 -7q-74 -143 -82 -165q-11 -29 18 -36q33 -6 50 -8q2 -2 1 -14t-4 -15q-5 0 -46.5 1.5t-76.5 1.5q-32 0 -66 -1.5t-37 -1.5q-2 3 -2 14.5t3 13.5
q56 8 76.5 22t53.5 70q47 82 125.5 232.5t106.5 208.5q17 32 25 59q16 -2 29 -2t29 2q0 -14 7 -54q48 -307 79 -456q10 -50 24.5 -62t69.5 -19zM338 510l-106 -217q0 -6 2 -7q18 -2 80 -2q50 0 61 1q2 0 4 2.5t1 5.5q-25 159 -37 218q-3 0 -5 -1z" />
    <glyph glyph-name="uni0105" unicode="&#x105;" horiz-adv-x="449" 
d="M288 146v1q-2 1 -3 0q-46 -64 -106 -113.5t-88 -49.5t-40.5 31t-12.5 69q0 66 24.5 129.5t67.5 108.5q32 32 85 59.5t110 27.5q48 0 89 -9q-16 -36 -24 -63q-12 -48 -26 -130t-16 -115q-1 -27 11 -27q18 0 59 44q3 -1 4 -3q2 -11 -3 -30q-22 -32 -59 -60
q-80 -65 -80 -111q0 -38 41 -38q27 0 50 15q1 -4 0 -15t-2 -13q-18 -22 -45.5 -33t-47.5 -11q-28 0 -47 16.5t-19 49.5q0 41 83 110q-29 6 -18 77q4 30 13 83zM144 61q23 0 62 35.5t73 88.5q18 28 30 78q21 82 24 90q-17 10 -65 10q-72 0 -116 -80q-38 -69 -38 -156
q0 -66 30 -66z" />
    <glyph glyph-name="uni0106" unicode="&#x106;" horiz-adv-x="620" 
d="M562 464q0 59 -8 81t-33 34q-35 19 -103 19q-113 0 -182.5 -91t-69.5 -227q-1 -119 58 -184.5t165 -65.5q45 0 75 15q55 23 109 94q5 0 12 -8.5t6 -13.5q-18 -34 -48.5 -66.5t-54.5 -43.5q-50 -25 -140 -25q-132 0 -203.5 75t-70.5 205q0 103 49 191.5t147 139.5
q76 40 182 40q43 0 102 -9q50 -10 69 -12q-22 -77 -29 -146q-4 -5 -16 -5.5t-16 3.5zM571 765q3 -4 0 -12q-14 -10 -94.5 -49t-86.5 -39q-3 0 -9.5 10.5t-4.5 12.5q117 101 138 114q11 0 30.5 -13.5t26.5 -23.5z" />
    <glyph glyph-name="uni0107" unicode="&#x107;" horiz-adv-x="337" 
d="M211 360q-39 0 -67.5 -61.5t-28.5 -140.5q0 -109 69 -109q59 0 126 76q4 -4 4 -6q3 -20 -6 -32q-37 -49 -85.5 -75.5t-87.5 -26.5q-53 0 -76 47q-18 34 -18 86q0 68 26.5 135t81.5 107q69 51 120 51q49 0 63 -22q2 -3 2.5 -8.5t-0.5 -7.5q-3 -10 -16.5 -28.5t-22.5 -23.5
q-1 -1 -5 -1t-6 1q-35 39 -73 39zM378 610q7 -7 4 -15q-15 -19 -71 -72t-84 -77q-3 -1 -13 7t-10 11l35 51l36.5 53.5t23.5 32.5q8 4 39.5 7.5t39.5 1.5z" />
    <glyph glyph-name="uni0108" unicode="&#x108;" horiz-adv-x="620" 
d="M562 464q0 59 -8 81t-33 34q-35 19 -103 19q-113 0 -182.5 -91t-69.5 -227q-1 -119 58 -184.5t165 -65.5q45 0 75 15q55 23 109 94q5 0 12 -8.5t6 -13.5q-18 -34 -48.5 -66.5t-54.5 -43.5q-50 -25 -140 -25q-132 0 -203.5 75t-70.5 205q0 103 49 191.5t147 139.5
q76 40 182 40q43 0 102 -9q50 -10 69 -12q-22 -77 -29 -146q-4 -5 -16 -5.5t-16 3.5zM442 788q12 6 21 6q11 -13 50.5 -52.5t54.5 -51.5q0 -5 -6.5 -14t-10.5 -9t-47 22t-56 30q-5 2 -11 0q-16 -8 -69.5 -30t-58.5 -22q-4 0 -8.5 9.5t-2.5 13.5q107 65 144 98z" />
    <glyph glyph-name="uni0109" unicode="&#x109;" horiz-adv-x="337" 
d="M211 360q-39 0 -67.5 -61.5t-28.5 -140.5q0 -109 69 -109q59 0 126 76q4 -4 4 -6q3 -20 -6 -32q-37 -49 -85.5 -75.5t-87.5 -26.5q-53 0 -76 47q-18 34 -18 86q0 68 26.5 135t81.5 107q69 51 120 51q49 0 63 -22q2 -3 2.5 -8.5t-0.5 -7.5q-3 -10 -16.5 -28.5t-22.5 -23.5
q-1 -1 -5 -1t-6 1q-35 39 -73 39zM255 534q-50 -69 -66 -79q-20 -13 -41 -11q-4 2 -4 7q65 77 114 155q2 2 15 6t16 3q6 -22 27.5 -80t30.5 -78q-3 -4 -18.5 -9.5t-24.5 -5.5q-6 1 -44 92q-2 3 -5 0z" />
    <glyph glyph-name="uni010A" unicode="&#x10a;" horiz-adv-x="620" 
d="M562 464q0 59 -8 81t-33 34q-35 19 -103 19q-113 0 -182.5 -91t-69.5 -227q-1 -119 58 -184.5t165 -65.5q45 0 75 15q55 23 109 94q5 0 12 -8.5t6 -13.5q-18 -34 -48.5 -66.5t-54.5 -43.5q-50 -25 -140 -25q-132 0 -203.5 75t-70.5 205q0 103 49 191.5t147 139.5
q76 40 182 40q43 0 102 -9q50 -10 69 -12q-22 -77 -29 -146q-4 -5 -16 -5.5t-16 3.5zM491 728q-7 -33 -27 -46q-4 -2 -24 -3.5t-24 1.5q-20 12 -18 41q0 22 11 31q17 15 48 15q23 0 29 -9q9 -12 5 -30z" />
    <glyph glyph-name="uni010B" unicode="&#x10b;" horiz-adv-x="337" 
d="M211 360q-39 0 -67.5 -61.5t-28.5 -140.5q0 -109 69 -109q59 0 126 76q4 -4 4 -6q3 -20 -6 -32q-37 -49 -85.5 -75.5t-87.5 -26.5q-53 0 -76 47q-18 34 -18 86q0 68 26.5 135t81.5 107q69 51 120 51q49 0 63 -22q2 -3 2.5 -8.5t-0.5 -7.5q-3 -10 -16.5 -28.5t-22.5 -23.5
q-1 -1 -5 -1t-6 1q-35 39 -73 39zM278 581q20 0 25 -7q7 -11 5 -27q-4 -28 -26 -43q-4 -2 -21 -3.5t-22 1.5q-16 10 -16 34q0 21 8 29q14 16 47 16z" />
    <glyph glyph-name="uni010C" unicode="&#x10c;" horiz-adv-x="620" 
d="M562 464q0 59 -8 81t-33 34q-35 19 -103 19q-113 0 -182.5 -91t-69.5 -227q-1 -119 58 -184.5t165 -65.5q45 0 75 15q55 23 109 94q5 0 12 -8.5t6 -13.5q-18 -34 -48.5 -66.5t-54.5 -43.5q-50 -25 -140 -25q-132 0 -203.5 75t-70.5 205q0 103 49 191.5t147 139.5
q76 40 182 40q43 0 102 -9q50 -10 69 -12q-22 -77 -29 -146q-4 -5 -16 -5.5t-16 3.5zM438 671q-5 -4 -22 -7q-8 11 -48 51.5t-57 54.5q1 4 7.5 13t9.5 9q5 0 48 -23t56 -31q5 -2 11 1q18 9 70.5 30.5t56.5 21.5q3 0 7.5 -9t2.5 -13q-116 -75 -142 -98z" />
    <glyph glyph-name="uni010D" unicode="&#x10d;" horiz-adv-x="337" 
d="M211 360q-39 0 -67.5 -61.5t-28.5 -140.5q0 -109 69 -109q59 0 126 76q4 -4 4 -6q3 -20 -6 -32q-37 -49 -85.5 -75.5t-87.5 -26.5q-53 0 -76 47q-18 34 -18 86q0 68 26.5 135t81.5 107q69 51 120 51q49 0 63 -22q2 -3 2.5 -8.5t-0.5 -7.5q-3 -10 -16.5 -28.5t-22.5 -23.5
q-1 -1 -5 -1t-6 1q-35 39 -73 39zM262 521q46 61 67 77q16 12 41 12q3 -3 3 -7q-84 -103 -115 -152q-2 -2 -15 -6t-16 -4q-5 24 -26 79.5t-31 76.5q3 4 18.5 9t24.5 5q10 0 44 -90q1 -1 2.5 -1t2.5 1z" />
    <glyph glyph-name="uni010E" unicode="&#x10e;" horiz-adv-x="680" 
d="M-2 26q45 4 62 7q30 6 39 51q15 75 41.5 234t32.5 213q3 24 -1 34.5t-23 14.5q-26 6 -58 9q-2 5 0 16.5t6 12.5q4 0 49.5 -1.5t70.5 -1.5q126 2 144 2q145 0 219 -79q69 -78 69 -195q0 -85 -35 -155t-96 -114q-100 -83 -271 -83q-37 0 -128 3.5t-124 2.5q-3 3 -2 14.5
t5 14.5zM183 78q-3 -23 13 -32q28 -18 106 -18q93 0 155 52q46 39 73 108t27 143q0 140 -80 202q-60 49 -159 49q-25 0 -43 -4q-10 -3 -14 -18q-48 -251 -78 -482zM382 661q-5 -4 -22 -7q-8 11 -48 51.5t-57 54.5q1 4 7.5 13t9.5 9q5 0 48 -23t56 -31q5 -2 11 1
q18 9 70.5 30.5t56.5 21.5q3 0 7.5 -9t2.5 -13q-116 -75 -142 -98z" />
    <glyph glyph-name="uni010F" unicode="&#x10f;" horiz-adv-x="467" 
d="M40 99q0 67 24.5 132t65.5 105q32 30 81.5 52.5t80.5 22.5q35 0 54 -7q5 -2 5 3q25 115 33 181q3 30 -10 30q-26 0 -65 -17q-1 3 0.5 14.5t3.5 13.5q34 20 79.5 38t64.5 18q15 -1 6 -51l-36.5 -186t-47.5 -248t-17 -123q0 -17 9 -17q20 0 65 45q3 -3 3 -4q2 -14 -5 -31
q-26 -35 -71 -65.5t-64 -30.5q-9 0 -13 12.5t-2 29.5q1 24 18 120q-2 2 -5 0q-49 -66 -105 -108.5t-91 -42.5q-33 0 -47 34.5t-14 79.5zM155 57q23 0 60.5 31t76.5 90q19 30 25 57q8 29 18 90q0 15 -6 20q-26 23 -75 23q-43 0 -75.5 -39.5t-47 -92t-14.5 -105.5
q0 -74 38 -74zM588 698q7 0 4 -15q-5 -26 -25 -93.5t-33 -96.5q-2 -5 -13.5 -15t-18.5 -13q-5 -3 -5 3q22 123 24 180q0 4 4 9q9 9 32 25t31 16z" />
    <glyph glyph-name="uni0110" unicode="&#x110;" horiz-adv-x="690" 
d="M101 589q-2 5 0 16.5t6 12.5q7 0 58 -1.5t62 -1.5q28 0 56.5 0.5t47 1t40.5 0.5q145 0 219 -79q69 -78 69 -193q1 -85 -34 -156.5t-96 -114.5q-99 -83 -272 -83q-36 0 -127.5 3.5t-124.5 2.5q-3 3 -2 14.5t5 14.5q44 4 61 8q17 3 26 14t14 36q8 39 39 217q-16 0 -47 -1
t-39 -1q5 31 13 37h78q23 129 29 195q2 15 1.5 25t-6 15.5t-18.5 8.5q-26 6 -58 9zM327 582q-16 0 -42 -4q-11 -4 -14 -20q-8 -36 -39 -222h68t64.5 0.5t34.5 0.5q2 -9 -10 -37q-8 0 -71 0.5t-91 0.5q-25 -147 -34 -223q-3 -23 13 -32q28 -18 108 -18q90 0 152 52
q48 39 74.5 106t26.5 145q0 139 -80 202q-60 49 -160 49z" />
    <glyph glyph-name="uni0111" unicode="&#x111;" horiz-adv-x="468" 
d="M293 411q36 0 53 -7q6 -2 6 3q4 18 18 90h-123q3 27 10 34h119q7 39 9 58q4 29 -9 29q-23 0 -65 -17q-1 3 0.5 14.5t3.5 13.5q35 21 80.5 38.5t64.5 17.5q13 -1 5 -51l-20 -102h71q1 -4 -2.5 -16.5t-6.5 -17.5h-69q-76 -379 -74 -422q0 -17 8 -17q20 0 65 45q3 0 3 -4
q2 -14 -3 -28q-27 -36 -71 -67t-66 -32q-7 0 -12 13t-3 28q0 21 18 122q-2 2 -5 0q-50 -66 -106.5 -108.5t-90.5 -42.5q-32 0 -46 34.5t-14 79.5q0 67 24.5 132t65.5 105q32 30 81.5 52.5t80.5 22.5zM155 57q24 0 62 31t77 90q17 28 24 57q8 29 18 90q2 14 -6 20
q-24 23 -75 23q-43 0 -75.5 -39.5t-47 -92t-14.5 -105.5q0 -74 37 -74z" />
    <glyph glyph-name="uni0112" unicode="&#x112;" horiz-adv-x="544" 
d="M-7 26q46 4 67 10q18 4 26.5 15.5t14.5 38.5q8 34 38.5 222.5t32.5 216.5q2 27 -1.5 37t-19.5 14q-12 4 -58 10q-3 3 -0.5 14.5t5.5 13.5q6 0 54 -1.5t79 -1.5h185q90 0 113 6q3 -3 3 -7q-14 -39 -31 -137q-3 -3 -16.5 -3t-15.5 2q0 39 -5 64q-3 20 -13 27.5t-35 9.5
q-22 2 -72 2t-70 -2q-10 -3 -15 -17q-13 -74 -36 -221q0 -6 4 -6q106 0 140 1q26 1 42 33q11 25 16 39q3 3 16.5 3t16.5 -4q-12 -45 -21 -94q-3 -18 -8.5 -57.5t-5.5 -41.5q-3 -3 -15.5 -2.5t-14.5 2.5q0 17 -4 43q-3 32 -28 35q-31 3 -141 3q-5 0 -7 -7q-25 -163 -31 -215
q-2 -24 14 -29q18 -4 160 -4q46 -1 76 30q32 35 60 85q3 1 14 -3.5t12 -8.5q-16 -62 -55 -125q-13 -19 -39 -19q-39 0 -128 1.5t-163 1.5q-39 0 -86 -1.5t-57 -1.5q-3 3 -2 14.5t5 14.5zM251 742q20 -2 53 -2q174 0 178 1q-1 -10 -10 -29t-13 -21q-12 -3 -194 -3l-37 2
q1 7 10.5 27.5t12.5 24.5z" />
    <glyph glyph-name="uni0113" unicode="&#x113;" horiz-adv-x="346" 
d="M221 366q-31 0 -61 -36.5t-40 -103.5q-2 -5 3 -5q56 11 101 38q37 23 37 64q0 18 -10.5 30.5t-29.5 12.5zM268 411q25 0 42.5 -18t19.5 -46q1 -65 -97 -117q-41 -22 -113 -46q-6 -2 -6 -9q-2 -10 -2 -20q0 -105 73 -105q66 0 132 70q5 0 5 -6q0 -13 -7 -29
q-34 -45 -84.5 -72.5t-95.5 -27.5q-50 0 -72.5 39t-22.5 99q0 59 22 122.5t64 100.5q30 27 72.5 46t69.5 19zM163 553q2 0 17 -0.5t28 -0.5q152 0 158 2q-1 -8 -11 -28.5t-13 -21.5q-22 -5 -169 -5l-34 2q2 8 12 29.5t12 22.5z" />
    <glyph glyph-name="uni0114" unicode="&#x114;" horiz-adv-x="544" 
d="M-7 26q46 4 67 10q18 4 26.5 15.5t14.5 38.5q8 34 38.5 222.5t32.5 216.5q2 27 -1.5 37t-19.5 14q-12 4 -58 10q-3 3 -0.5 14.5t5.5 13.5q6 0 54 -1.5t79 -1.5h185q90 0 113 6q3 -3 3 -7q-14 -39 -31 -137q-3 -3 -16.5 -3t-15.5 2q0 39 -5 64q-3 20 -13 27.5t-35 9.5
q-22 2 -72 2t-70 -2q-10 -3 -15 -17q-13 -74 -36 -221q0 -6 4 -6q106 0 140 1q26 1 42 33q11 25 16 39q3 3 16.5 3t16.5 -4q-12 -45 -21 -94q-3 -18 -8.5 -57.5t-5.5 -41.5q-3 -3 -15.5 -2.5t-14.5 2.5q0 17 -4 43q-3 32 -28 35q-31 3 -141 3q-5 0 -7 -7q-25 -163 -31 -215
q-2 -24 14 -29q18 -4 160 -4q46 -1 76 30q32 35 60 85q3 1 14 -3.5t12 -8.5q-16 -62 -55 -125q-13 -19 -39 -19q-39 0 -128 1.5t-163 1.5q-39 0 -86 -1.5t-57 -1.5q-3 3 -2 14.5t5 14.5zM359 711q29 0 51 11.5t48 40.5q1 1 10.5 4.5t14.5 3.5t5 -6q-22 -48 -63.5 -75
t-91.5 -27q-46 0 -74.5 21.5t-25.5 58.5q4 6 18.5 16.5t20.5 12.5q2 1 6.5 1t5.5 -1q8 -61 75 -61z" />
    <glyph glyph-name="uni0115" unicode="&#x115;" horiz-adv-x="346" 
d="M221 366q-31 0 -61 -36.5t-40 -103.5q-2 -5 3 -5q56 11 101 38q37 23 37 64q0 18 -10.5 30.5t-29.5 12.5zM268 411q25 0 42.5 -18t19.5 -46q1 -65 -97 -117q-41 -22 -113 -46q-6 -2 -6 -9q-2 -10 -2 -20q0 -105 73 -105q66 0 132 70q5 0 5 -6q0 -13 -7 -29
q-34 -45 -84.5 -72.5t-95.5 -27.5q-50 0 -72.5 39t-22.5 99q0 59 22 122.5t64 100.5q30 27 72.5 46t69.5 19zM258 520q51 0 94 56q1 1 11 4.5t15 3.5q6 0 6 -5q-21 -52 -62 -81t-90 -29q-44 0 -71 23t-23 63q3 7 17 18t21 13q2 1 7 1t7 -1q4 -66 68 -66z" />
    <glyph glyph-name="uni0116" unicode="&#x116;" horiz-adv-x="544" 
d="M-7 26q46 4 67 10q18 4 26.5 15.5t14.5 38.5q8 34 38.5 222.5t32.5 216.5q2 27 -1.5 37t-19.5 14q-12 4 -58 10q-3 3 -0.5 14.5t5.5 13.5q6 0 54 -1.5t79 -1.5h185q90 0 113 6q3 -3 3 -7q-14 -39 -31 -137q-3 -3 -16.5 -3t-15.5 2q0 39 -5 64q-3 20 -13 27.5t-35 9.5
q-22 2 -72 2t-70 -2q-10 -3 -15 -17q-13 -74 -36 -221q0 -6 4 -6q106 0 140 1q26 1 42 33q11 25 16 39q3 3 16.5 3t16.5 -4q-12 -45 -21 -94q-3 -18 -8.5 -57.5t-5.5 -41.5q-3 -3 -15.5 -2.5t-14.5 2.5q0 17 -4 43q-3 32 -28 35q-31 3 -141 3q-5 0 -7 -7q-25 -163 -31 -215
q-2 -24 14 -29q18 -4 160 -4q46 -1 76 30q32 35 60 85q3 1 14 -3.5t12 -8.5q-16 -62 -55 -125q-13 -19 -39 -19q-39 0 -128 1.5t-163 1.5q-39 0 -86 -1.5t-57 -1.5q-3 3 -2 14.5t5 14.5zM394 716q-7 -33 -27 -46q-4 -2 -24 -3.5t-24 1.5q-20 12 -18 41q0 22 11 31
q17 15 48 15q23 0 29 -9q9 -12 5 -30z" />
    <glyph glyph-name="uni0117" unicode="&#x117;" horiz-adv-x="346" 
d="M221 366q-31 0 -61 -36.5t-40 -103.5q-2 -5 3 -5q56 11 101 38q37 23 37 64q0 18 -10.5 30.5t-29.5 12.5zM268 411q25 0 42.5 -18t19.5 -46q1 -65 -97 -117q-41 -22 -113 -46q-6 -2 -6 -9q-2 -10 -2 -20q0 -105 73 -105q66 0 132 70q5 0 5 -6q0 -13 -7 -29
q-34 -45 -84.5 -72.5t-95.5 -27.5q-50 0 -72.5 39t-22.5 99q0 59 22 122.5t64 100.5q30 27 72.5 46t69.5 19zM266 581q20 0 25 -7q7 -11 5 -27q-4 -28 -26 -43q-4 -2 -21 -3.5t-22 1.5q-16 10 -16 34q0 21 8 29q14 16 47 16z" />
    <glyph glyph-name="uni0118" unicode="&#x118;" horiz-adv-x="544" 
d="M372 -4l2 1q-20 0 -99 1.5t-142 1.5q-39 0 -86 -1.5t-57 -1.5q-3 3 -2 14.5t5 14.5q48 5 67 10q18 4 26.5 15.5t14.5 38.5q8 34 38.5 222.5t32.5 216.5q2 27 -1 37t-19 14q-13 4 -59 10q-3 3 -0.5 14.5t5.5 13.5q6 0 54 -1.5t79 -1.5h185q90 0 113 6q1 -1 2 -3.5t1 -3.5
q-13 -36 -31 -138q-3 -3 -16.5 -3t-15.5 2q-3 67 -3 69q-3 19 -13 25.5t-35 7.5q-119 3 -144 0q-10 -3 -15 -17q-13 -74 -36 -221q0 -6 4 -6q126 0 143 1q24 1 39 32q5 10 16 41q3 2 16.5 2t16.5 -3q-15 -58 -21 -99q-4 -24 -14 -93q-3 -2 -15.5 -2t-15.5 2q0 18 -2 42
q-4 31 -28 34q-47 3 -142 3q-5 0 -7 -7q-25 -163 -31 -215q-2 -24 14 -29q18 -4 160 -4q48 -1 75 26q27 30 59 86q3 1 14 -4t12 -9q-17 -65 -53 -121q-13 -19 -54 -20q-73 -66 -73 -105q0 -40 43 -40q29 0 53 16q2 -4 1 -16t-3 -13q-19 -23 -47.5 -34.5t-51.5 -11.5
q-29 0 -50 18t-21 53q0 17 9.5 35t33 40t32.5 29z" />
    <glyph glyph-name="uni0119" unicode="&#x119;" horiz-adv-x="346" 
d="M221 366q-31 0 -61 -36.5t-40 -103.5q-2 -5 4 -5q55 11 100 38q37 23 37 64q0 18 -10.5 30.5t-29.5 12.5zM268 411q26 0 44 -18.5t18 -46.5q0 -65 -97 -116q-41 -22 -113 -46q-6 -2 -6 -9q-2 -10 -2 -20q0 -105 71 -105q68 0 135 70q4 0 4 -6q0 -15 -6 -29
q-28 -39 -94 -78q-66 -52 -66 -99q0 -38 40 -38q26 0 49 15q1 -4 1 -14.5t-2 -12.5q-18 -22 -45 -33.5t-48 -11.5q-28 0 -47 16.5t-19 48.5q0 41 82 112q-13 -5 -34 -5q-49 0 -71 39t-22 99q0 59 22 122.5t64 100.5q30 27 72.5 46t69.5 19z" />
    <glyph glyph-name="uni011A" unicode="&#x11a;" horiz-adv-x="544" 
d="M-7 26q46 4 67 10q18 4 26.5 15.5t14.5 38.5q8 34 38.5 222.5t32.5 216.5q2 27 -1.5 37t-19.5 14q-12 4 -58 10q-3 3 -0.5 14.5t5.5 13.5q6 0 54 -1.5t79 -1.5h185q90 0 113 6q3 -3 3 -7q-14 -39 -31 -137q-3 -3 -16.5 -3t-15.5 2q0 39 -5 64q-3 20 -13 27.5t-35 9.5
q-22 2 -72 2t-70 -2q-10 -3 -15 -17q-13 -74 -36 -221q0 -6 4 -6q106 0 140 1q26 1 42 33q11 25 16 39q3 3 16.5 3t16.5 -4q-12 -45 -21 -94q-3 -18 -8.5 -57.5t-5.5 -41.5q-3 -3 -15.5 -2.5t-14.5 2.5q0 17 -4 43q-3 32 -28 35q-31 3 -141 3q-5 0 -7 -7q-25 -163 -31 -215
q-2 -24 14 -29q18 -4 160 -4q46 -1 76 30q32 35 60 85q3 1 14 -3.5t12 -8.5q-16 -62 -55 -125q-13 -19 -39 -19q-39 0 -128 1.5t-163 1.5q-39 0 -86 -1.5t-57 -1.5q-3 3 -2 14.5t5 14.5zM353 662q-5 -4 -22 -7q-8 11 -48 51.5t-57 54.5q1 4 7.5 13t9.5 9q5 0 48 -23t56 -31
q5 -2 11 1q18 9 70.5 30.5t56.5 21.5q3 0 7.5 -9t2.5 -13q-116 -75 -142 -98z" />
    <glyph glyph-name="uni011B" unicode="&#x11b;" horiz-adv-x="346" 
d="M221 366q-31 0 -61 -36.5t-40 -103.5q-2 -5 3 -5q56 11 101 38q37 23 37 64q0 18 -10.5 30.5t-29.5 12.5zM268 411q25 0 42.5 -18t19.5 -46q1 -65 -97 -117q-41 -22 -113 -46q-6 -2 -6 -9q-2 -10 -2 -20q0 -105 73 -105q66 0 132 70q5 0 5 -6q0 -13 -7 -29
q-34 -45 -84.5 -72.5t-95.5 -27.5q-50 0 -72.5 39t-22.5 99q0 59 22 122.5t64 100.5q30 27 72.5 46t69.5 19zM259 521q46 61 67 77q16 12 41 12q3 -3 3 -7q-84 -103 -115 -152q-2 -2 -15 -6t-16 -4q-5 24 -26 79.5t-31 76.5q3 4 18.5 9t24.5 5q10 0 44 -90q1 -1 2.5 -1
t2.5 1z" />
    <glyph glyph-name="uni011C" unicode="&#x11c;" horiz-adv-x="668" 
d="M573 44q1 -2 -1.5 -11t-4.5 -11q-121 -39 -208 -39q-144 0 -215.5 71t-71.5 201q0 115 57.5 208.5t157.5 135.5q76 34 180 34q46 0 113 -12q56 -9 67 -10q-25 -78 -35 -149q-3 -4 -16 -4.5t-16 2.5q1 53 -5 76.5t-25 35.5q-39 26 -123 26q-119 0 -190 -96.5t-71 -236.5
q0 -117 57.5 -182t161.5 -65q41 0 64 14q17 10 21 32q9 34 21 115q4 25 -1 37t-21 16q-21 4 -68 10q-2 4 0 15.5t5 13.5q8 0 50 -1.5t79 -1.5q39 0 73 1.5t38 1.5q2 -3 1 -14.5t-5 -15.5q-9 -1 -33 -6q-15 -4 -22.5 -14.5t-13.5 -35.5q-14 -70 -18 -116q-2 -16 18 -25z
M459 785q12 6 21 6q11 -13 50.5 -52.5t54.5 -51.5q0 -5 -6.5 -14t-10.5 -9t-47 22t-56 30q-5 2 -11 0q-16 -8 -69.5 -30t-58.5 -22q-4 0 -8.5 9.5t-2.5 13.5q107 65 144 98z" />
    <glyph glyph-name="uni011D" unicode="&#x11d;" horiz-adv-x="387" 
d="M426 401q2 -1 2 -12q-5 -16 -21 -32.5t-32 -21.5q-13 -7 -33 -11q1 -6 1 -27q0 -54 -23 -99.5t-62 -71.5q-32 -23 -81 -34q-18 -6 -22 -8q-17 -11 -17 -19q0 -15 29 -29q89 -41 130 -69q53 -35 53 -79q0 -30 -23 -63t-66 -58q-61 -35 -127 -35q-76 0 -125.5 36t-49.5 88
q0 41 136 123q3 1 0 4q-34 24 -34 48q0 9 6 15q14 16 56 40q0 4 -1 4q-75 17 -75 109q1 51 24.5 99t65.5 77q22 14 54 25t52 11q24 0 66 -21q31 -14 49 -13q41 0 68 24zM186 128q37 0 62.5 47t25.5 105q0 42 -16.5 67t-48.5 25q-40 0 -64.5 -48t-24.5 -104q0 -41 17 -66.5
t49 -25.5zM173 -222q51 1 80.5 21t29.5 49q0 32 -40 61q-27 20 -62 37.5t-49 17.5q-15 0 -60 -33t-45 -56q0 -38 43 -67.5t103 -29.5zM247 541q-50 -69 -66 -79q-20 -13 -41 -11q-4 2 -4 7q65 77 114 155q2 2 15 6t16 3q6 -22 27.5 -80t30.5 -78q-3 -4 -18.5 -9.5
t-24.5 -5.5q-6 1 -44 92q-2 3 -5 0z" />
    <glyph glyph-name="uni011E" unicode="&#x11e;" horiz-adv-x="668" 
d="M573 44q1 -2 -1.5 -11t-4.5 -11q-121 -39 -208 -39q-144 0 -215.5 71t-71.5 201q0 115 57.5 208.5t157.5 135.5q76 34 180 34q46 0 113 -12q56 -9 67 -10q-25 -78 -35 -149q-3 -4 -16 -4.5t-16 2.5q1 53 -5 76.5t-25 35.5q-39 26 -123 26q-119 0 -190 -96.5t-71 -236.5
q0 -117 57.5 -182t161.5 -65q41 0 64 14q17 10 21 32q9 34 21 115q4 25 -1 37t-21 16q-21 4 -68 10q-2 4 0 15.5t5 13.5q8 0 50 -1.5t79 -1.5q39 0 73 1.5t38 1.5q2 -3 1 -14.5t-5 -15.5q-9 -1 -33 -6q-15 -4 -22.5 -14.5t-13.5 -35.5q-14 -70 -18 -116q-2 -16 18 -25z
M469 724q29 0 51 11.5t48 40.5q1 1 10.5 4.5t14.5 3.5t5 -6q-22 -48 -63.5 -75t-91.5 -27q-46 0 -74.5 21.5t-25.5 58.5q4 6 18.5 16.5t20.5 12.5q2 1 6.5 1t5.5 -1q8 -61 75 -61z" />
    <glyph glyph-name="uni011F" unicode="&#x11f;" horiz-adv-x="387" 
d="M426 401q2 -1 2 -12q-5 -16 -21 -32.5t-32 -21.5q-13 -7 -33 -11q1 -6 1 -27q0 -54 -23 -99.5t-62 -71.5q-32 -23 -81 -34q-18 -6 -22 -8q-17 -11 -17 -19q0 -15 29 -29q89 -41 130 -69q53 -35 53 -79q0 -30 -23 -63t-66 -58q-61 -35 -127 -35q-76 0 -125.5 36t-49.5 88
q0 41 136 123q3 1 0 4q-34 24 -34 48q0 9 6 15q14 16 56 40q0 4 -1 4q-75 17 -75 109q1 51 24.5 99t65.5 77q22 14 54 25t52 11q24 0 66 -21q31 -14 49 -13q41 0 68 24zM186 128q37 0 62.5 47t25.5 105q0 42 -16.5 67t-48.5 25q-40 0 -64.5 -48t-24.5 -104q0 -41 17 -66.5
t49 -25.5zM173 -222q51 1 80.5 21t29.5 49q0 32 -40 61q-27 20 -62 37.5t-49 17.5q-15 0 -60 -33t-45 -56q0 -38 43 -67.5t103 -29.5zM258 520q51 0 94 56q1 1 11 4.5t15 3.5q6 0 6 -5q-21 -52 -62 -81t-90 -29q-44 0 -71 23t-23 63q3 7 17 18t21 13q2 1 7 1t7 -1
q4 -66 68 -66z" />
    <glyph glyph-name="uni0120" unicode="&#x120;" horiz-adv-x="668" 
d="M573 44q1 -2 -1.5 -11t-4.5 -11q-121 -39 -208 -39q-144 0 -215.5 71t-71.5 201q0 115 57.5 208.5t157.5 135.5q76 34 180 34q46 0 113 -12q56 -9 67 -10q-25 -78 -35 -149q-3 -4 -16 -4.5t-16 2.5q1 53 -5 76.5t-25 35.5q-39 26 -123 26q-119 0 -190 -96.5t-71 -236.5
q0 -117 57.5 -182t161.5 -65q41 0 64 14q17 10 21 32q9 34 21 115q4 25 -1 37t-21 16q-21 4 -68 10q-2 4 0 15.5t5 13.5q8 0 50 -1.5t79 -1.5q39 0 73 1.5t38 1.5q2 -3 1 -14.5t-5 -15.5q-9 -1 -33 -6q-15 -4 -22.5 -14.5t-13.5 -35.5q-14 -70 -18 -116q-2 -16 18 -25z
M508 728q-7 -33 -27 -46q-4 -2 -24 -3.5t-24 1.5q-20 12 -18 41q0 22 11 31q17 15 48 15q23 0 29 -9q9 -12 5 -30z" />
    <glyph glyph-name="uni0121" unicode="&#x121;" horiz-adv-x="387" 
d="M426 401q2 -1 2 -12q-5 -16 -21 -32.5t-32 -21.5q-13 -7 -33 -11q1 -6 1 -27q0 -54 -23 -99.5t-62 -71.5q-32 -23 -81 -34q-18 -6 -22 -8q-17 -11 -17 -19q0 -15 29 -29q89 -41 130 -69q53 -35 53 -79q0 -30 -23 -63t-66 -58q-61 -35 -127 -35q-76 0 -125.5 36t-49.5 88
q0 41 136 123q3 1 0 4q-34 24 -34 48q0 9 6 15q14 16 56 40q0 4 -1 4q-75 17 -75 109q1 51 24.5 99t65.5 77q22 14 54 25t52 11q24 0 66 -21q31 -14 49 -13q41 0 68 24zM186 128q37 0 62.5 47t25.5 105q0 42 -16.5 67t-48.5 25q-40 0 -64.5 -48t-24.5 -104q0 -41 17 -66.5
t49 -25.5zM173 -222q51 1 80.5 21t29.5 49q0 32 -40 61q-27 20 -62 37.5t-49 17.5q-15 0 -60 -33t-45 -56q0 -38 43 -67.5t103 -29.5zM264 582q20 0 25 -7q7 -11 5 -27q-4 -28 -26 -43q-4 -2 -21 -3.5t-22 1.5q-16 10 -16 34q0 21 8 29q14 16 47 16z" />
    <glyph glyph-name="uni0122" unicode="&#x122;" horiz-adv-x="668" 
d="M573 44q1 -2 -1.5 -11t-4.5 -11q-121 -39 -208 -39q-144 0 -215.5 71t-71.5 201q0 115 57.5 208.5t157.5 135.5q76 34 180 34q46 0 113 -12q56 -9 67 -10q-25 -78 -35 -149q-3 -4 -16 -4.5t-16 2.5q1 53 -5 76.5t-25 35.5q-39 26 -123 26q-119 0 -190 -96.5t-71 -236.5
q0 -117 57.5 -182t161.5 -65q41 0 64 14q17 10 21 32q9 34 21 115q4 25 -1 37t-21 16q-21 4 -68 10q-2 4 0 15.5t5 13.5q8 0 50 -1.5t79 -1.5q39 0 73 1.5t38 1.5q2 -3 1 -14.5t-5 -15.5q-9 -1 -33 -6q-15 -4 -22.5 -14.5t-13.5 -35.5q-14 -70 -18 -116q-2 -16 18 -25z
M342 -53q19 0 33.5 -24t8.5 -55q-7 -39 -39.5 -65.5t-84.5 -37.5q-3 1 -6 11t-2 14q40 14 56 27.5t19 31.5q4 32 -48 46q-3 8 3 16q10 13 28 24.5t32 11.5z" />
    <glyph glyph-name="uni0123" unicode="&#x123;" horiz-adv-x="387" 
d="M240 452q-19 0 -33.5 23.5t-8.5 55.5q7 39 39.5 65t84.5 37q3 -1 6 -10.5t2 -13.5q-40 -14 -56.5 -28t-18.5 -31q-4 -33 47 -47q2 -3 -2 -16q-11 -13 -28.5 -24t-31.5 -11zM426 401q2 -1 2 -12q-5 -16 -21 -32.5t-32 -21.5q-13 -7 -33 -11q1 -6 1 -27q0 -54 -23 -99.5
t-62 -71.5q-32 -23 -81 -34q-18 -6 -22 -8q-17 -11 -17 -19q0 -15 29 -29q89 -41 130 -69q53 -35 53 -79q0 -30 -23 -63t-66 -58q-61 -35 -127 -35q-76 0 -125.5 36t-49.5 88q0 41 136 123q3 1 0 4q-34 24 -34 48q0 9 6 15q14 16 56 40q0 4 -1 4q-75 17 -75 109
q1 51 24.5 99t65.5 77q22 14 54 25t52 11q24 0 66 -21q31 -14 49 -13q41 0 68 24zM186 128q37 0 62.5 47t25.5 105q0 42 -16.5 67t-48.5 25q-40 0 -64.5 -48t-24.5 -104q0 -41 17 -66.5t49 -25.5zM173 -222q51 1 80.5 21t29.5 49q0 32 -40 61q-27 20 -62 37.5t-49 17.5
q-15 0 -60 -33t-45 -56q0 -38 43 -67.5t103 -29.5z" />
    <glyph glyph-name="uni0124" unicode="&#x124;" horiz-adv-x="724" 
d="M97 589q-2 4 -0.5 15.5t4.5 13.5q9 0 50 -1.5t70 -1.5q34 0 76.5 1.5t46.5 1.5q2 -2 1 -14t-4 -15q-35 -4 -49 -8q-16 -5 -24 -14t-12 -32q-11 -52 -32 -189q0 -7 4 -8q10 -2 166 -2q139 0 149 1q6 3 6 8q21 118 30 198q3 31 -19 37q-9 3 -52 10q-2 3 -0.5 14.5t4.5 13.5
q6 0 46 -1.5t71 -1.5q38 0 77 1.5t43 1.5q2 -3 1 -14.5t-4 -13.5q-37 -5 -51 -10q-17 -6 -23.5 -17.5t-12.5 -39.5q-9 -51 -36.5 -224.5t-31.5 -215.5q-4 -40 22 -48q17 -5 57 -9q2 -4 0.5 -15t-5.5 -14q-5 0 -51 1.5t-76 1.5q-46 0 -124 -3q-3 3 -2 15t5 14q44 6 56 10
q24 8 33 46q12 55 34 203q0 7 -4 7q-21 2 -150 2q-158 0 -167 -1q-1 0 -3 -2.5t-2 -3.5q-26 -171 -29 -194q-4 -30 1 -42t24 -16q7 -2 55 -9q2 -3 -0.5 -15.5t-5.5 -13.5q-6 0 -50 1.5t-77 1.5q-36 0 -81 -1.5t-51 -1.5q-2 4 -0.5 15t3.5 14q42 5 55 8q22 4 30.5 18t16.5 55
q58 339 67 426q5 41 -19 47q-13 4 -56 9zM452 782q12 6 21 6q11 -13 50.5 -52.5t54.5 -51.5q0 -5 -6.5 -14t-10.5 -9t-47 22t-56 30q-5 2 -11 0q-16 -8 -69.5 -30t-58.5 -22q-4 0 -8.5 9.5t-2.5 13.5q107 65 144 98z" />
    <glyph glyph-name="uni0125" unicode="&#x125;" horiz-adv-x="467" 
d="M187 790q5 3 22 6q8 -9 49 -43.5t59 -46.5q-1 -3 -7.5 -12t-9.5 -9q-4 0 -50.5 20.5t-56.5 26.5q-5 2 -10 -1q-16 -8 -64 -27t-52 -19q-3 0 -6 8.5t-2 12.5q24 13 70.5 43t57.5 41zM321 345q-24 0 -67 -38t-80 -98q-35 -55 -49 -119q-12 -52 -5 -70q-10 -9 -36.5 -23.5
t-34.5 -14.5q-2 0 -5 4.5t-3 7.5q0 11 8 57q11 64 35 190.5l43 225t22 124.5q1 22 -11 22q-17 0 -59 -19q-1 3 1 15t4 14q29 21 73.5 41t63.5 20q16 0 7 -53q-8 -44 -38.5 -198.5l-38.5 -196.5q1 -1 4 0q56 76 119.5 125.5t106.5 49.5q25 0 29 -31.5t-9 -88.5l-14 -69.5
t-15 -76l-10 -55.5q-1 -26 10 -26q21 0 61 43q3 -3 3 -6q2 -12 -4 -29q-31 -40 -69 -64t-57 -24q-14 0 -19 19t0 50q6 40 47 234q6 31 3 44.5t-16 13.5z" />
    <glyph glyph-name="Hbar" unicode="&#x126;" horiz-adv-x="724" 
d="M97 589q-1 4 0.5 15.5t3.5 13.5q9 0 50 -1.5t70 -1.5q34 0 76.5 1.5t46.5 1.5q2 -2 1 -14t-4 -15q-35 -4 -49 -8q-16 -5 -24 -14t-12 -32q0 -1 -6 -33t-9 -53h325l13 94q3 31 -19 37q-9 3 -52 10q-2 3 -0.5 14.5t4.5 13.5q6 0 46 -1.5t71 -1.5q38 0 77 1.5t43 1.5
q2 -3 1 -14.5t-4 -13.5q-37 -5 -51 -10q-17 -6 -23.5 -17.5t-12.5 -39.5l-13 -73h73q0 -20 -10 -35h-68q-45 -278 -50 -332q-4 -40 22 -48q17 -5 57 -9q2 -4 0.5 -15t-5.5 -14q-5 0 -51 1.5t-76 1.5q-46 0 -124 -3q-3 3 -2 15t5 14q44 6 56 10q24 8 33 46q15 72 32 183
q0 7 -6 7q-21 2 -148 2q-158 0 -167 -1q-1 0 -3 -2.5t-2 -3.5l-9.5 -58t-11 -70.5t-6.5 -45.5q-4 -30 1 -42t24 -16q7 -2 55 -9q2 -3 -0.5 -15.5t-5.5 -13.5q-6 0 -50 1.5t-77 1.5q-36 0 -81 -1.5t-51 -1.5q-2 4 -0.5 15t3.5 14q42 5 55 8q22 4 30.5 18t16.5 55
q17 88 50 307h-74q-1 5 3 19t7 17h70q2 13 4.5 32t4.5 32.5t2 18.5q5 41 -19 47q-13 4 -56 9zM392 316q138 0 148 1q5 0 7 8q11 55 14 90h-325q-1 -8 -14 -89q0 -7 4 -8q10 -2 166 -2z" />
    <glyph glyph-name="hbar" unicode="&#x127;" horiz-adv-x="470" 
d="M79 594q-1 3 1 15t4 14q31 20 75.5 40.5t62.5 20.5q15 0 6 -53l-20 -101l127 1q2 -12 -10 -33l-124 -1l-19.5 -98.5l-19.5 -99.5t-12 -64q1 -1 4 0q57 77 121 126.5t107 49.5q41 0 23 -104l-15 -73l-17.5 -86t-10.5 -61q-3 -23 10 -23q22 0 60 43q3 -3 4 -6q2 -14 -2 -25
q-30 -40 -69.5 -66t-58.5 -26q-13 0 -18.5 19.5t-0.5 49.5q5 32 50 249q8 43 -15 43q-26 0 -69.5 -39.5t-79.5 -97.5q-34 -56 -49 -124q-11 -47 -4 -65q-11 -9 -36.5 -23.5t-33.5 -14.5q-2 0 -5 4.5t-3 8.5q0 15 7 57q9 51 40.5 214.5t43.5 231.5h-67q3 26 10 33h63l10 60
q2 23 -10 23q-17 0 -60 -19z" />
    <glyph glyph-name="uni0128" unicode="&#x128;" horiz-adv-x="318" 
d="M95 590q-2 4 -1 14.5t5 13.5q5 0 49.5 -1.5t74.5 -1.5q28 0 72.5 1.5t52.5 1.5q3 -4 1.5 -14.5t-4.5 -13.5q-10 -2 -28 -4t-22 -3q-18 -4 -25.5 -13.5t-13.5 -34.5q-9 -42 -37 -216q-31 -207 -34 -230q-3 -25 1.5 -37.5t23.5 -17.5q13 -3 57 -9q2 -4 0.5 -14.5
t-5.5 -13.5q-10 0 -56.5 1.5t-72.5 1.5q-30 0 -79 -1.5t-56 -1.5q-2 3 -1 14t4 14q33 3 55 8q34 8 41 42q15 64 46 264q22 134 30 198q2 22 -1.5 31t-18.5 13q-3 1 -58 9zM303 734q37 0 73 32q2 2 4 -6q5 -15 3 -21q-15 -20 -50 -40.5t-62 -20.5q-17 0 -65 17q-26 7 -35 7
q-26 0 -69 -30l-4 5q-5 19 -1 22q13 15 47.5 36.5t53.5 21.5q18 0 59 -13q32 -10 46 -10z" />
    <glyph glyph-name="uni0129" unicode="&#x129;" horiz-adv-x="235" 
d="M201 107q3 -1 3 -3q3 -14 -3 -29q-32 -43 -69.5 -67t-56.5 -24q-36 0 -16 94l47 230q5 22 -4 22q-15 0 -54 -30q-3 1 -3 3q-4 13 4 26q31 31 69.5 56.5t56.5 25.5q21 0 6 -70q-3 -16 -25.5 -120.5t-25.5 -131.5q-3 -26 10 -26q20 0 61 44zM227 539q31 0 65 29q2 1 4 -5
q5 -15 2 -21q-16 -20 -47 -39t-56 -19q-13 0 -58 15q-20 8 -36 8q-26 0 -65 -28l-3 7q-4 17 -1 20q13 14 46 35t51 21q13 0 54 -13q27 -10 44 -10z" />
    <glyph glyph-name="uni012A" unicode="&#x12a;" horiz-adv-x="318" 
d="M95 590q-2 4 -1 14.5t5 13.5q5 0 49.5 -1.5t74.5 -1.5q28 0 72.5 1.5t52.5 1.5q3 -4 1.5 -14.5t-4.5 -13.5q-10 -2 -28 -4t-22 -3q-18 -4 -25.5 -13.5t-13.5 -34.5q-9 -42 -37 -216q-31 -207 -34 -230q-3 -25 1.5 -37.5t23.5 -17.5q13 -3 57 -9q2 -4 0.5 -14.5
t-5.5 -13.5q-10 0 -56.5 1.5t-72.5 1.5q-30 0 -79 -1.5t-56 -1.5q-2 3 -1 14t4 14q33 3 55 8q34 8 41 42q15 64 46 264q22 134 30 198q2 22 -1.5 31t-18.5 13q-3 1 -58 9zM137 738q20 -2 53 -2q174 0 178 1q-1 -10 -10 -29t-13 -21q-12 -3 -194 -3l-37 2q1 7 10.5 27.5
t12.5 24.5z" />
    <glyph glyph-name="uni012B" unicode="&#x12b;" horiz-adv-x="235" 
d="M201 107q3 -1 3 -3q3 -14 -3 -29q-32 -43 -69.5 -67t-56.5 -24q-36 0 -16 94l47 230q5 22 -4 22q-15 0 -54 -30q-3 1 -3 3q-4 13 4 26q31 31 69.5 56.5t56.5 25.5q21 0 6 -70q-3 -16 -25.5 -120.5t-25.5 -131.5q-3 -26 10 -26q20 0 61 44zM81 553q2 0 17 -0.5t28 -0.5
q152 0 158 2q-1 -8 -11 -28.5t-13 -21.5q-22 -5 -169 -5l-34 2q2 8 12 29.5t12 22.5z" />
    <glyph glyph-name="uni012C" unicode="&#x12c;" horiz-adv-x="318" 
d="M95 590q-2 4 -1 14.5t5 13.5q5 0 49.5 -1.5t74.5 -1.5q28 0 72.5 1.5t52.5 1.5q3 -4 1.5 -14.5t-4.5 -13.5q-10 -2 -28 -4t-22 -3q-18 -4 -25.5 -13.5t-13.5 -34.5q-9 -42 -37 -216q-31 -207 -34 -230q-3 -25 1.5 -37.5t23.5 -17.5q13 -3 57 -9q2 -4 0.5 -14.5
t-5.5 -13.5q-10 0 -56.5 1.5t-72.5 1.5q-30 0 -79 -1.5t-56 -1.5q-2 3 -1 14t4 14q33 3 55 8q34 8 41 42q15 64 46 264q22 134 30 198q2 22 -1.5 31t-18.5 13q-3 1 -58 9zM247 712q29 0 51 11.5t48 40.5q1 1 10.5 4.5t14.5 3.5t5 -6q-22 -48 -63.5 -75t-91.5 -27
q-46 0 -74.5 21.5t-25.5 58.5q4 6 18.5 16.5t20.5 12.5q2 1 6.5 1t5.5 -1q8 -61 75 -61z" />
    <glyph glyph-name="uni012D" unicode="&#x12d;" horiz-adv-x="235" 
d="M201 107q3 -1 3 -3q3 -14 -3 -29q-32 -43 -69.5 -67t-56.5 -24q-36 0 -16 94l47 230q5 22 -4 22q-15 0 -54 -30q-3 1 -3 3q-4 13 4 26q31 31 69.5 56.5t56.5 25.5q21 0 6 -70q-3 -16 -25.5 -120.5t-25.5 -131.5q-3 -26 10 -26q20 0 61 44zM177 520q51 0 94 56q1 1 11 4.5
t15 3.5q6 0 6 -5q-21 -52 -62 -81t-90 -29q-44 0 -71 23t-23 63q3 7 17 18t21 13q2 1 7.5 1t6.5 -1q4 -66 68 -66z" />
    <glyph glyph-name="uni012E" unicode="&#x12e;" horiz-adv-x="318" 
d="M126 -1l1 1h-4q-30 0 -74 -1.5t-51 -1.5q-2 3 -1 14t4 14q33 3 55 8q34 8 41 42q15 64 46 264q22 134 30 198q2 22 -1.5 31t-18.5 13q-3 1 -58 9q-2 4 -1 14.5t5 13.5q5 0 49.5 -1.5t74.5 -1.5q28 0 72.5 1.5t52.5 1.5q3 -4 1.5 -14t-4.5 -14q-10 -2 -28 -4t-22 -3
q-18 -4 -25.5 -13.5t-13.5 -34.5q-9 -42 -37 -216q-31 -207 -34 -230q-3 -25 1.5 -37.5t23.5 -17.5q13 -3 57 -9q2 -4 0.5 -14.5t-5.5 -13.5q-2 0 -39 1t-61 0q-63 -63 -63 -107q0 -40 43 -40q30 0 54 16q1 -5 0.5 -16t-2.5 -13q-20 -23 -48.5 -34.5t-50.5 -11.5
q-30 0 -50.5 18.5t-20.5 52.5q0 53 102 136z" />
    <glyph glyph-name="uni012F" unicode="&#x12f;" horiz-adv-x="235" 
d="M192 583q19 0 24 -8q8 -9 5 -27q-5 -30 -26 -43q-5 -3 -22 -5t-22 1q-15 10 -16 36q3 21 9 29q19 17 48 17zM201 75q-22 -28 -42 -45q-92 -81 -92 -131q0 -19 11.5 -29.5t29.5 -10.5q25 0 50 15q1 -4 0 -15t-2 -12q-18 -22 -45 -33t-48 -11q-28 0 -47 16t-19 47
q0 40 82 118q-19 -2 -24.5 20t4.5 74l47 231q5 22 -4 22q-16 0 -55 -30l-1 1q-2 1 -3 2q-2 15 5 26q30 30 71 55.5t58 25.5q18 -2 5 -70q-3 -16 -16 -74t-23 -107t-13 -71q-3 -26 10 -26q18 0 61 44q3 -1 3 -3q3 -14 -3 -29z" />
    <glyph glyph-name="uni0130" unicode="&#x130;" horiz-adv-x="318" 
d="M95 590q-2 4 -1 14.5t5 13.5q5 0 49.5 -1.5t74.5 -1.5q28 0 72.5 1.5t52.5 1.5q3 -4 1.5 -14.5t-4.5 -13.5q-10 -2 -28 -4t-22 -3q-18 -4 -25.5 -13.5t-13.5 -34.5q-9 -42 -37 -216q-31 -207 -34 -230q-3 -25 1.5 -37.5t23.5 -17.5q13 -3 57 -9q2 -4 0.5 -14.5
t-5.5 -13.5q-10 0 -56.5 1.5t-72.5 1.5q-30 0 -79 -1.5t-56 -1.5q-2 3 -1 14t4 14q33 3 55 8q34 8 41 42q15 64 46 264q22 134 30 198q2 22 -1.5 31t-18.5 13q-3 1 -58 9zM284 716q-7 -33 -27 -46q-4 -2 -24 -3.5t-24 1.5q-20 12 -18 41q0 22 11 31q17 15 48 15q23 0 29 -9
q9 -12 5 -30z" />
    <glyph glyph-name="dotlessi" unicode="&#x131;" horiz-adv-x="235" 
d="M201 107q3 -1 3 -3q3 -14 -3 -29q-32 -43 -69.5 -67t-56.5 -24q-36 0 -16 94l47 230q5 22 -4 22q-15 0 -54 -30q-3 1 -3 3q-4 13 4 26q31 31 69.5 56.5t56.5 25.5q21 0 6 -70q-3 -16 -25.5 -120.5t-25.5 -131.5q-3 -26 10 -26q20 0 61 44z" />
    <glyph glyph-name="IJ" unicode="&#x132;" horiz-adv-x="631" 
d="M95 590q-2 4 -1 14.5t5 13.5q5 0 49.5 -1.5t74.5 -1.5q28 0 72.5 1.5t52.5 1.5q3 -4 1.5 -14.5t-4.5 -13.5q-10 -2 -28 -4t-22 -3q-18 -4 -25.5 -13.5t-13.5 -34.5q-9 -42 -37 -216q-31 -207 -34 -230q-3 -25 1.5 -37.5t23.5 -17.5q13 -3 57 -9q2 -4 0.5 -14.5
t-5.5 -13.5q-10 0 -56.5 1.5t-72.5 1.5q-30 0 -79 -1.5t-56 -1.5q-2 3 -1 14t4 14q33 3 55 8q34 8 41 42q15 64 46 264q22 134 30 198q2 22 -1.5 31t-18.5 13q-3 1 -58 9zM414 589q-3 5 -0.5 16t5.5 13q11 0 50 -1.5t75 -1.5q38 0 76 1.5t44 1.5q3 -3 1.5 -14t-4.5 -15
q-33 -5 -50 -9q-23 -7 -31 -39q-4 -18 -34 -207t-39 -239q-13 -71 -25 -112.5t-34 -76.5q-62 -97 -173 -131q-4 1 -10.5 9t-7.5 13q0 5 2 7q60 25 98 69q34 37 58 163q19 92 47 270t31 219q2 16 1.5 27t-5.5 17.5t-17 10.5q-12 3 -58 9z" />
    <glyph glyph-name="ij" unicode="&#x133;" horiz-adv-x="475" 
d="M201 107q3 -1 3 -3q3 -14 -3 -29q-32 -43 -69.5 -67t-56.5 -24q-36 0 -16 94l47 230q5 22 -4 22q-16 0 -54 -30q-3 1 -3 3q-4 13 4 26q31 31 69.5 56.5t56.5 25.5q21 0 6 -70q-3 -16 -25.5 -120.5t-25.5 -131.5q-3 -26 10 -26q20 0 61 44zM192 583q19 0 24 -7
q7 -10 5 -27q-3 -28 -25 -43q-5 -3 -23 -4.5t-22 1.5q-15 9 -16 34q2 20 9 28q18 18 48 18zM169 -262q-4 0 -10 9t-5 14q62 35 90.5 80.5t45.5 126.5q45 222 60 338q4 19 -6 19q-11 0 -62 -37l-3 6q-1 4 0 12.5t2 10.5q37 36 78.5 65.5t63.5 28.5q17 0 8 -65
q-27 -169 -55 -306q-16 -82 -38 -134t-64 -96q-49 -52 -105 -72zM427 583q19 0 25 -9q6 -8 4 -25q-3 -31 -26 -44q-5 -3 -22.5 -4t-21.5 1q-15 9 -15 34q0 20 9 29q16 18 47 18z" />
    <glyph glyph-name="uni0134" unicode="&#x134;" horiz-adv-x="312" 
d="M96 589q-3 5 -0.5 16t5.5 13q11 0 50 -1.5t75 -1.5q38 0 76 1.5t44 1.5q3 -3 1.5 -14t-4.5 -15q-33 -5 -50 -9q-23 -7 -31 -39q-4 -18 -34 -207t-39 -239q-13 -71 -25 -112.5t-34 -76.5q-62 -97 -173 -131q-4 1 -10.5 9t-7.5 13q0 5 2 7q60 25 98 69q34 37 58 163
q19 92 47 270t31 219q2 16 1.5 27t-5.5 17.5t-17 10.5q-12 3 -58 9zM240 781q12 6 21 6q11 -13 50.5 -52.5t54.5 -51.5q0 -5 -6.5 -14t-10.5 -9t-47 22t-56 30q-5 2 -11 0q-16 -8 -69.5 -30t-58.5 -22q-4 0 -8.5 9.5t-2.5 13.5q107 65 144 98z" />
    <glyph glyph-name="uni0135" unicode="&#x135;" horiz-adv-x="240" 
d="M-66 -262q-4 0 -10 9t-5 14q62 35 90.5 80.5t45.5 126.5q45 222 60 338q4 19 -6 19q-11 0 -62 -37l-3 6q-1 4 0 12.5t2 10.5q35 34 77 63.5t65 30.5q17 0 8 -65q-27 -169 -55 -306q-16 -82 -38 -134t-64 -96q-49 -52 -105 -72zM169 534q-50 -69 -66 -79q-20 -13 -41 -11
q-4 2 -4 7q65 77 114 155q2 2 15 6t16 3q6 -22 27.5 -80t30.5 -78q-3 -4 -18.5 -9.5t-24.5 -5.5q-6 1 -44 92q-2 3 -5 0z" />
    <glyph glyph-name="uni0136" unicode="&#x136;" horiz-adv-x="625" 
d="M94 590q-2 3 -0.5 14t4.5 14q8 0 52 -1.5t74 -1.5q29 0 71 1.5t51 1.5q2 -3 2 -13.5t-4 -14.5q-45 -7 -53 -9q-17 -4 -24.5 -15.5t-12.5 -38.5q-32 -172 -69 -430q-3 -34 4 -46t27 -18l24 -3.5t28 -4.5q2 -3 0.5 -14t-4.5 -14q-13 0 -58 1.5t-81 1.5q-41 0 -83.5 -1.5
t-43.5 -1.5q-2 3 -1 14t4 14q10 2 30 4.5t27 4.5q19 5 29.5 18.5t15.5 41.5q43 246 69 441q3 23 -1.5 32.5t-22.5 13.5zM436 590q-3 4 -1.5 14.5t5.5 13.5q6 0 45 -1.5t69 -1.5q40 0 118 3q3 -2 2 -13.5t-5 -14.5q-46 -8 -72.5 -20.5t-59.5 -43.5q-138 -134 -218 -200l-1 -5
q38 -63 98 -144t101 -120q20 -17 38 -21q24 -9 67 -10q3 -3 1 -15t-6 -14q-39 -4 -91 -1.5t-67 10.5q-18 7 -44 35q-56 62 -170 241q-5 8 -15 18q-3 8 6 15q33 11 111.5 79.5t122.5 117.5q32 35 32 49q2 13 -13 18q-18 6 -53 11zM336 -32q19 0 33.5 -24t8.5 -55
q-7 -39 -39.5 -65.5t-84.5 -37.5q-3 1 -6 11t-2 14q40 14 56 27.5t19 31.5q4 32 -48 46q-3 8 3 16q10 13 28 24.5t32 11.5z" />
    <glyph glyph-name="uni0137" unicode="&#x137;" horiz-adv-x="436" 
d="M219 684q17 0 6 -56l-80 -408q0 -3 2 -4.5t4 0.5q45 61 116 128t113 67q37 0 51 -18q0 -10 -1 -13q-2 -11 -15 -31t-20 -22q-28 19 -59 19q-24 0 -64.5 -37t-64.5 -69q-3 -5 0 -8q18 -22 32 -47q48 -77 73.5 -103t45.5 -26q30 0 74 58q1 0 3 -2.5t2 -3.5q0 -24 -6 -33
q-23 -35 -56.5 -60.5t-59.5 -25.5q-30 0 -59 39q-16 22 -49 77.5t-38 64.5q-6 13 -15 4q-19 -22 -27 -54q-3 -12 -6 -29t-4 -20q-4 -35 5 -50q-4 -7 -34 -23t-38 -16q-10 0 -10 22q2 26 25 146q77 408 80 437q5 24 -8 24q-15 1 -59 -18q-2 2 0 14t4 14q34 22 77.5 42.5
t59.5 20.5zM190 -32q19 0 33.5 -24t8.5 -55q-7 -39 -39.5 -65.5t-84.5 -37.5q-3 1 -6 11t-2 14q40 14 56 27.5t19 31.5q4 32 -48 46q-3 8 3 16q10 13 28 24.5t32 11.5z" />
    <glyph glyph-name="uni0138" unicode="&#x138;" horiz-adv-x="434" 
d="M37 294q-3 8 4 29q30 36 69.5 61.5t57.5 25.5q10 1 11 -25.5t-5 -57.5q-13 -78 -22 -119q-2 -6 0 -5q1 0 3 2q167 206 236 206q26 0 35 -15q0 -7 -12.5 -37t-17.5 -34q-27 16 -48 16q-8 0 -16 -2.5t-17 -8t-17 -11t-18 -15l-16.5 -16t-17 -18t-15 -17l-14.5 -17
t-12 -14.5q-1 -2 0 -5q12 -7 31 -42q42 -77 62.5 -102t35.5 -25q28 0 75 58q6 0 6 -5q3 -21 -4 -30q-30 -42 -63.5 -64t-59.5 -22q-23 0 -50 43q-7 11 -63 120q-16 29 -29 29q-2 -12 -7 -35l-8.5 -39t-7 -34.5t-4.5 -31.5t0 -20q-7 -8 -34 -20t-36 -13q-4 -1 -6.5 2.5
t-1.5 7.5q2 17 29 143.5t33 168.5q3 22 -7 22q-15 0 -55 -38q-4 0 -4 4z" />
    <glyph glyph-name="uni0139" unicode="&#x139;" horiz-adv-x="543" 
d="M93 589q-2 4 -0.5 15.5t4.5 13.5q10 0 53 -1.5t79 -1.5q31 0 72.5 1.5t47.5 1.5q2 -3 1 -14t-4 -14q-22 -3 -56 -10q-28 -7 -34 -41q-13 -71 -41.5 -251t-31.5 -215q-3 -24 11 -30q15 -5 73 -6t101 0q30 1 59 32.5t71 106.5q6 1 15 -3.5t11 -9.5q-9 -35 -28.5 -80.5
t-36.5 -66.5q-13 -19 -48 -19q-39 -1 -154 1t-125 2q-41 0 -88 -2t-49 -2q-3 4 -2 15.5t5 13.5q51 8 64 11q29 8 37 45q30 138 73 446q4 30 -1.5 40t-25.5 15q-12 3 -52 7zM396 752q3 -4 0 -12q-14 -10 -94.5 -49t-86.5 -39q-3 0 -9.5 10.5t-4.5 12.5q117 101 138 114
q11 0 30.5 -13.5t26.5 -23.5z" />
    <glyph glyph-name="uni013A" unicode="&#x13a;" horiz-adv-x="230" 
d="M72 592q-1 3 2 15.5t5 13.5q38 24 80.5 43.5t58.5 19.5t6 -61q-92 -488 -96 -523q-5 -37 10 -37q25 0 68 47q3 0 3 -6q0 -24 -6 -30q-30 -39 -69 -64t-63 -25q-32 0 -16 93l43.5 236.5t47.5 270.5q3 26 -8 26q-25 0 -66 -19zM338 800q3 -4 0 -12q-14 -10 -94.5 -49
t-86.5 -39q-3 0 -9.5 10.5t-4.5 12.5q117 101 138 114q11 0 30.5 -13.5t26.5 -23.5z" />
    <glyph glyph-name="uni013B" unicode="&#x13b;" horiz-adv-x="543" 
d="M93 589q-2 4 -0.5 15.5t4.5 13.5q10 0 53 -1.5t79 -1.5q31 0 72.5 1.5t47.5 1.5q2 -3 1 -14t-4 -14q-22 -3 -56 -10q-28 -7 -34 -41q-13 -71 -41.5 -251t-31.5 -215q-3 -24 11 -30q15 -5 73 -6t101 0q30 1 59 32.5t71 106.5q6 1 15 -3.5t11 -9.5q-9 -35 -28.5 -80.5
t-36.5 -66.5q-13 -19 -48 -19q-39 -1 -154 1t-125 2q-41 0 -88 -2t-49 -2q-3 4 -2 15.5t5 13.5q51 8 64 11q29 8 37 45q30 138 73 446q4 30 -1.5 40t-25.5 15q-12 3 -52 7zM248 -39q19 0 33.5 -24t8.5 -55q-7 -39 -39.5 -65.5t-84.5 -37.5q-3 1 -6 11t-2 14q40 14 56 27.5
t19 31.5q4 32 -48 46q-3 8 3 16q10 13 28 24.5t32 11.5z" />
    <glyph glyph-name="uni013C" unicode="&#x13c;" horiz-adv-x="230" 
d="M72 592q-1 3 2 15.5t5 13.5q38 24 80.5 43.5t58.5 19.5t6 -61q-92 -488 -96 -523q-5 -37 10 -37q25 0 68 47q3 0 3 -6q0 -24 -6 -30q-30 -39 -69 -64t-63 -25q-32 0 -16 93l43.5 236.5t47.5 270.5q3 26 -8 26q-25 0 -66 -19zM94 -45q19 0 33.5 -24t8.5 -55
q-7 -39 -39.5 -65.5t-84.5 -37.5q-3 1 -6 11t-2 14q40 14 56 27.5t19 31.5q4 32 -48 46q-3 8 3 16q10 13 28 24.5t32 11.5z" />
    <glyph glyph-name="uni013D" unicode="&#x13d;" horiz-adv-x="543" 
d="M93 589q-2 4 -0.5 15.5t4.5 13.5q10 0 53 -1.5t79 -1.5q31 0 72.5 1.5t47.5 1.5q2 -3 1 -14t-4 -14q-22 -3 -56 -10q-28 -7 -34 -41q-13 -71 -41.5 -251t-31.5 -215q-3 -24 11 -30q15 -5 73 -6t101 0q30 1 59 32.5t71 106.5q6 1 15 -3.5t11 -9.5q-9 -35 -28.5 -80.5
t-36.5 -66.5q-13 -19 -48 -19q-39 -1 -154 1t-125 2q-41 0 -88 -2t-49 -2q-3 4 -2 15.5t5 13.5q51 8 64 11q29 8 37 45q30 138 73 446q4 30 -1.5 40t-25.5 15q-12 3 -52 7zM502 642q7 0 4 -15q-5 -26 -25 -93.5t-33 -96.5q-2 -5 -13.5 -15t-18.5 -13q-5 -3 -5 3
q22 123 24 180q0 4 4 9q9 9 32 25t31 16z" />
    <glyph glyph-name="uni013E" unicode="&#x13e;" horiz-adv-x="229" 
d="M72 592q-1 3 2 15.5t5 13.5q38 24 80.5 43.5t58.5 19.5t6 -61q-92 -488 -96 -523q-5 -37 10 -37q25 0 68 47q3 0 3 -6q0 -24 -6 -30q-30 -39 -69 -64t-63 -25q-32 0 -16 93l43.5 236.5t47.5 270.5q3 26 -8 26q-25 0 -66 -19zM348 704q7 0 4 -15q-5 -26 -25 -93.5
t-33 -96.5q-2 -5 -13.5 -15t-18.5 -13q-5 -3 -5 3q22 123 24 180q0 4 4 9q9 9 32 25t31 16z" />
    <glyph glyph-name="Ldot" unicode="&#x13f;" horiz-adv-x="543" 
d="M93 589q-2 4 -0.5 15.5t4.5 13.5q10 0 53 -1.5t79 -1.5q31 0 72.5 1.5t47.5 1.5q2 -3 1 -14t-4 -14q-22 -3 -56 -10q-28 -7 -34 -41q-13 -71 -41.5 -251t-31.5 -215q-3 -24 11 -30q15 -5 73 -6t101 0q30 1 59 32.5t71 106.5q6 1 15 -3.5t11 -9.5q-9 -35 -28.5 -80.5
t-36.5 -66.5q-13 -19 -48 -19q-39 -1 -154 1t-125 2q-41 0 -88 -2t-49 -2q-3 4 -2 15.5t5 13.5q51 8 64 11q29 8 37 45q30 138 73 446q4 30 -1.5 40t-25.5 15q-12 3 -52 7zM461 339q-7 -33 -27 -46q-4 -2 -24 -3.5t-24 1.5q-20 12 -18 41q0 22 11 31q17 15 48 15q23 0 29 -9
q9 -12 5 -30z" />
    <glyph glyph-name="ldot" unicode="&#x140;" horiz-adv-x="229" 
d="M72 592q-1 3 2 15.5t5 13.5q38 24 80.5 43.5t58.5 19.5t6 -61q-92 -488 -96 -523q-5 -37 10 -37q25 0 68 47q3 0 3 -6q0 -24 -6 -30q-30 -39 -69 -64t-63 -25q-32 0 -16 93l43.5 236.5t47.5 270.5q3 26 -8 26q-25 0 -66 -19zM274 399q19 0 24 -8q7 -14 4 -27
q-4 -27 -24 -42q-4 -3 -21 -4t-21 1q-15 10 -16 35q2 21 9 28q14 17 45 17z" />
    <glyph glyph-name="Lslash" unicode="&#x141;" horiz-adv-x="543" 
d="M93 589q-2 4 -0.5 15.5t4.5 13.5q9 0 51.5 -1.5t80.5 -1.5q31 0 72.5 1.5t47.5 1.5q2 -3 1 -14t-4 -14q-22 -3 -56 -10q-28 -7 -34 -41q-8 -40 -34 -203q86 34 148 61q2 -1 4 -17.5t0 -19.5l-158 -63q-30 -186 -33 -224q-3 -25 12 -30q34 -9 173 -6q30 2 60 33.5
t70 105.5q6 1 15 -3.5t11 -9.5q-9 -34 -28.5 -79t-36.5 -68q-17 -19 -48 -19q-39 -1 -154 1t-125 2q-41 0 -88 -2t-49 -2q-3 4 -2 15.5t5 13.5q51 8 64 11q29 8 37 45q10 43 32 183l-84 -35q-2 1 -4.5 17t-0.5 19l96 38l34 224q4 30 -1.5 40t-25.5 15q-10 3 -52 7z" />
    <glyph glyph-name="lslash" unicode="&#x142;" horiz-adv-x="240" 
d="M82 592q-1 3 1.5 15.5t5.5 13.5q39 25 81 44t58 19q15 0 6 -61l-43 -227q48 24 73 34q2 -2 3 -15.5t-1 -15.5l-82 -40q-37 -192 -46 -259q-5 -37 10 -37q25 0 68 47q3 0 3 -6q0 -24 -6 -30q-29 -38 -68.5 -63.5t-63.5 -25.5q-32 0 -16 93l46 249l-63 -28q-3 3 -3.5 17
t3.5 16l70 32q36 208 38 222q3 25 -8 25q-25 0 -66 -19z" />
    <glyph glyph-name="uni0143" unicode="&#x143;" horiz-adv-x="705" 
d="M80 590q-1 4 1.5 15t4.5 13q19 0 64.5 -1.5t65.5 -1.5q26 0 32 1q9 -24 28 -55q244 -418 264 -449q2 0 4 2q54 331 61 410q2 24 -4 36.5t-27 18.5q-8 2 -61 11q-2 4 -0.5 16t5.5 13q8 0 52.5 -2t74.5 -2q20 0 58.5 2t43.5 2q2 -3 0.5 -15t-4.5 -14q-34 -6 -42 -9
q-33 -9 -43 -54q-14 -64 -69 -398q-9 -55 -20 -136q-1 0 -13 1t-21 1q-11 0 -21 -1l-11 -1q-32 62 -134 242l-153 265q-1 1 -3 0l-2 -1q-43 -261 -60 -405q-3 -28 3.5 -40t25.5 -17q30 -8 61 -12q2 -3 0 -14.5t-4 -14.5q-15 0 -55 2t-68 2q-25 0 -69.5 -2t-55.5 -2
q-2 4 -0.5 15t4.5 14q40 6 60 11q19 5 29 18t16 40q23 92 76 429q2 34 -17 47q-23 14 -77 20zM570 748q3 -4 0 -12q-14 -10 -94.5 -49t-86.5 -39q-3 0 -9.5 10.5t-4.5 12.5q117 101 138 114q11 0 30.5 -13.5t26.5 -23.5z" />
    <glyph glyph-name="uni0144" unicode="&#x144;" horiz-adv-x="464" 
d="M43 290q-4 0 -4 3q-3 10 3 29q32 37 69 63t54 26q26 0 9 -93l-15 -79h3q78 110 162 155q31 17 54 17q46 0 18 -135q-26 -120 -36 -184q-2 -27 8 -27q21 0 60 44q3 0 4 -5q1 -3 -1 -15.5t-4 -15.5q-28 -38 -66 -63.5t-60 -25.5q-32 0 -12 101q8 41 23.5 113t18.5 88
q10 56 -13 56q-24 0 -65.5 -39t-83.5 -107q-24 -37 -36 -93q-17 -68 -13 -86q-8 -8 -33 -20t-34 -13q-4 -1 -7 3t-2 8q2 17 28 141t32 170q3 23 -6 23q-14 0 -55 -39zM408 610q7 -7 4 -15q-15 -19 -71 -72t-84 -77q-3 -1 -13 7t-10 11l35 51l36.5 53.5t23.5 32.5
q8 4 39.5 7.5t39.5 1.5z" />
    <glyph glyph-name="uni0145" unicode="&#x145;" horiz-adv-x="705" 
d="M80 590q-1 4 1.5 15t4.5 13q19 0 64.5 -1.5t65.5 -1.5q26 0 32 1q9 -24 28 -55q244 -418 264 -449q2 0 4 2q54 331 61 410q2 24 -4 36.5t-27 18.5q-8 2 -61 11q-2 4 -0.5 16t5.5 13q8 0 52.5 -2t74.5 -2q20 0 58.5 2t43.5 2q2 -3 0.5 -15t-4.5 -14q-34 -6 -42 -9
q-33 -9 -43 -54q-14 -64 -69 -398q-9 -55 -20 -136q-1 0 -13 1t-21 1q-11 0 -21 -1l-11 -1q-32 62 -134 242l-153 265q-1 1 -3 0l-2 -1q-43 -261 -60 -405q-3 -28 3.5 -40t25.5 -17q30 -8 61 -12q2 -3 0 -14.5t-4 -14.5q-15 0 -55 2t-68 2q-25 0 -69.5 -2t-55.5 -2
q-2 4 -0.5 15t4.5 14q40 6 60 11q19 5 29 18t16 40q23 92 76 429q2 34 -17 47q-23 14 -77 20zM346 -28q19 0 33.5 -24t8.5 -55q-7 -39 -39.5 -65.5t-84.5 -37.5q-3 1 -6 11t-2 14q40 14 56 27.5t19 31.5q4 32 -48 46q-3 8 3 16q10 13 28 24.5t32 11.5z" />
    <glyph glyph-name="uni0146" unicode="&#x146;" horiz-adv-x="464" 
d="M43 290q-4 0 -4 3q-3 10 3 29q32 37 69 63t54 26q26 0 9 -93l-15 -79h3q78 110 162 155q31 17 54 17q46 0 18 -135q-26 -120 -36 -184q-2 -27 8 -27q21 0 60 44q3 0 4 -5q1 -3 -1 -15.5t-4 -15.5q-28 -38 -66 -63.5t-60 -25.5q-32 0 -12 101q8 41 23.5 113t18.5 88
q10 56 -13 56q-24 0 -65.5 -39t-83.5 -107q-24 -37 -36 -93q-17 -68 -13 -86q-8 -8 -33 -20t-34 -13q-4 -1 -7 3t-2 8q2 17 28 141t32 170q3 23 -6 23q-14 0 -55 -39zM196 -41q19 0 33.5 -24t8.5 -55q-7 -39 -39.5 -65.5t-84.5 -37.5q-3 1 -6 11t-2 14q40 14 56 27.5
t19 31.5q4 32 -48 46q-3 8 3 16q10 13 28 24.5t32 11.5z" />
    <glyph glyph-name="uni0147" unicode="&#x147;" horiz-adv-x="705" 
d="M80 590q-1 4 1.5 15t4.5 13q19 0 64.5 -1.5t65.5 -1.5q26 0 32 1q9 -24 28 -55q244 -418 264 -449q2 0 4 2q54 331 61 410q2 24 -4 36.5t-27 18.5q-8 2 -61 11q-2 4 -0.5 16t5.5 13q8 0 52.5 -2t74.5 -2q20 0 58.5 2t43.5 2q2 -3 0.5 -15t-4.5 -14q-34 -6 -42 -9
q-33 -9 -43 -54q-14 -64 -69 -398q-9 -55 -20 -136q-1 0 -13 1t-21 1q-11 0 -21 -1l-11 -1q-32 62 -134 242l-153 265q-1 1 -3 0l-2 -1q-43 -261 -60 -405q-3 -28 3.5 -40t25.5 -17q30 -8 61 -12q2 -3 0 -14.5t-4 -14.5q-15 0 -55 2t-68 2q-25 0 -69.5 -2t-55.5 -2
q-2 4 -0.5 15t4.5 14q40 6 60 11q19 5 29 18t16 40q23 92 76 429q2 34 -17 47q-23 14 -77 20zM437 658q-5 -4 -22 -7q-8 11 -48 51.5t-57 54.5q1 4 7.5 13t9.5 9q5 0 48 -23t56 -31q5 -2 11 1q18 9 70.5 30.5t56.5 21.5q3 0 7.5 -9t2.5 -13q-116 -75 -142 -98z" />
    <glyph glyph-name="uni0148" unicode="&#x148;" horiz-adv-x="464" 
d="M43 290q-4 0 -4 3q-3 10 3 29q32 37 69 63t54 26q26 0 9 -93l-15 -79h3q78 110 162 155q31 17 54 17q46 0 18 -135q-26 -120 -36 -184q-2 -27 8 -27q21 0 60 44q3 0 4 -5q1 -3 -1 -15.5t-4 -15.5q-28 -38 -66 -63.5t-60 -25.5q-32 0 -12 101q8 41 23.5 113t18.5 88
q10 56 -13 56q-24 0 -65.5 -39t-83.5 -107q-24 -37 -36 -93q-17 -68 -13 -86q-8 -8 -33 -20t-34 -13q-4 -1 -7 3t-2 8q2 17 28 141t32 170q3 23 -6 23q-14 0 -55 -39zM285 521q46 61 67 77q16 12 41 12q3 -3 3 -7q-84 -103 -115 -152q-2 -2 -15 -6t-16 -4q-5 24 -26 79.5
t-31 76.5q3 4 18.5 9t24.5 5q10 0 44 -90q1 -1 2.5 -1t2.5 1z" />
    <glyph glyph-name="uni0149" unicode="&#x149;" horiz-adv-x="464" 
d="M43 290q-4 0 -4 3q-3 10 3 29q32 37 69 63t54 26q26 0 9 -93l-15 -79h3q78 110 162 155q31 17 54 17q46 0 18 -135q-26 -120 -36 -184q-2 -27 8 -27q21 0 60 44q3 0 4 -5q1 -3 -1 -15.5t-4 -15.5q-28 -38 -66 -63.5t-60 -25.5q-32 0 -12 101q8 41 23.5 113t18.5 88
q10 56 -13 56q-24 0 -65.5 -39t-83.5 -107q-24 -37 -36 -93q-17 -68 -13 -86q-8 -8 -33 -20t-34 -13q-4 -1 -7 3t-2 8q2 17 28 141t32 170q3 23 -6 23q-14 0 -55 -39zM158 618q18 0 33 -22.5t11 -55.5q-4 -34 -34 -59.5t-80 -34.5q-4 1 -7 10t-1 13q68 21 71 55q2 34 -51 46
q-2 7 2 15q26 33 56 33z" />
    <glyph glyph-name="Eng" unicode="&#x14a;" horiz-adv-x="705" 
d="M80 590q-1 4 1.5 15t4.5 13q32 0 76.5 -0.5t56.5 -0.5q24 0 29 1q7 -23 27 -56q225 -381 266 -446q1 0 3 2q57 355 61 405q2 24 -4 36.5t-27 18.5q-22 5 -61 10q-2 4 -0.5 16.5t5.5 12.5q10 0 55 -1.5t72 -1.5q18 0 57 1.5t45 1.5q2 -3 0.5 -14.5t-4.5 -14.5
q-29 -4 -42 -8q-33 -9 -43 -55q-24 -109 -69 -393l-23 -141q-21 -114 -56 -171t-102 -57q-37 0 -45 21q-4 11 -2.5 34t6.5 36l7 4q33 -21 68 -21q57 0 70 104q0 37 -10 56q-29 58 -129.5 234.5t-157.5 268.5q-1 1 -3 0l-1 -1q-52 -329 -60 -405q-3 -28 3 -40t24 -17
q28 -7 63 -12q2 -3 0 -14.5t-4 -14.5q-15 0 -55 2t-68 2q-25 0 -69.5 -2t-55.5 -2q-2 4 -0.5 15t4.5 14q49 7 61 11q32 7 44 58q26 104 75 430q5 33 -16 47q-20 12 -77 19z" />
    <glyph glyph-name="eng" unicode="&#x14b;" horiz-adv-x="449" 
d="M168 411q22 0 8 -85l-18 -89q0 -1 1 -1t2 1q80 108 164 156q32 18 52 18q42 0 21 -129q-13 -104 -43 -249q-19 -96 -37 -141.5t-55 -87.5q-28 -33 -63.5 -53.5t-58.5 -20.5q-38 0 -49 24q-3 4 -1 10q5 29 18 48q3 5 8 5q40 -29 67 -29q29 0 47 26t34 103q47 215 64 368
q8 56 -12 56q-22 0 -61 -35.5t-88 -109.5q-22 -35 -36 -93q-16 -66 -11 -86q-8 -8 -34 -20t-35 -13q-3 -1 -6.5 3t-3.5 7q1 9 28.5 136.5t33.5 175.5q3 23 -6 23q-14 0 -55 -39q-4 0 -4 3q-1 5 0 15.5t3 13.5q32 37 70 63t56 26z" />
    <glyph glyph-name="uni014C" unicode="&#x14c;" horiz-adv-x="691" 
d="M305 -18q-117 0 -176.5 70.5t-59.5 184.5q0 75 26 148t75 126q49 58 116 90.5t140 32.5q111 0 169.5 -71.5t59.5 -182.5q2 -162 -89 -271q-104 -127 -261 -127zM338 22q61 0 106 34q63 46 92 133.5t29 182.5q-2 100 -44 161t-130 61q-72 0 -126 -52.5t-80 -131
t-26 -165.5q0 -102 45.5 -162.5t133.5 -60.5zM329 746q20 -2 53 -2q174 0 178 1q-1 -10 -10 -29t-13 -21q-12 -3 -194 -3l-37 2q1 7 10.5 27.5t12.5 24.5z" />
    <glyph glyph-name="uni014D" unicode="&#x14d;" horiz-adv-x="423" 
d="M283 411q51 0 75.5 -40t24.5 -94q0 -81 -34 -150.5t-101 -107.5q-58 -35 -109 -35q-47 0 -72 40t-25 99q0 70 25.5 133.5t76.5 101.5q31 23 71.5 38t67.5 15zM118 154q0 -122 72 -122q47 0 81 66.5t34 151.5q0 116 -72 117q-53 0 -84 -68.5t-31 -144.5zM183 553
q2 0 17 -0.5t28 -0.5q152 0 158 2q-1 -8 -11 -28.5t-13 -21.5q-22 -5 -169 -5l-34 2q2 8 12 29.5t12 22.5z" />
    <glyph glyph-name="uni014E" unicode="&#x14e;" horiz-adv-x="691" 
d="M305 -18q-117 0 -176.5 70.5t-59.5 184.5q0 75 26 148t75 126q49 58 116 90.5t140 32.5q111 0 169.5 -71.5t59.5 -182.5q2 -162 -89 -271q-104 -127 -261 -127zM338 22q61 0 106 34q63 46 92 133.5t29 182.5q-2 100 -44 161t-130 61q-72 0 -126 -52.5t-80 -131
t-26 -165.5q0 -102 45.5 -162.5t133.5 -60.5zM439 725q29 0 51 11.5t48 40.5q1 1 10.5 4.5t14.5 3.5t5 -6q-22 -48 -63.5 -75t-91.5 -27q-46 0 -74.5 21.5t-25.5 58.5q4 6 18.5 16.5t20.5 12.5q2 1 6.5 1t5.5 -1q8 -61 75 -61z" />
    <glyph glyph-name="uni014F" unicode="&#x14f;" horiz-adv-x="423" 
d="M283 411q51 0 75.5 -40t24.5 -94q0 -81 -34 -150.5t-101 -107.5q-58 -35 -109 -35q-47 0 -72 40t-25 99q0 70 25.5 133.5t76.5 101.5q31 23 71.5 38t67.5 15zM118 154q0 -122 72 -122q47 0 81 66.5t34 151.5q0 116 -72 117q-53 0 -84 -68.5t-31 -144.5zM275 520
q51 0 94 56q1 1 11 4.5t15 3.5q6 0 6 -5q-21 -52 -62 -81t-90 -29q-44 0 -71 23t-23 63q3 7 17 18t21 13q2 1 7.5 1t6.5 -1q4 -66 68 -66z" />
    <glyph glyph-name="uni0150" unicode="&#x150;" horiz-adv-x="691" 
d="M305 -18q-117 0 -176.5 70.5t-59.5 184.5q0 75 26 148t75 126q49 58 116 90.5t140 32.5q111 0 169.5 -71.5t59.5 -182.5q2 -162 -89 -271q-104 -127 -261 -127zM338 22q61 0 106 34q63 46 92 133.5t29 182.5q-2 100 -44 161t-130 61q-72 0 -126 -52.5t-80 -131
t-26 -165.5q0 -102 45.5 -162.5t133.5 -60.5zM457 793q6 -3 3 -9q-8 -16 -105 -120q-3 -1 -13.5 4.5t-11.5 7.5q49 95 57 109q10 4 35.5 7t34.5 1zM592 805q4 -7 2 -11q-5 -11 -48.5 -59t-63.5 -67q-3 -1 -13 3.5t-12 7.5q35 70 63 119q9 4 37 6.5t35 0.5z" />
    <glyph glyph-name="uni0151" unicode="&#x151;" horiz-adv-x="423" 
d="M283 411q51 0 75.5 -40t24.5 -94q0 -81 -34 -150.5t-101 -107.5q-58 -35 -109 -35q-47 0 -72 40t-25 99q0 70 25.5 133.5t76.5 101.5q31 23 71.5 38t67.5 15zM118 154q0 -122 72 -122q47 0 81 66.5t34 151.5q0 116 -72 117q-53 0 -84 -68.5t-31 -144.5zM318 604
q1 -2 1.5 -6t-0.5 -5q-12 -18 -56.5 -71.5t-69.5 -79.5q-3 -1 -12.5 5t-9.5 9q64 118 81 143q9 3 33.5 5.5t32.5 -0.5zM448 611q3 -6 1 -11q-12 -19 -56 -72.5t-69 -80.5q-4 0 -13.5 5t-10.5 8q54 98 85 148q10 3 33 4.5t30 -1.5z" />
    <glyph glyph-name="OE" unicode="&#x152;" horiz-adv-x="944" 
d="M69 235q0 167 97 276q50 60 116.5 91.5t136.5 31.5q36 0 76 -9q36 -9 55 -10h266q76 0 111 7q4 -1 4 -10q-18 -49 -34 -142q-5 -2 -18 -3t-16 2q1 35 -3 68q-3 19 -12.5 27t-33.5 9q-15 1 -116 1.5t-110 -0.5q-3 -1 -1 -6q74 -78 66 -228q0 -6 3 -6q74 0 122 3
q24 1 40 32q8 17 17 41q5 2 18 1t15 -4q-16 -60 -22 -98q-4 -20 -8 -55t-5 -41q-4 -3 -17.5 -3t-16.5 3q0 32 -3 43q-4 31 -29 32q-29 2 -116 2q-5 0 -5 -6q-24 -144 -132 -231q-2 -2 -2 -4.5t3 -3.5q38 -3 123 -4t108 0q32 2 49 7.5t32 23.5q27 28 57 87q5 0 15.5 -4.5
t12.5 -8.5q-24 -86 -56 -132q-11 -17 -48 -17q-67 0 -207 1.5t-141 1.5q-13 0 -61 -9t-87 -9q-134 0 -197 90q-46 69 -46 163zM337 22q62 0 105 31q63 47 92.5 134.5t29.5 186.5q-1 99 -41.5 160.5t-125.5 61.5q-71 0 -126 -53.5t-82.5 -134t-27.5 -170.5q0 -94 44 -155
t132 -61z" />
    <glyph glyph-name="oe" unicode="&#x153;" horiz-adv-x="593" 
d="M470 367q-29 0 -59 -36t-41 -101q-1 -4 3 -5q55 14 91 34q43 28 43 64q0 18 -9.5 31t-27.5 13zM297 59q0 1 -3 1q-33 -36 -77.5 -56t-79.5 -20q-46 0 -70.5 39t-24.5 99q0 69 25.5 134t76.5 103q30 22 69.5 37t62.5 15q64 0 88 -77q39 38 82.5 57.5t70.5 19.5
q25 0 42 -17t17 -45q0 -64 -98 -115q-40 -21 -108 -46q-4 -1 -6 -8q-4 -12 -4 -31q0 -100 73 -100q59 0 125 67q3 -1 4 -12.5t0 -17.5q-31 -44 -82 -72.5t-97 -28.5q-61 0 -86 74zM118 156q0 -123 71 -123q47 0 80.5 65.5t33.5 155.5q0 113 -70 113q-35 0 -62.5 -37.5
t-40 -84.5t-12.5 -89z" />
    <glyph glyph-name="uni0154" unicode="&#x154;" horiz-adv-x="580" 
d="M95 590q-2 3 0.5 15t5.5 13q7 0 52.5 -1.5t65.5 -1.5q71 1 130 1q79 0 122.5 -38.5t43.5 -103.5q0 -66 -41.5 -110.5t-104.5 -67.5q-5 -4 -3 -6q48 -105 125 -211q23 -31 43 -40.5t65 -15.5q2 -3 -0.5 -15t-6.5 -14q-103 -5 -144 19q-25 14 -44 43q-20 31 -107 193
q-10 21 -28 23h-51q-2 0 -4 -2t-2 -4q-23 -143 -27 -180q-3 -24 3.5 -35t23.5 -15q9 -3 58 -11q2 -2 0 -14t-5 -14q-22 0 -72 1.5t-65 1.5q-29 0 -69.5 -1.5t-58.5 -1.5q-2 3 -1 14.5t3 14.5q17 1 56 8q20 5 29 15.5t15 38.5q15 71 39.5 223.5t33.5 224.5q4 37 -24 44
q-12 4 -56 10zM429 456q0 61 -32 94t-97 33q-21 0 -30 -4q-7 -3 -11 -18q-4 -21 -40 -248q-2 -7 5 -7q71 -4 115 13q90 36 90 137zM475 757q3 -4 0 -12q-14 -10 -94.5 -49t-86.5 -39q-3 0 -9.5 10.5t-4.5 12.5q117 101 138 114q11 0 30.5 -13.5t26.5 -23.5z" />
    <glyph glyph-name="uni0155" unicode="&#x155;" horiz-adv-x="331" 
d="M164 258q31 53 64 96q46 57 79 57q31 0 43 -23v-14q-2 -11 -17 -34.5t-24 -31.5q-6 -6 -12 -2q-21 25 -39 25q-30 0 -89 -123q-23 -48 -39 -117q-12 -54 -11 -75q-6 -7 -33 -19t-36 -13q-7 0 -7 9q54 258 58 300q4 34 -6 34q-14 0 -57 -37q-4 0 -4 3q-2 11 4 27
q31 35 69.5 63t55.5 28q22 0 10 -82q-2 -15 -7 -39t-6 -32q1 -1 4 0zM364 610q7 -7 4 -15q-15 -19 -71 -72t-84 -77q-3 -1 -13 7t-10 11l35 51l36.5 53.5t23.5 32.5q8 4 39.5 7.5t39.5 1.5z" />
    <glyph glyph-name="uni0156" unicode="&#x156;" horiz-adv-x="580" 
d="M95 590q-2 3 0.5 15t5.5 13q7 0 52.5 -1.5t65.5 -1.5q71 1 130 1q79 0 122.5 -38.5t43.5 -103.5q0 -66 -41.5 -110.5t-104.5 -67.5q-5 -4 -3 -6q48 -105 125 -211q23 -31 43 -40.5t65 -15.5q2 -3 -0.5 -15t-6.5 -14q-103 -5 -144 19q-25 14 -44 43q-20 31 -107 193
q-10 21 -28 23h-51q-2 0 -4 -2t-2 -4q-23 -143 -27 -180q-3 -24 3.5 -35t23.5 -15q9 -3 58 -11q2 -2 0 -14t-5 -14q-22 0 -72 1.5t-65 1.5q-29 0 -69.5 -1.5t-58.5 -1.5q-2 3 -1 14.5t3 14.5q17 1 56 8q20 5 29 15.5t15 38.5q15 71 39.5 223.5t33.5 224.5q4 37 -24 44
q-12 4 -56 10zM429 456q0 61 -32 94t-97 33q-21 0 -30 -4q-7 -3 -11 -18q-4 -21 -40 -248q-2 -7 5 -7q71 -4 115 13q90 36 90 137zM319 -32q19 0 33.5 -24t8.5 -55q-7 -39 -39.5 -65.5t-84.5 -37.5q-3 1 -6 11t-2 14q40 14 56 27.5t19 31.5q4 32 -48 46q-3 8 3 16
q10 13 28 24.5t32 11.5z" />
    <glyph glyph-name="uni0157" unicode="&#x157;" horiz-adv-x="331" 
d="M164 258q31 53 64 96q46 57 79 57q31 0 43 -23v-14q-2 -11 -17 -34.5t-24 -31.5q-6 -6 -12 -2q-21 25 -39 25q-30 0 -89 -123q-23 -48 -39 -117q-12 -54 -11 -75q-6 -7 -33 -19t-36 -13q-7 0 -7 9q54 258 58 300q4 34 -6 34q-14 0 -57 -37q-4 0 -4 3q-2 11 4 27
q31 35 69.5 63t55.5 28q22 0 10 -82q-2 -15 -7 -39t-6 -32q1 -1 4 0zM75 -44q19 0 33.5 -24t8.5 -55q-7 -39 -39.5 -65.5t-84.5 -37.5q-3 1 -6 11t-2 14q40 14 56 27.5t19 31.5q4 32 -48 46q-3 8 3 16q10 13 28 24.5t32 11.5z" />
    <glyph glyph-name="uni0158" unicode="&#x158;" horiz-adv-x="580" 
d="M95 590q-2 3 0.5 15t5.5 13q7 0 52.5 -1.5t65.5 -1.5q71 1 130 1q79 0 122.5 -38.5t43.5 -103.5q0 -66 -41.5 -110.5t-104.5 -67.5q-5 -4 -3 -6q48 -105 125 -211q23 -31 43 -40.5t65 -15.5q2 -3 -0.5 -15t-6.5 -14q-103 -5 -144 19q-25 14 -44 43q-20 31 -107 193
q-10 21 -28 23h-51q-2 0 -4 -2t-2 -4q-23 -143 -27 -180q-3 -24 3.5 -35t23.5 -15q9 -3 58 -11q2 -2 0 -14t-5 -14q-22 0 -72 1.5t-65 1.5q-29 0 -69.5 -1.5t-58.5 -1.5q-2 3 -1 14.5t3 14.5q17 1 56 8q20 5 29 15.5t15 38.5q15 71 39.5 223.5t33.5 224.5q4 37 -24 44
q-12 4 -56 10zM429 456q0 61 -32 94t-97 33q-21 0 -30 -4q-7 -3 -11 -18q-4 -21 -40 -248q-2 -7 5 -7q71 -4 115 13q90 36 90 137zM328 667q-5 -4 -22 -7q-8 11 -48 51.5t-57 54.5q1 4 7.5 13t9.5 9q5 0 48 -23t56 -31q5 -2 11 1q18 9 70.5 30.5t56.5 21.5q3 0 7.5 -9
t2.5 -13q-116 -75 -142 -98z" />
    <glyph glyph-name="uni0159" unicode="&#x159;" horiz-adv-x="331" 
d="M164 258q31 53 64 96q46 57 79 57q31 0 43 -23v-14q-2 -11 -17 -34.5t-24 -31.5q-6 -6 -12 -2q-21 25 -39 25q-30 0 -89 -123q-23 -48 -39 -117q-12 -54 -11 -75q-6 -7 -33 -19t-36 -13q-7 0 -7 9q54 258 58 300q4 34 -6 34q-14 0 -57 -37q-4 0 -4 3q-2 11 4 27
q31 35 69.5 63t55.5 28q22 0 10 -82q-2 -15 -7 -39t-6 -32q1 -1 4 0zM232 521q46 61 67 77q16 12 41 12q3 -3 3 -7q-84 -103 -115 -152q-2 -2 -15 -6t-16 -4q-5 24 -26 79.5t-31 76.5q3 4 18.5 9t24.5 5q10 0 44 -90q1 -1 2.5 -1t2.5 1z" />
    <glyph glyph-name="uni015A" unicode="&#x15a;" horiz-adv-x="468" 
d="M71 179q10 -99 58 -133q39 -29 96 -29q50 0 84 29t34 84q0 40 -24 71t-88 79q-63 48 -93 86.5t-30 90.5q0 84 57 130t143 46q46 0 101 -12q31 -7 52 -10q-24 -71 -36 -136q-2 -4 -14.5 -3.5t-14.5 3.5q3 86 -25 107q-27 21 -77 21q-55 0 -83.5 -34.5t-28.5 -79.5
q0 -55 53 -101q19 -17 62 -47.5t57 -42.5q71 -57 71 -129q0 -77 -60 -132t-163 -55q-47 0 -91.5 15t-67.5 33q-5 9 -5 62t4 82q2 3 13.5 5t15.5 0zM457 764q3 -4 0 -12q-14 -10 -94.5 -49t-86.5 -39q-3 0 -9.5 10.5t-4.5 12.5q117 101 138 114q11 0 30.5 -13.5t26.5 -23.5z
" />
    <glyph glyph-name="uni015B" unicode="&#x15b;" horiz-adv-x="302" 
d="M222 411q49 0 61 -22q3 -6 1 -15q-9 -29 -32 -50q-5 -3 -11 0q-22 40 -67 40q-22 0 -37 -15t-15 -39q0 -20 13.5 -37t57.5 -50q41 -31 56.5 -52t15.5 -45q0 -53 -56 -99q-54 -43 -115 -43q-48 0 -73 25q-13 13 -13 29q0 9 7.5 32t14.5 33q1 1 4.5 2t7 1t3.5 -1
q8 -36 34 -56.5t59 -20.5q27 0 44.5 16t17.5 38q0 20 -13 38.5t-55 50.5q-39 30 -53 52t-14 47q0 52 46 93q53 48 111 48zM337 610q7 -7 4 -15q-15 -19 -71 -72t-84 -77q-3 -1 -13 7t-10 11l35 51l36.5 53.5t23.5 32.5q8 4 39.5 7.5t39.5 1.5z" />
    <glyph glyph-name="uni015C" unicode="&#x15c;" horiz-adv-x="468" 
d="M71 179q10 -99 58 -133q39 -29 96 -29q50 0 84 29t34 84q0 40 -24 71t-88 79q-63 48 -93 86.5t-30 90.5q0 84 57 130t143 46q46 0 101 -12q31 -7 52 -10q-24 -71 -36 -136q-2 -4 -14.5 -3.5t-14.5 3.5q3 86 -25 107q-27 21 -77 21q-55 0 -83.5 -34.5t-28.5 -79.5
q0 -55 53 -101q19 -17 62 -47.5t57 -42.5q71 -57 71 -129q0 -77 -60 -132t-163 -55q-47 0 -91.5 15t-67.5 33q-5 9 -5 62t4 82q2 3 13.5 5t15.5 0zM328 785q12 6 21 6q11 -13 50.5 -52.5t54.5 -51.5q0 -5 -6.5 -14t-10.5 -9t-47 22t-56 30q-6 2 -11 0q-16 -8 -69.5 -30
t-58.5 -22q-4 0 -8.5 9.5t-2.5 13.5q107 65 144 98z" />
    <glyph glyph-name="uni015D" unicode="&#x15d;" horiz-adv-x="302" 
d="M222 411q49 0 61 -22q3 -6 1 -15q-9 -29 -32 -50q-5 -3 -11 0q-22 40 -67 40q-22 0 -37 -15t-15 -39q0 -20 13.5 -37t57.5 -50q41 -31 56.5 -52t15.5 -45q0 -53 -56 -99q-54 -43 -115 -43q-48 0 -73 25q-13 13 -13 29q0 9 7.5 32t14.5 33q1 1 4.5 2t7 1t3.5 -1
q8 -36 34 -56.5t59 -20.5q27 0 44.5 16t17.5 38q0 20 -13 38.5t-55 50.5q-39 30 -53 52t-14 47q0 52 46 93q53 48 111 48zM215 534q-50 -69 -66 -79q-20 -13 -41 -11q-4 2 -4 7q65 77 114 155q2 2 15 6t16 3q6 -22 27.5 -80t30.5 -78q-3 -4 -18.5 -9.5t-24.5 -5.5
q-6 1 -44 92q-2 3 -5 0z" />
    <glyph glyph-name="uni015E" unicode="&#x15e;" horiz-adv-x="468" 
d="M198 -18h-1q-44 -1 -87 13.5t-67 32.5q-5 9 -5 61.5t4 80.5q1 4 13.5 6t15.5 0q12 -100 57 -132q39 -27 95 -27q50 0 85 29.5t35 84.5q1 40 -23 70t-89 79q-61 47 -92 85t-31 90q0 85 58 131.5t146 46.5q54 0 97 -12l52 -10q-21 -60 -36 -135q-1 -3 -14.5 -3t-14.5 4
q2 48 -2.5 70t-20.5 35q-27 20 -78 20q-56 0 -84.5 -34t-28.5 -79q0 -55 51 -101q18 -15 62 -46t59 -44q71 -57 71 -127q0 -73 -51 -125.5t-142 -61.5l-19 -24q-1 -1 -0.5 -4t1.5 -4q20 -15 34 -29q19 -19 19 -46q0 -41 -40.5 -69.5t-71.5 -28.5q-37 0 -51 26q-3 18 4 25
q28 -14 60 -14q18 0 30.5 8.5t12.5 23.5q0 38 -66 64q2 9 3 11z" />
    <glyph glyph-name="uni015F" unicode="&#x15f;" horiz-adv-x="302" 
d="M223 411q45 0 59 -22q1 -1 1.5 -6t-0.5 -8q-3 -11 -13.5 -27t-18.5 -23q-4 -4 -11 -1q-21 40 -67 40q-21 0 -35.5 -14.5t-14.5 -38.5q0 -20 14 -38t57 -50q40 -30 55.5 -51t15.5 -45q0 -54 -56 -100q-29 -24 -67 -35l-24 -27q-2 -1 -2 -4t2 -4q21 -14 31 -25
q19 -19 19 -43q0 -40 -38 -67.5t-67 -27.5q-36 0 -48 26q-3 17 4 24q25 -14 56 -14q38 0 38 31q0 35 -60 61q1 9 3 11l51 52q-3 0 -7 -0.5t-6 -0.5q-48 0 -73 25q-13 13 -13 29q0 9 7.5 31.5t14.5 32.5q1 1 5 2.5t6.5 1.5t3.5 -1q8 -36 34 -56.5t59 -20.5q27 0 44.5 16
t17.5 38q0 21 -13 39.5t-55 50.5q-66 51 -66 99q0 53 44 93q51 47 113 47z" />
    <glyph glyph-name="Scaron" unicode="&#x160;" horiz-adv-x="468" 
d="M71 179q10 -99 58 -133q39 -29 96 -29q50 0 84 29t34 84q0 40 -24 71t-88 79q-63 48 -93 86.5t-30 90.5q0 84 57 130t143 46q46 0 101 -12q31 -7 52 -10q-24 -71 -36 -136q-2 -4 -14.5 -3.5t-14.5 3.5q3 86 -25 107q-27 21 -77 21q-55 0 -83.5 -34.5t-28.5 -79.5
q0 -55 53 -101q19 -17 62 -47.5t57 -42.5q71 -57 71 -129q0 -77 -60 -132t-163 -55q-47 0 -91.5 15t-67.5 33q-5 9 -5 62t4 82q2 3 13.5 5t15.5 0zM330 672q-5 -4 -22 -7q-8 11 -48 51.5t-57 54.5q1 4 7.5 13t9.5 9q5 0 48 -23t56 -31q5 -2 11 1q18 9 70.5 30.5t56.5 21.5
q3 0 7.5 -9t2.5 -13q-116 -75 -142 -98z" />
    <glyph glyph-name="scaron" unicode="&#x161;" horiz-adv-x="302" 
d="M222 411q49 0 61 -22q3 -6 1 -15q-9 -29 -32 -50q-5 -3 -11 0q-22 40 -67 40q-22 0 -37 -15t-15 -39q0 -20 13.5 -37t57.5 -50q41 -31 56.5 -52t15.5 -45q0 -53 -56 -99q-54 -43 -115 -43q-48 0 -73 25q-13 13 -13 29q0 9 7.5 32t14.5 33q1 1 4.5 2t7 1t3.5 -1
q8 -36 34 -56.5t59 -20.5q27 0 44.5 16t17.5 38q0 20 -13 38.5t-55 50.5q-39 30 -53 52t-14 47q0 52 46 93q53 48 111 48zM222 521q46 61 67 77q16 12 41 12q3 -3 3 -7q-84 -103 -115 -152q-2 -2 -15 -6t-16 -4q-5 24 -26 79.5t-31 76.5q3 4 18.5 9t24.5 5q10 0 44 -90
q1 -1 2.5 -1t2.5 1z" />
    <glyph glyph-name="uni0162" unicode="&#x162;" horiz-adv-x="611" 
d="M128 26q52 6 64 8q25 4 35 18.5t17 52.5q3 16 76 463q0 8 -6 8q-11 1 -53.5 1t-58.5 -2q-27 -2 -47 -26q-20 -23 -57 -90q-5 -2 -16 2.5t-13 8.5q31 77 47 156q2 3 8 3q35 -14 76 -14h348q51 0 94 12q1 0 3.5 -2.5t2.5 -4.5q-23 -56 -44 -158q-2 -3 -15 -3.5t-16 3.5
q3 59 -3 87q-2 13 -11.5 19.5t-18.5 6.5q-24 2 -75 2.5t-59 -0.5q-7 -3 -7 -9q-72 -451 -74 -488q-1 -36 28 -43q18 -6 68 -11q3 -3 1 -15t-5 -14q-14 0 -66 1.5t-83 1.5q-30 0 -84 -1.5t-60 -1.5q-2 4 -1 15.5t5 13.5zM273 -33q19 0 33.5 -24t8.5 -55q-7 -39 -39.5 -65.5
t-84.5 -37.5q-3 1 -6 11t-2 14q40 14 56 27.5t19 31.5q4 32 -48 46q-3 8 3 16q10 13 28 24.5t32 11.5z" />
    <glyph glyph-name="uni0163" unicode="&#x163;" horiz-adv-x="277" 
d="M178 346q-29 -136 -40 -236q-6 -51 18 -51q19 0 46.5 22.5t43.5 44.5q2 1 4 -1t1 -3q2 -21 -5 -31q-24 -38 -72.5 -72.5t-82.5 -34.5q-15 0 -24 17t-8 50t51 296q0 5 -3 5q-49 0 -71 3q-1 2 -1 7q4 7 19.5 20t19.5 15h7h13h20q7 0 7 5q23 97 28 107q4 9 33.5 31.5
t42.5 27.5q2 1 5.5 -4.5t2.5 -7.5q-14 -18 -22 -57q-12 -44 -21 -95q-1 -2 0 -4.5t3 -2.5q96 -2 118 8q2 -11 -6 -22q-14 -16 -53 -23q-28 -6 -67 -7q-3 0 -7 -7zM102 -46q19 0 33.5 -24t8.5 -55q-7 -39 -39.5 -65.5t-84.5 -37.5q-3 1 -6 11t-2 14q40 14 56 27.5t19 31.5
q4 32 -48 46q-3 8 3 16q10 13 28 24.5t32 11.5z" />
    <glyph glyph-name="uni0164" unicode="&#x164;" horiz-adv-x="611" 
d="M128 26q52 6 64 8q25 4 35 18.5t17 52.5q3 16 76 463q0 8 -6 8q-11 1 -53.5 1t-58.5 -2q-27 -2 -47 -26q-20 -23 -57 -90q-5 -2 -16 2.5t-13 8.5q31 77 47 156q2 3 8 3q35 -14 76 -14h348q51 0 94 12q1 0 3.5 -2.5t2.5 -4.5q-23 -56 -44 -158q-2 -3 -15 -3.5t-16 3.5
q3 59 -3 87q-2 13 -11.5 19.5t-18.5 6.5q-24 2 -75 2.5t-59 -0.5q-7 -3 -7 -9q-72 -451 -74 -488q-1 -36 28 -43q18 -6 68 -11q3 -3 1 -15t-5 -14q-14 0 -66 1.5t-83 1.5q-30 0 -84 -1.5t-60 -1.5q-2 4 -1 15.5t5 13.5zM382 659q-5 -4 -22 -7q-8 11 -48 51.5t-57 54.5
q1 4 7.5 13t9.5 9q5 0 48 -23t56 -31q5 -2 11 1q18 9 70.5 30.5t56.5 21.5q3 0 7.5 -9t2.5 -13q-116 -75 -142 -98z" />
    <glyph glyph-name="uni0165" unicode="&#x165;" horiz-adv-x="277" 
d="M178 346q-29 -136 -40 -236q-6 -51 18 -51q19 0 46.5 22.5t43.5 44.5q2 1 4 -1t1 -3q2 -21 -5 -31q-24 -38 -72.5 -72.5t-82.5 -34.5q-15 0 -24 17t-8 50t51 296q0 5 -3 5q-49 0 -71 3q-1 2 -1 7q4 7 19.5 20t19.5 15h7h13h20q7 0 7 5q23 97 28 107q4 9 33.5 31.5
t42.5 27.5q2 1 5.5 -4.5t2.5 -7.5q-14 -18 -22 -57q-12 -44 -21 -95q-1 -2 0 -4.5t3 -2.5q96 -2 118 8q2 -11 -6 -22q-14 -16 -53 -23q-28 -6 -67 -7q-3 0 -7 -7zM377 708q7 0 4 -15q-5 -26 -25 -93.5t-33 -96.5q-2 -5 -13.5 -15t-18.5 -13q-5 -3 -5 3q22 123 24 180
q0 4 4 9q9 9 32 25t31 16z" />
    <glyph glyph-name="Tbar" unicode="&#x166;" horiz-adv-x="611" 
d="M99 465q-5 -3 -16 2t-13 9q32 80 46 150q2 3 8 3q35 -14 76 -14l348 1q51 0 94 12q6 -3 6 -7q-21 -52 -42 -153q-3 -4 -16 -4t-15 4q2 62 -3 82q-3 23 -30 26q-27 2 -76.5 2t-59.5 -2q-7 -4 -7 -8q-6 -31 -38 -233q22 0 49.5 0.5t46 0.5h20.5q0 -22 -7 -36q-5 0 -49 0.5
t-65 0.5q-29 -183 -31 -222q-1 -36 27 -42q18 -5 69 -11q3 -3 1 -15t-5 -14q-14 0 -66 1.5t-83 1.5q-29 0 -82 -1.5t-62 -1.5q-2 4 -1 15.5t5 13.5q55 6 65 8q25 4 34.5 18t16.5 53q16 88 33 196q-21 0 -59.5 -0.5t-44.5 -0.5q0 7 3.5 20t6.5 16q2 0 38.5 -0.5t61.5 -0.5
q14 84 36 232q2 7 -5 9q-11 2 -54.5 2t-58.5 -2q-28 0 -47 -23q-12 -14 -55 -88z" />
    <glyph glyph-name="tbar" unicode="&#x167;" horiz-adv-x="277" 
d="M89 -16q-31 0 -30 65q0 32 23 156h-54q4 22 12 33q3 0 21.5 -0.5t26.5 -0.5q11 63 22 110q0 5 -3 5q-49 0 -71 3q0 5 -1 7q4 7 19.5 20t19.5 15h7.5h13.5h20q6 0 6 5q21 88 30 107q5 8 34.5 31.5t42.5 27.5q2 1 5 -4.5t2 -7.5q-11 -14 -23 -55q-11 -39 -22 -97q0 -7 4 -7
q95 -2 117 8q2 -12 -5 -19q-15 -19 -54 -26q-29 -6 -67 -7q-5 0 -7 -7q-1 -4 -22 -109h86q0 -5 -4 -17.5t-7 -15.5q-11 0 -38.5 0.5t-41.5 0.5q-10 -55 -14 -96q-5 -50 18 -50q20 0 47.5 22.5t43.5 44.5q2 1 4 -1t1 -3q2 -20 -5 -32q-24 -38 -73 -72t-84 -34z" />
    <glyph glyph-name="uni0168" unicode="&#x168;" horiz-adv-x="685" 
d="M83 589q-2 5 0 16t6 13q3 0 50 -1.5t75 -1.5t71.5 1.5t50.5 1.5q3 -3 2 -13.5t-4 -15.5q-32 -5 -47 -8q-37 -8 -45 -52q-37 -214 -45 -290q-9 -69 3 -104q9 -42 47.5 -70t102.5 -28q77 0 121 40.5t67 145.5q25 113 49 289q5 35 -2.5 49.5t-31.5 19.5q-13 3 -51 8
q-3 5 -1 16.5t5 13.5q3 0 44.5 -2t75.5 -2q33 0 68.5 2t39.5 2q3 -3 1.5 -15.5t-4.5 -14.5q-28 -3 -46 -8q-22 -6 -32 -22t-16 -48q-5 -25 -21.5 -116.5t-29 -152.5t-24.5 -93q-59 -167 -243 -167q-126 0 -179 71q-32 45 -32 117q1 31 26.5 192t26.5 171q3 37 -22 46
q-16 6 -56 10zM509 736q37 0 73 32q2 2 4 -6q5 -15 3 -21q-15 -20 -50 -40.5t-62 -20.5q-17 0 -65 17q-26 7 -35 7q-26 0 -69 -30l-4 5q-5 19 -1 22q13 15 47.5 36.5t53.5 21.5q18 0 59 -13q32 -10 46 -10z" />
    <glyph glyph-name="uni0169" unicode="&#x169;" horiz-adv-x="463" 
d="M107 309q4 22 -5 22q-17 0 -59 -39q-4 0 -4 4q-1 4 0.5 15t3.5 13q30 34 70.5 60.5t58.5 26.5q25 0 5 -90q-38 -181 -42 -205q-6 -30 -1.5 -44t20.5 -14q27 0 71 44.5t76 105.5q13 25 26 72q21 92 25 99q6 6 32.5 17.5t40.5 14.5q6 -3 4 -12q-13 -18 -23 -65
q-35 -148 -44 -235q-4 -36 9 -36q20 0 63 49q4 0 4 -5q0 -19 -5 -31q-26 -39 -64.5 -65.5t-61.5 -26.5q-30 0 -18 89q2 14 6.5 38.5t6.5 36.5q0 1 -1.5 1.5t-2.5 -0.5q-50 -75 -119 -126q-51 -39 -87 -39q-49 0 -29 111q9 52 44 214zM348 539q31 0 65 29q2 1 4 -5
q5 -15 2 -21q-16 -20 -47 -39t-56 -19q-13 0 -58 15q-20 8 -36 8q-26 0 -65 -28l-3 7q-4 17 -1 20q13 14 46 35t51 21q13 0 54 -13q27 -10 44 -10z" />
    <glyph glyph-name="uni016A" unicode="&#x16a;" horiz-adv-x="685" 
d="M83 589q-2 5 0 16t6 13q3 0 50 -1.5t75 -1.5t71.5 1.5t50.5 1.5q3 -3 2 -13.5t-4 -15.5q-32 -5 -47 -8q-37 -8 -45 -52q-37 -214 -45 -290q-9 -69 3 -104q9 -42 47.5 -70t102.5 -28q77 0 121 40.5t67 145.5q25 113 49 289q5 35 -2.5 49.5t-31.5 19.5q-13 3 -51 8
q-3 5 -1 16.5t5 13.5q3 0 44.5 -2t75.5 -2q33 0 68.5 2t39.5 2q3 -3 1.5 -15.5t-4.5 -14.5q-28 -3 -46 -8q-22 -6 -32 -22t-16 -48q-5 -25 -21.5 -116.5t-29 -152.5t-24.5 -93q-59 -167 -243 -167q-126 0 -179 71q-32 45 -32 117q1 31 26.5 192t26.5 171q3 37 -22 46
q-16 6 -56 10zM331 737q20 -2 53 -2q174 0 178 1q-1 -10 -10 -29t-13 -21q-12 -3 -194 -3l-37 2q1 7 10.5 27.5t12.5 24.5z" />
    <glyph glyph-name="uni016B" unicode="&#x16b;" horiz-adv-x="463" 
d="M107 309q4 22 -5 22q-17 0 -59 -39q-4 0 -4 4q-1 4 0.5 15t3.5 13q30 34 70.5 60.5t58.5 26.5q25 0 5 -90q-38 -181 -42 -205q-6 -30 -1.5 -44t20.5 -14q27 0 71 44.5t76 105.5q13 25 26 72q21 92 25 99q6 6 32.5 17.5t40.5 14.5q6 -3 4 -12q-13 -18 -23 -65
q-35 -148 -44 -235q-4 -36 9 -36q20 0 63 49q4 0 4 -5q0 -19 -5 -31q-26 -39 -64.5 -65.5t-61.5 -26.5q-30 0 -18 89q2 14 6.5 38.5t6.5 36.5q0 1 -1.5 1.5t-2.5 -0.5q-50 -75 -119 -126q-51 -39 -87 -39q-49 0 -29 111q9 52 44 214zM200 553q2 0 17 -0.5t28 -0.5
q152 0 158 2q-1 -8 -11 -28.5t-13 -21.5q-22 -5 -169 -5l-34 2q2 8 12 29.5t12 22.5z" />
    <glyph glyph-name="uni016C" unicode="&#x16c;" horiz-adv-x="685" 
d="M83 589q-2 5 0 16t6 13q3 0 50 -1.5t75 -1.5t71.5 1.5t50.5 1.5q3 -3 2 -13.5t-4 -15.5q-32 -5 -47 -8q-37 -8 -45 -52q-37 -214 -45 -290q-9 -69 3 -104q9 -42 47.5 -70t102.5 -28q77 0 121 40.5t67 145.5q25 113 49 289q5 35 -2.5 49.5t-31.5 19.5q-13 3 -51 8
q-3 5 -1 16.5t5 13.5q3 0 44.5 -2t75.5 -2q33 0 68.5 2t39.5 2q3 -3 1.5 -15.5t-4.5 -14.5q-28 -3 -46 -8q-22 -6 -32 -22t-16 -48q-5 -25 -21.5 -116.5t-29 -152.5t-24.5 -93q-59 -167 -243 -167q-126 0 -179 71q-32 45 -32 117q1 31 26.5 192t26.5 171q3 37 -22 46
q-16 6 -56 10zM441 707q29 0 51 11.5t48 40.5q1 1 10.5 4.5t14.5 3.5t5 -6q-22 -48 -63.5 -75t-91.5 -27q-46 0 -74.5 21.5t-25.5 58.5q4 6 18.5 16.5t20.5 12.5q2 1 6.5 1t5.5 -1q8 -61 75 -61z" />
    <glyph glyph-name="uni016D" unicode="&#x16d;" horiz-adv-x="463" 
d="M107 309q4 22 -5 22q-17 0 -59 -39q-4 0 -4 4q-1 4 0.5 15t3.5 13q30 34 70.5 60.5t58.5 26.5q25 0 5 -90q-38 -181 -42 -205q-6 -30 -1.5 -44t20.5 -14q27 0 71 44.5t76 105.5q13 25 26 72q21 92 25 99q6 6 32.5 17.5t40.5 14.5q6 -3 4 -12q-13 -18 -23 -65
q-35 -148 -44 -235q-4 -36 9 -36q20 0 63 49q4 0 4 -5q0 -19 -5 -31q-26 -39 -64.5 -65.5t-61.5 -26.5q-30 0 -18 89q2 14 6.5 38.5t6.5 36.5q0 1 -1.5 1.5t-2.5 -0.5q-50 -75 -119 -126q-51 -39 -87 -39q-49 0 -29 111q9 52 44 214zM295 520q51 0 94 56q1 1 11 4.5t15 3.5
q6 0 6 -5q-21 -52 -62 -81t-90 -29q-44 0 -71 23t-23 63q3 7 17 18t21 13q2 1 7.5 1t6.5 -1q4 -66 68 -66z" />
    <glyph glyph-name="Uring" unicode="&#x16e;" horiz-adv-x="685" 
d="M83 589q-2 5 0 16t6 13q3 0 50 -1.5t75 -1.5t71.5 1.5t50.5 1.5q3 -3 2 -13.5t-4 -15.5q-32 -5 -47 -8q-37 -8 -45 -52q-37 -214 -45 -290q-9 -69 3 -104q9 -42 47.5 -70t102.5 -28q77 0 121 40.5t67 145.5q25 113 49 289q5 35 -2.5 49.5t-31.5 19.5q-13 3 -51 8
q-3 5 -1 16.5t5 13.5q3 0 44.5 -2t75.5 -2q33 0 68.5 2t39.5 2q3 -3 1.5 -15.5t-4.5 -14.5q-28 -3 -46 -8q-22 -6 -32 -22t-16 -48q-5 -25 -21.5 -116.5t-29 -152.5t-24.5 -93q-59 -167 -243 -167q-126 0 -179 71q-32 45 -32 117q1 31 26.5 192t26.5 171q3 37 -22 46
q-16 6 -56 10zM442 790q34 0 52 -19.5t16 -49.5q-3 -33 -27 -53t-58 -20q-28 0 -49.5 19t-18.5 54q3 32 26 50.5t59 18.5zM435 754q-42 0 -45 -33q-1 -16 11 -26.5t31 -10.5q18 0 31 8.5t14 23.5q2 18 -8 28t-34 10z" />
    <glyph glyph-name="uring" unicode="&#x16f;" horiz-adv-x="463" 
d="M107 309q4 22 -5 22q-17 0 -59 -39q-4 0 -4 4q-1 4 0.5 15t3.5 13q30 34 70.5 60.5t58.5 26.5q25 0 5 -90q-38 -181 -42 -205q-6 -30 -1.5 -44t20.5 -14q27 0 71 44.5t76 105.5q13 25 26 72q21 92 25 99q6 6 32.5 17.5t40.5 14.5q6 -3 4 -12q-13 -18 -23 -65
q-35 -148 -44 -235q-4 -36 9 -36q20 0 63 49q4 0 4 -5q0 -19 -5 -31q-26 -39 -64.5 -65.5t-61.5 -26.5q-30 0 -18 89q2 14 6.5 38.5t6.5 36.5q0 1 -1.5 1.5t-2.5 -0.5q-50 -75 -119 -126q-51 -39 -87 -39q-49 0 -29 111q9 52 44 214zM297 608q32 0 49.5 -22.5t14.5 -54.5
q-3 -35 -27.5 -55.5t-56.5 -20.5q-26 0 -47 19t-18 56q2 34 26 56t59 22zM288 571q-20 0 -33 -10.5t-14 -27.5q-1 -18 11.5 -30t32.5 -12q19 0 32 10.5t15 26.5q2 19 -9 31t-35 12z" />
    <glyph glyph-name="uni0170" unicode="&#x170;" horiz-adv-x="685" 
d="M83 589q-2 5 0 16t6 13q3 0 50 -1.5t75 -1.5t71.5 1.5t50.5 1.5q3 -3 2 -13.5t-4 -15.5q-32 -5 -47 -8q-37 -8 -45 -52q-37 -214 -45 -290q-9 -69 3 -104q9 -42 47.5 -70t102.5 -28q77 0 121 40.5t67 145.5q25 113 49 289q5 35 -2.5 49.5t-31.5 19.5q-13 3 -51 8
q-3 5 -1 16.5t5 13.5q3 0 44.5 -2t75.5 -2q33 0 68.5 2t39.5 2q3 -3 1.5 -15.5t-4.5 -14.5q-28 -3 -46 -8q-22 -6 -32 -22t-16 -48q-5 -25 -21.5 -116.5t-29 -152.5t-24.5 -93q-59 -167 -243 -167q-126 0 -179 71q-32 45 -32 117q1 31 26.5 192t26.5 171q3 37 -22 46
q-16 6 -56 10zM463 784q6 -3 3 -9q-8 -16 -105 -120q-3 -1 -13.5 4.5t-11.5 7.5q49 95 57 109q10 4 35.5 7t34.5 1zM598 796q4 -8 2 -11q-5 -11 -48.5 -59t-63.5 -67q-3 -1 -13 3.5t-12 7.5q35 70 63 119q9 4 37 6.5t35 0.5z" />
    </font>
</defs>
</svg>
