<?xml version="1.0" encoding="utf-8"?>
<!-- Generator: Adobe Illustrator 22.1.0, SVG Export Plug-In . SVG Version: 6.00 Build 0)  -->
<svg version="1.1" id="Layer_1" xmlns="http://www.w3.org/2000/svg" xmlns:xlink="http://www.w3.org/1999/xlink" x="0px" y="0px"
	 viewBox="0 0 512 512" style="enable-background:new 0 0 512 512;" xml:space="preserve">
<g>
	<g>
		<g>
			<path d="M255.9998,25.0141c127.3662,0,230.9864,103.6194,230.9864,230.9859S383.366,486.9859,255.9998,486.9859
				S25.0138,383.3665,25.0138,256S128.6336,25.0141,255.9998,25.0141 M255.9998,6.0004C117.9287,6.0004,6,117.929,6,256
				s111.9287,249.9996,249.9998,249.9996S506,394.071,506,256S394.0709,6.0004,255.9998,6.0004L255.9998,6.0004z"/>
		</g>
	</g>
	<path d="M290.4186,218.3833l-44.859-17.6918c-14.5332-5.6855-31.5913-12.9512-31.5913-36.645
		c0-13.2696,13.268-22.4305,39.4886-22.4305c10.4261,0,41.7007,3.7904,58.7604,53.39h7.2658v-58.7604h-11.3726
		c-2.2118,1.8951-6.634,5.0553-10.1093,5.6871c-1.58,0.3151-3.4754,0.3151-5.0553,0
		c-10.4244-1.8967-17.6902-10.1093-40.4371-10.1093c-45.4911,0-66.3413,30.328-66.3413,60.024
		c0,36.6453,27.4842,52.1251,44.2275,58.759l37.5935,14.8479c17.3765,6.9507,38.2267,15.1647,38.2267,39.1735
		c0,9.7943-5.6871,32.8549-46.1242,32.8549c-31.2746,0-60.9709-25.5891-71.3966-67.9215h-8.2143l1.2636,73.6087h11.0575
		c4.1072-7.2658,11.6897-7.5825,16.4283-7.5825c9.252,0,16.7434,12.0047,52.1251,12.0047c49.2829,0,74.5569-33.8017,74.5569-68.2366
		C335.9113,259.7689,328.0121,233.2313,290.4186,218.3833z"/>
	<rect x="180.4799" y="394.0319" width="151.3411" height="18.3637"/>
</g>
</svg>
